{
.appVersion = "895";
DisplayStrings = (
"nnnnn\012hobonop\012abcdefgh\012ijklmnopq\012rosotuvwxyz",
hn,
abcdefghijklmnopqrstuvwxyz,
/zerokayahli,
/shakayahli,
n/kakayahli,
e/ngakayahli/ngakayahli,
/kakayahli/kakayahli,
yz
);
copyright = "Copyright 2009, 2010, 2011 by Daniel Johnson. Released under the terms of the Open Font License.";
customParameters = (
{
name = openTypeNameLicenseURL;
value = "http://scripts.sil.org/OFL";
},
{
name = fsType;
value = (
3
);
}
);
date = "2016-06-29 14:49:48 +0000";
designer = "Alexei Vanyashin (v3), Daniel Johnson (original version)";
designerURL = "http://cyreal.org";
familyName = "Jura-dev01";
featurePrefixes = (
{
automatic = 1;
code = "languagesystem DFLT dflt;\012";
name = Languagesystems;
}
);
fontMaster = (
{
alignmentZones = (
"{0, -20}"
);
ascender = 879;
capHeight = 643;
customParameters = (
{
name = Filter;
value = "Noodler; 15.0; 1; 1\";";
}
);
descender = -257;
guideLines = (
{
position = "{312.5, 441.1}";
},
{
position = "{263, 20}";
}
);
horizontalStems = (
40
);
id = "0E6FACCE-B85C-44A4-8B06-9EFDFED90B40";
userData = {
GSCornerRadius = 15;
GSOffsetHorizontal = 20;
GSOffsetMakeStroke = 1;
GSOffsetVertical = 20;
noodleExtremesAndInflections = 1;
noodleRemoveOverlap = 1;
noodleThickness = "20.0";
};
verticalStems = (
40
);
weight = Light;
weightValue = 40;
xHeight = 461;
},
{
ascender = 800;
capHeight = 700;
descender = -200;
id = "B309FD91-69BF-47D2-8142-D25EBE917F3C";
userData = {
noodleExtremesAndInflections = 1;
noodleRemoveOverlap = 1;
noodleThickness = "42.0";
};
weight = SemiLight;
weightValue = 200;
xHeight = 461;
},
{
ascender = 800;
capHeight = 700;
descender = -200;
id = "3776B938-A14A-42B9-91A8-ACB6A1608662";
weight = SemiBold;
weightValue = 400;
xHeight = 461;
}
);
glyphs = (
{
glyphname = A;
lastChange = "2016-07-15 20:54:10 +0000";
layers = (
{
layerId = "0E6FACCE-B85C-44A4-8B06-9EFDFED90B40";
width = 600;
},
{
background = {
paths = (
{
closed = 1;
nodes = (
"52.667 -16 OFFCURVE",
"60 -9.333 OFFCURVE",
"66 4 CURVE",
"138 204 LINE",
"410 204 LINE",
"482 4 LINE SMOOTH",
"487.333 -9.333 OFFCURVE",
"494.667 -16 OFFCURVE",
"504 -16 CURVE SMOOTH",
"518 -16 OFFCURVE",
"525 -9.333 OFFCURVE",
"525 4 CURVE SMOOTH",
"525 8.667 OFFCURVE",
"524 13.333 OFFCURVE",
"522 18 CURVE SMOOTH",
"297 636 LINE",
"251 636 LINE",
"26 18 LINE SMOOTH",
"24 13.333 OFFCURVE",
"23 8.667 OFFCURVE",
"23 4 CURVE SMOOTH",
"23 -9.333 OFFCURVE",
"30 -16 OFFCURVE",
"44 -16 CURVE SMOOTH"
);
},
{
closed = 1;
nodes = (
"273 575 LINE",
"394 246 LINE",
"154 246 LINE"
);
}
);
};
layerId = "B309FD91-69BF-47D2-8142-D25EBE917F3C";
width = 600;
},
{
background = {
paths = (
{
closed = 1;
nodes = (
"76.667 -16 OFFCURVE",
"89 -6.667 OFFCURVE",
"97 12 CURVE SMOOTH",
"166 189 LINE",
"444 189 LINE",
"513 12 LINE SMOOTH",
"520.333 -6.667 OFFCURVE",
"532.667 -16 OFFCURVE",
"550 -16 CURVE SMOOTH",
"581.325 -16 OFFCURVE",
"590.469 14.593 OFFCURVE",
"583 37 CURVE",
"346 636 LINE",
"264 636 LINE",
"27 37 LINE",
"19.531 14.593 OFFCURVE",
"28.675 -16 OFFCURVE",
"60 -16 CURVE SMOOTH"
);
},
{
closed = 1;
nodes = (
"304 532 LINE",
"415 261 LINE",
"195 261 LINE"
);
}
);
};
layerId = "3776B938-A14A-42B9-91A8-ACB6A1608662";
width = 600;
}
);
unicode = 0041;
},
{
glyphname = B;
lastChange = "2016-07-15 20:54:10 +0000";
layers = (
{
layerId = "0E6FACCE-B85C-44A4-8B06-9EFDFED90B40";
width = 600;
},
{
background = {
paths = (
{
closed = 1;
nodes = (
"321 0 LINE SMOOTH",
"461 0 OFFCURVE",
"528 35 OFFCURVE",
"528 175 CURVE SMOOTH",
"528 204 LINE SMOOTH",
"528 300 OFFCURVE",
"496.333 347 OFFCURVE",
"431 367 CURVE",
"467.667 390.333 OFFCURVE",
"486 430.333 OFFCURVE",
"486 487 CURVE SMOOTH",
"486 543.667 OFFCURVE",
"468.667 582.667 OFFCURVE",
"434 604 CURVE SMOOTH",
"399.333 625.333 OFFCURVE",
"347.667 636 OFFCURVE",
"279 636 CURVE SMOOTH",
"103 636 LINE SMOOTH",
"90.333 636 OFFCURVE",
"84 625.667 OFFCURVE",
"84 605 CURVE SMOOTH",
"84 31 LINE SMOOTH",
"84 10.333 OFFCURVE",
"90.333 0 OFFCURVE",
"103 0 CURVE SMOOTH"
);
},
{
closed = 1;
nodes = (
"126 337 LINE",
"321 337 LINE SMOOTH",
"432.143 337 OFFCURVE",
"486 326.017 OFFCURVE",
"486 204 CURVE SMOOTH",
"486 175 LINE SMOOTH",
"486 52.983 OFFCURVE",
"432.143 42 OFFCURVE",
"321 42 CURVE SMOOTH",
"126 42 LINE"
);
},
{
closed = 1;
nodes = (
"126 594 LINE",
"279 594 LINE SMOOTH",
"399 594 OFFCURVE",
"444 574 OFFCURVE",
"444 486 CURVE SMOOTH",
"444 398 OFFCURVE",
"397.667 380.333 OFFCURVE",
"279 379 CURVE",
"126 379 LINE"
);
}
);
};
layerId = "B309FD91-69BF-47D2-8142-D25EBE917F3C";
width = 600;
},
{
background = {
paths = (
{
closed = 1;
nodes = (
"336 0 LINE SMOOTH",
"514.667 0 OFFCURVE",
"588 38.667 OFFCURVE",
"588 184 CURVE SMOOTH",
"588 203 LINE SMOOTH",
"588 284.333 OFFCURVE",
"560.667 338.667 OFFCURVE",
"506 366 CURVE",
"532.667 390.667 OFFCURVE",
"546 427 OFFCURVE",
"546 475 CURVE SMOOTH",
"546 597.667 OFFCURVE",
"468.667 636 OFFCURVE",
"306 636 CURVE SMOOTH",
"118 636 LINE SMOOTH",
"95.333 636 OFFCURVE",
"84 621.333 OFFCURVE",
"84 592 CURVE SMOOTH",
"84 44 LINE SMOOTH",
"84 14.667 OFFCURVE",
"95.333 0 OFFCURVE",
"118 0 CURVE SMOOTH"
);
},
{
closed = 1;
nodes = (
"156 312 LINE",
"354 312 LINE SMOOTH",
"483.333 312 OFFCURVE",
"516 297.333 OFFCURVE",
"516 200 CURVE SMOOTH",
"516 184 LINE SMOOTH",
"516 86.667 OFFCURVE",
"482.667 72 OFFCURVE",
"336 72 CURVE SMOOTH",
"156 72 LINE"
);
},
{
closed = 1;
nodes = (
"156 559 LINE",
"306 559 LINE SMOOTH",
"435.333 559 OFFCURVE",
"474 544 OFFCURVE",
"474 472 CURVE SMOOTH",
"474 400 OFFCURVE",
"435.333 384 OFFCURVE",
"306 384 CURVE SMOOTH",
"156 384 LINE"
);
}
);
};
layerId = "3776B938-A14A-42B9-91A8-ACB6A1608662";
width = 600;
}
);
unicode = 0042;
},
{
glyphname = C;
lastChange = "2016-07-15 20:54:10 +0000";
layers = (
{
layerId = "0E6FACCE-B85C-44A4-8B06-9EFDFED90B40";
width = 600;
},
{
background = {
paths = (
{
closed = 1;
nodes = (
"421 0 LINE SMOOTH",
"505 0 OFFCURVE",
"516 48.667 OFFCURVE",
"516 110 CURVE SMOOTH",
"516 127.333 OFFCURVE",
"509 136.333 OFFCURVE",
"495 137 CURVE",
"481 137 OFFCURVE",
"474 126.167 OFFCURVE",
"474 104.5 CURVE SMOOTH",
"474 82.833 OFFCURVE",
"469.667 67 OFFCURVE",
"461 57 CURVE SMOOTH",
"452.333 47 OFFCURVE",
"436.667 42 OFFCURVE",
"414 42 CURVE SMOOTH",
"280 42 LINE SMOOTH",
"167.186 42 OFFCURVE",
"114 52.983 OFFCURVE",
"114 175 CURVE SMOOTH",
"114 461 LINE SMOOTH",
"114 583.017 OFFCURVE",
"167.186 594 OFFCURVE",
"280 594 CURVE SMOOTH",
"414 594 LINE SMOOTH",
"459.333 594 OFFCURVE",
"474 573.667 OFFCURVE",
"474 531 CURVE SMOOTH",
"474 509.667 OFFCURVE",
"481 499 OFFCURVE",
"495 499 CURVE",
"525.833 496.667 OFFCURVE",
"540.167 645.083 OFFCURVE",
"421 636 CURVE",
"280 636 LINE SMOOTH",
"138.667 636 OFFCURVE",
"72 601 OFFCURVE",
"72 461 CURVE SMOOTH",
"72 175 LINE SMOOTH",
"72 35 OFFCURVE",
"138.667 0 OFFCURVE",
"280 0 CURVE SMOOTH"
);
}
);
};
layerId = "B309FD91-69BF-47D2-8142-D25EBE917F3C";
width = 600;
},
{
background = {
paths = (
{
closed = 1;
nodes = (
"465 0 LINE SMOOTH",
"551.667 0 OFFCURVE",
"575 49.333 OFFCURVE",
"575 116 CURVE SMOOTH",
"575 149.333 OFFCURVE",
"563 166.333 OFFCURVE",
"539 167 CURVE",
"520.333 167 OFFCURVE",
"503 154.667 OFFCURVE",
"503 120 CURVE SMOOTH",
"503 85.333 OFFCURVE",
"494 72 OFFCURVE",
"458 72 CURVE SMOOTH",
"324 72 LINE SMOOTH",
"176 72 OFFCURVE",
"143 86 OFFCURVE",
"143 186 CURVE SMOOTH",
"143 450 LINE SMOOTH",
"143 548.667 OFFCURVE",
"176.667 564 OFFCURVE",
"306 564 CURVE SMOOTH",
"458 564 LINE",
"517.167 574.667 OFFCURVE",
"492.333 507.333 OFFCURVE",
"514 479 CURVE",
"521.333 472.333 OFFCURVE",
"529.667 469 OFFCURVE",
"539 469 CURVE SMOOTH",
"563 469 OFFCURVE",
"575 485.667 OFFCURVE",
"575 519 CURVE SMOOTH",
"575 552.333 OFFCURVE",
"567.5 580.167 OFFCURVE",
"552.5 602.5 CURVE SMOOTH",
"537.5 624.833 OFFCURVE",
"508.333 636 OFFCURVE",
"465 636 CURVE SMOOTH",
"306 636 LINE SMOOTH",
"144.667 636 OFFCURVE",
"71 597.333 OFFCURVE",
"71 452 CURVE SMOOTH",
"71 184 LINE SMOOTH",
"71 38.667 OFFCURVE",
"144 0 OFFCURVE",
"324 0 CURVE SMOOTH"
);
}
);
};
layerId = "3776B938-A14A-42B9-91A8-ACB6A1608662";
width = 600;
}
);
unicode = 0043;
},
{
glyphname = D;
lastChange = "2016-07-15 20:54:10 +0000";
layers = (
{
layerId = "0E6FACCE-B85C-44A4-8B06-9EFDFED90B40";
width = 600;
},
{
background = {
paths = (
{
closed = 1;
nodes = (
"321 0 LINE SMOOTH",
"461 0 OFFCURVE",
"528 35 OFFCURVE",
"528 175 CURVE SMOOTH",
"528 461 LINE SMOOTH",
"528 601 OFFCURVE",
"461 636 OFFCURVE",
"321 636 CURVE SMOOTH",
"103 636 LINE SMOOTH",
"90.333 636 OFFCURVE",
"84 625.667 OFFCURVE",
"84 605 CURVE SMOOTH",
"84 31 LINE SMOOTH",
"84 10.333 OFFCURVE",
"90.333 0 OFFCURVE",
"103 0 CURVE SMOOTH"
);
},
{
closed = 1;
nodes = (
"126 594 LINE",
"321 594 LINE SMOOTH",
"432.143 594 OFFCURVE",
"486 583.017 OFFCURVE",
"486 461 CURVE SMOOTH",
"486 175 LINE SMOOTH",
"486 52.983 OFFCURVE",
"432.143 42 OFFCURVE",
"321 42 CURVE SMOOTH",
"126 42 LINE"
);
}
);
};
layerId = "B309FD91-69BF-47D2-8142-D25EBE917F3C";
width = 600;
},
{
background = {
paths = (
{
closed = 1;
nodes = (
"336 0 LINE SMOOTH",
"514.667 0 OFFCURVE",
"588 38.667 OFFCURVE",
"588 184 CURVE SMOOTH",
"588 452 LINE SMOOTH",
"588 596 OFFCURVE",
"515.333 636 OFFCURVE",
"354 636 CURVE SMOOTH",
"118 636 LINE SMOOTH",
"95.333 636 OFFCURVE",
"84 621.333 OFFCURVE",
"84 592 CURVE SMOOTH",
"84 44 LINE SMOOTH",
"84 14.667 OFFCURVE",
"95.333 0 OFFCURVE",
"118 0 CURVE SMOOTH"
);
},
{
closed = 1;
nodes = (
"156 564 LINE",
"354 564 LINE SMOOTH",
"483.333 564 OFFCURVE",
"516 548.667 OFFCURVE",
"516 450 CURVE SMOOTH",
"516 186 LINE SMOOTH",
"516 86 OFFCURVE",
"484 72 OFFCURVE",
"336 72 CURVE SMOOTH",
"156 72 LINE"
);
}
);
};
layerId = "3776B938-A14A-42B9-91A8-ACB6A1608662";
width = 600;
}
);
unicode = 0044;
},
{
glyphname = E;
lastChange = "2016-07-15 20:54:10 +0000";
layers = (
{
layerId = "0E6FACCE-B85C-44A4-8B06-9EFDFED90B40";
width = 600;
},
{
background = {
paths = (
{
closed = 1;
nodes = (
"499 0 LINE SMOOTH",
"518.333 0 OFFCURVE",
"528 6.333 OFFCURVE",
"528 19 CURVE SMOOTH",
"528 34.333 OFFCURVE",
"518.333 42 OFFCURVE",
"499 42 CURVE SMOOTH",
"126 42 LINE",
"126 337 LINE",
"381 337 LINE SMOOTH",
"401 337 OFFCURVE",
"411 343.333 OFFCURVE",
"411 356 CURVE SMOOTH",
"411 371.333 OFFCURVE",
"401 379 OFFCURVE",
"381 379 CURVE SMOOTH",
"126 379 LINE",
"126 594 LINE",
"499 594 LINE SMOOTH",
"518.333 594 OFFCURVE",
"528 600.333 OFFCURVE",
"528 613 CURVE SMOOTH",
"528 628.333 OFFCURVE",
"518.333 636 OFFCURVE",
"499 636 CURVE SMOOTH",
"103 636 LINE SMOOTH",
"90.333 636 OFFCURVE",
"84 625.667 OFFCURVE",
"84 605 CURVE SMOOTH",
"84 31 LINE SMOOTH",
"84 10.333 OFFCURVE",
"90.333 0 OFFCURVE",
"103 0 CURVE SMOOTH"
);
}
);
};
layerId = "B309FD91-69BF-47D2-8142-D25EBE917F3C";
width = 600;
},
{
background = {
paths = (
{
closed = 1;
nodes = (
"544 0 LINE SMOOTH",
"573.333 0 OFFCURVE",
"588 11.333 OFFCURVE",
"588 34 CURVE SMOOTH",
"588 59.333 OFFCURVE",
"573.333 72 OFFCURVE",
"544 72 CURVE SMOOTH",
"156 72 LINE",
"156 322 LINE",
"421 322 LINE SMOOTH",
"454.333 322 OFFCURVE",
"471 333.333 OFFCURVE",
"471 356 CURVE SMOOTH",
"471 381.333 OFFCURVE",
"454.333 394 OFFCURVE",
"421 394 CURVE SMOOTH",
"156 394 LINE",
"156 564 LINE",
"544 564 LINE SMOOTH",
"573.333 564 OFFCURVE",
"588 575.333 OFFCURVE",
"588 598 CURVE SMOOTH",
"588 623.333 OFFCURVE",
"573.333 636 OFFCURVE",
"544 636 CURVE SMOOTH",
"118 636 LINE SMOOTH",
"95.333 636 OFFCURVE",
"84 621.333 OFFCURVE",
"84 592 CURVE SMOOTH",
"84 44 LINE SMOOTH",
"84 14.667 OFFCURVE",
"95.333 0 OFFCURVE",
"118 0 CURVE SMOOTH"
);
}
);
};
layerId = "3776B938-A14A-42B9-91A8-ACB6A1608662";
width = 600;
}
);
unicode = 0045;
},
{
glyphname = F;
lastChange = "2016-07-15 20:54:10 +0000";
layers = (
{
layerId = "0E6FACCE-B85C-44A4-8B06-9EFDFED90B40";
width = 600;
},
{
background = {
paths = (
{
closed = 1;
nodes = (
"84 -17 OFFCURVE",
"126 -17 OFFCURVE",
"126 23 CURVE SMOOTH",
"126 337 LINE",
"381 337 LINE SMOOTH",
"401 337 OFFCURVE",
"411 343.333 OFFCURVE",
"411 356 CURVE SMOOTH",
"411 371.333 OFFCURVE",
"401 379 OFFCURVE",
"381 379 CURVE SMOOTH",
"126 379 LINE",
"126 594 LINE",
"499 594 LINE SMOOTH",
"518.333 594 OFFCURVE",
"528 600.333 OFFCURVE",
"528 613 CURVE SMOOTH",
"528 628.333 OFFCURVE",
"518.333 636 OFFCURVE",
"499 636 CURVE SMOOTH",
"103 636 LINE SMOOTH",
"90.333 636 OFFCURVE",
"84 625.667 OFFCURVE",
"84 605 CURVE SMOOTH",
"84 23 LINE SMOOTH"
);
}
);
};
layerId = "B309FD91-69BF-47D2-8142-D25EBE917F3C";
width = 600;
},
{
background = {
paths = (
{
closed = 1;
nodes = (
"144 -7 OFFCURVE",
"156 7 OFFCURVE",
"156 35 CURVE SMOOTH",
"156 322 LINE",
"421 322 LINE SMOOTH",
"454.333 322 OFFCURVE",
"471 333.333 OFFCURVE",
"471 356 CURVE SMOOTH",
"471 381.333 OFFCURVE",
"454.333 394 OFFCURVE",
"421 394 CURVE SMOOTH",
"156 394 LINE",
"156 564 LINE",
"544 564 LINE SMOOTH",
"573.333 564 OFFCURVE",
"588 575.333 OFFCURVE",
"588 598 CURVE SMOOTH",
"588 623.333 OFFCURVE",
"573.333 636 OFFCURVE",
"544 636 CURVE SMOOTH",
"118 636 LINE SMOOTH",
"95.333 636 OFFCURVE",
"84 621.333 OFFCURVE",
"84 592 CURVE SMOOTH",
"84 36 LINE SMOOTH",
"84 7.333 OFFCURVE",
"96 -7 OFFCURVE",
"120 -7 CURVE SMOOTH"
);
}
);
};
layerId = "3776B938-A14A-42B9-91A8-ACB6A1608662";
width = 600;
}
);
unicode = 0046;
},
{
glyphname = G;
lastChange = "2016-07-15 20:54:10 +0000";
layers = (
{
layerId = "0E6FACCE-B85C-44A4-8B06-9EFDFED90B40";
width = 600;
},
{
background = {
paths = (
{
closed = 1;
nodes = (
"421 0 LINE SMOOTH",
"441.667 0 OFFCURVE",
"458.667 3 OFFCURVE",
"472 9 CURVE SMOOTH",
"501.333 21.667 OFFCURVE",
"516 54 OFFCURVE",
"516 106 CURVE SMOOTH",
"516 293 LINE",
"341 293 LINE SMOOTH",
"301 293 OFFCURVE",
"301 251 OFFCURVE",
"341 251 CURVE SMOOTH",
"474 251 LINE",
"474 108 LINE SMOOTH",
"474 60 OFFCURVE",
"459.333 42 OFFCURVE",
"414 42 CURVE SMOOTH",
"280 42 LINE SMOOTH",
"167.186 42 OFFCURVE",
"114 52.983 OFFCURVE",
"114 175 CURVE SMOOTH",
"114 461 LINE SMOOTH",
"114 583.017 OFFCURVE",
"167.186 594 OFFCURVE",
"280 594 CURVE SMOOTH",
"414 594 LINE SMOOTH",
"459.333 594 OFFCURVE",
"474 574.833 OFFCURVE",
"474 531.5 CURVE SMOOTH",
"474 509.833 OFFCURVE",
"481 499 OFFCURVE",
"495 499 CURVE",
"525.833 496.667 OFFCURVE",
"540.167 645.083 OFFCURVE",
"421 636 CURVE",
"280 636 LINE SMOOTH",
"210.667 636 OFFCURVE",
"170 630 OFFCURVE",
"130 606 CURVE SMOOTH",
"91.333 582.667 OFFCURVE",
"72 534.333 OFFCURVE",
"72 461 CURVE SMOOTH",
"72 175 LINE SMOOTH",
"72 101.667 OFFCURVE",
"91.333 53.333 OFFCURVE",
"130 30 CURVE SMOOTH",
"170 6 OFFCURVE",
"210.667 0 OFFCURVE",
"280 0 CURVE SMOOTH"
);
}
);
};
layerId = "B309FD91-69BF-47D2-8142-D25EBE917F3C";
width = 600;
},
{
background = {
paths = (
{
closed = 1;
nodes = (
"465 0 LINE SMOOTH",
"551.667 0 OFFCURVE",
"575 45.667 OFFCURVE",
"575 115 CURVE SMOOTH",
"575 308 LINE",
"376 308 LINE SMOOTH",
"342.667 308 OFFCURVE",
"326 296 OFFCURVE",
"326 272 CURVE SMOOTH",
"326 248 OFFCURVE",
"342.667 236 OFFCURVE",
"376 236 CURVE SMOOTH",
"503 236 LINE",
"503 120 LINE SMOOTH",
"503 81.333 OFFCURVE",
"494 72 OFFCURVE",
"458 72 CURVE SMOOTH",
"306 72 LINE SMOOTH",
"175.333 72 OFFCURVE",
"143 86.667 OFFCURVE",
"143 184 CURVE SMOOTH",
"143 452 LINE SMOOTH",
"143 549.333 OFFCURVE",
"177.333 564 OFFCURVE",
"324 564 CURVE SMOOTH",
"458 564 LINE SMOOTH",
"494 564 OFFCURVE",
"503 553 OFFCURVE",
"503 513 CURVE SMOOTH",
"503 483.667 OFFCURVE",
"514.667 469 OFFCURVE",
"538 469 CURVE",
"539 470 LINE",
"563 470 OFFCURVE",
"575 486.667 OFFCURVE",
"575 520 CURVE SMOOTH",
"575 553.333 OFFCURVE",
"567.5 581 OFFCURVE",
"552.5 603 CURVE SMOOTH",
"537.5 625 OFFCURVE",
"508.333 636 OFFCURVE",
"465 636 CURVE SMOOTH",
"324 636 LINE SMOOTH",
"144 636 OFFCURVE",
"71 600.333 OFFCURVE",
"71 455 CURVE SMOOTH",
"71 181 LINE SMOOTH",
"71 38.333 OFFCURVE",
"143.333 0 OFFCURVE",
"306 0 CURVE SMOOTH"
);
}
);
};
layerId = "3776B938-A14A-42B9-91A8-ACB6A1608662";
width = 600;
}
);
unicode = 0047;
},
{
glyphname = H;
lastChange = "2016-07-15 20:54:10 +0000";
layers = (
{
layerId = "0E6FACCE-B85C-44A4-8B06-9EFDFED90B40";
width = 600;
},
{
background = {
paths = (
{
closed = 1;
nodes = (
"84 -17 OFFCURVE",
"126 -17 OFFCURVE",
"126 23 CURVE SMOOTH",
"126 322 LINE",
"486 322 LINE",
"486 23 LINE SMOOTH",
"486 -17 OFFCURVE",
"528 -17 OFFCURVE",
"528 23 CURVE SMOOTH",
"528 612 LINE SMOOTH",
"528 653.333 OFFCURVE",
"486 653.333 OFFCURVE",
"486 612 CURVE SMOOTH",
"486 364 LINE",
"126 364 LINE",
"126 612 LINE SMOOTH",
"126 632.667 OFFCURVE",
"118.333 643 OFFCURVE",
"103 643 CURVE SMOOTH",
"90.333 643 OFFCURVE",
"84 632.667 OFFCURVE",
"84 612 CURVE SMOOTH",
"84 23 LINE SMOOTH"
);
}
);
};
layerId = "B309FD91-69BF-47D2-8142-D25EBE917F3C";
width = 600;
},
{
background = {
paths = (
{
closed = 1;
nodes = (
"144 -7 OFFCURVE",
"156 7 OFFCURVE",
"156 35 CURVE SMOOTH",
"156 307 LINE",
"516 307 LINE",
"516 35 LINE SMOOTH",
"516 7 OFFCURVE",
"528 -7 OFFCURVE",
"552 -7 CURVE SMOOTH",
"576 -7 OFFCURVE",
"588 7 OFFCURVE",
"588 35 CURVE SMOOTH",
"588 600 LINE SMOOTH",
"588 628.667 OFFCURVE",
"576 643 OFFCURVE",
"552 643 CURVE SMOOTH",
"528 643 OFFCURVE",
"516 628.667 OFFCURVE",
"516 600 CURVE SMOOTH",
"516 379 LINE",
"156 379 LINE",
"156 600 LINE SMOOTH",
"156 628.667 OFFCURVE",
"143.333 643 OFFCURVE",
"118 643 CURVE SMOOTH",
"95.333 643 OFFCURVE",
"84 628.667 OFFCURVE",
"84 600 CURVE SMOOTH",
"84 35 LINE SMOOTH",
"84 7 OFFCURVE",
"96 -7 OFFCURVE",
"120 -7 CURVE SMOOTH"
);
}
);
};
layerId = "3776B938-A14A-42B9-91A8-ACB6A1608662";
width = 600;
}
);
unicode = 0048;
},
{
glyphname = I;
lastChange = "2016-07-15 20:54:10 +0000";
layers = (
{
layerId = "0E6FACCE-B85C-44A4-8B06-9EFDFED90B40";
width = 600;
},
{
background = {
paths = (
{
closed = 1;
nodes = (
"84 -16 OFFCURVE",
"126 -16 OFFCURVE",
"126 20 CURVE SMOOTH",
"126 615 LINE SMOOTH",
"126 652.333 OFFCURVE",
"84 652.333 OFFCURVE",
"84 615 CURVE SMOOTH",
"84 20 LINE SMOOTH"
);
}
);
};
layerId = "B309FD91-69BF-47D2-8142-D25EBE917F3C";
width = 600;
},
{
background = {
paths = (
{
closed = 1;
nodes = (
"144 -7 OFFCURVE",
"156 6.333 OFFCURVE",
"156 33 CURVE SMOOTH",
"156 602 LINE SMOOTH",
"156 629.333 OFFCURVE",
"144 643 OFFCURVE",
"120 643 CURVE SMOOTH",
"96 643 OFFCURVE",
"84 629.333 OFFCURVE",
"84 602 CURVE SMOOTH",
"84 33 LINE SMOOTH",
"84 6.333 OFFCURVE",
"96 -7 OFFCURVE",
"120 -7 CURVE SMOOTH"
);
}
);
};
layerId = "3776B938-A14A-42B9-91A8-ACB6A1608662";
width = 600;
}
);
unicode = 0049;
},
{
glyphname = J;
lastChange = "2016-07-15 20:54:10 +0000";
layers = (
{
layerId = "0E6FACCE-B85C-44A4-8B06-9EFDFED90B40";
width = 600;
},
{
background = {
paths = (
{
closed = 1;
nodes = (
"310.333 -8 OFFCURVE",
"351 -2 OFFCURVE",
"391 22 CURVE SMOOTH",
"429.667 45.333 OFFCURVE",
"449 93.667 OFFCURVE",
"449 167 CURVE SMOOTH",
"449 615 LINE SMOOTH",
"449 652.333 OFFCURVE",
"407 652.333 OFFCURVE",
"407 615 CURVE SMOOTH",
"407 167 LINE SMOOTH",
"407 44.983 OFFCURVE",
"353.814 34 OFFCURVE",
"241 34 CURVE SMOOTH",
"115.667 34 OFFCURVE",
"75 52.333 OFFCURVE",
"75 167 CURVE SMOOTH",
"75 185.667 OFFCURVE",
"68.333 195 OFFCURVE",
"55 195 CURVE SMOOTH",
"39.667 195 OFFCURVE",
"32 185.667 OFFCURVE",
"32 167 CURVE SMOOTH",
"32 93.667 OFFCURVE",
"51.333 45.333 OFFCURVE",
"90 22 CURVE SMOOTH",
"130 -2 OFFCURVE",
"171.667 -8 OFFCURVE",
"241 -8 CURVE SMOOTH"
);
}
);
};
layerId = "B309FD91-69BF-47D2-8142-D25EBE917F3C";
width = 600;
},
{
background = {
paths = (
{
closed = 1;
nodes = (
"437.333 -8 OFFCURVE",
"510 30.333 OFFCURVE",
"510 173 CURVE SMOOTH",
"510 602 LINE SMOOTH",
"510 629.333 OFFCURVE",
"498 643 OFFCURVE",
"474 643 CURVE SMOOTH",
"455.333 643 OFFCURVE",
"438 631 OFFCURVE",
"438 603 CURVE SMOOTH",
"438 176 LINE SMOOTH",
"438 80 OFFCURVE",
"404.167 64 OFFCURVE",
"271.5 64 CURVE SMOOTH",
"138.833 64 OFFCURVE",
"106 79.333 OFFCURVE",
"106 182 CURVE SMOOTH",
"106 207.333 OFFCURVE",
"92.333 225 OFFCURVE",
"71 225 CURVE SMOOTH",
"45.667 225 OFFCURVE",
"33 210.667 OFFCURVE",
"33 182 CURVE SMOOTH",
"33 103.333 OFFCURVE",
"54 51.333 OFFCURVE",
"96 26 CURVE SMOOTH",
"140 -0.667 OFFCURVE",
"189.333 -8 OFFCURVE",
"272 -8 CURVE SMOOTH"
);
}
);
};
layerId = "3776B938-A14A-42B9-91A8-ACB6A1608662";
width = 600;
}
);
unicode = 004A;
},
{
glyphname = K;
lastChange = "2016-07-15 20:54:10 +0000";
layers = (
{
layerId = "0E6FACCE-B85C-44A4-8B06-9EFDFED90B40";
width = 600;
},
{
background = {
paths = (
{
closed = 1;
nodes = (
"476.14 -25.382 OFFCURVE",
"509.668 7.332 OFFCURVE",
"484 33 CURVE",
"212 357 LINE",
"418 603 LINE SMOOTH",
"440.846 630.923 OFFCURVE",
"410.217 661.482 OFFCURVE",
"386 630 CURVE",
"126 321 LINE",
"126 615 LINE SMOOTH",
"126 652.333 OFFCURVE",
"84 652.333 OFFCURVE",
"84 615 CURVE SMOOTH",
"84 20 LINE SMOOTH",
"84 -16 OFFCURVE",
"126 -16 OFFCURVE",
"126 20 CURVE SMOOTH",
"126 255 LINE",
"184 325 LINE",
"452 6 LINE"
);
}
);
};
layerId = "B309FD91-69BF-47D2-8142-D25EBE917F3C";
width = 600;
},
{
background = {
paths = (
{
closed = 1;
nodes = (
"144 -7 OFFCURVE",
"156 7 OFFCURVE",
"156 35 CURVE SMOOTH",
"156 264 LINE",
"199 316 LINE",
"485 12 LINE",
"524.844 -35.314 OFFCURVE",
"574.715 16.099 OFFCURVE",
"541 55 CURVE",
"251 354 LINE",
"475 581 LINE",
"507.017 618.353 OFFCURVE",
"462.108 672.18 OFFCURVE",
"419 624 CURVE",
"156 346 LINE",
"156 600 LINE SMOOTH",
"156 630.667 OFFCURVE",
"138.667 643 OFFCURVE",
"120 643 CURVE SMOOTH",
"96 643 OFFCURVE",
"84 629.333 OFFCURVE",
"84 602 CURVE SMOOTH",
"84 33 LINE SMOOTH",
"84 6.333 OFFCURVE",
"96 -7 OFFCURVE",
"120 -7 CURVE SMOOTH"
);
}
);
};
layerId = "3776B938-A14A-42B9-91A8-ACB6A1608662";
width = 600;
}
);
unicode = 004B;
},
{
glyphname = L;
lastChange = "2016-07-15 20:54:10 +0000";
layers = (
{
layerId = "0E6FACCE-B85C-44A4-8B06-9EFDFED90B40";
width = 600;
},
{
background = {
paths = (
{
closed = 1;
nodes = (
"444 0 LINE SMOOTH",
"481.333 0 OFFCURVE",
"481.333 42 OFFCURVE",
"444 42 CURVE SMOOTH",
"126 42 LINE",
"126 615 LINE SMOOTH",
"126 652.333 OFFCURVE",
"84 652.333 OFFCURVE",
"84 615 CURVE SMOOTH",
"84 31 LINE SMOOTH",
"84 10.333 OFFCURVE",
"90.333 0 OFFCURVE",
"103 0 CURVE SMOOTH"
);
}
);
};
layerId = "B309FD91-69BF-47D2-8142-D25EBE917F3C";
width = 600;
},
{
background = {
paths = (
{
closed = 1;
nodes = (
"489 0 LINE SMOOTH",
"517.667 0 OFFCURVE",
"532 12 OFFCURVE",
"532 36 CURVE SMOOTH",
"532 60 OFFCURVE",
"517.667 72 OFFCURVE",
"489 72 CURVE SMOOTH",
"156 72 LINE",
"156 603 LINE SMOOTH",
"156 656.804 OFFCURVE",
"84 656.804 OFFCURVE",
"84 603 CURVE SMOOTH",
"84 43 LINE SMOOTH",
"84 14.333 OFFCURVE",
"95.333 0 OFFCURVE",
"118 0 CURVE SMOOTH"
);
}
);
};
layerId = "3776B938-A14A-42B9-91A8-ACB6A1608662";
width = 600;
}
);
unicode = 004C;
},
{
glyphname = M;
lastChange = "2016-07-15 20:54:10 +0000";
layers = (
{
layerId = "0E6FACCE-B85C-44A4-8B06-9EFDFED90B40";
width = 600;
},
{
background = {
paths = (
{
closed = 1;
nodes = (
"84 -17 OFFCURVE",
"126 -17 OFFCURVE",
"126 23 CURVE SMOOTH",
"126 557 LINE",
"304 285 LINE",
"310.667 277 OFFCURVE",
"322.333 277 OFFCURVE",
"329 285 CURVE",
"507 557 LINE",
"507 23 LINE SMOOTH",
"507 -17 OFFCURVE",
"549 -17 OFFCURVE",
"549 23 CURVE SMOOTH",
"549 612 LINE SMOOTH",
"549 632.667 OFFCURVE",
"542.333 643 OFFCURVE",
"529 643 CURVE SMOOTH",
"519.667 643 OFFCURVE",
"511.333 637.333 OFFCURVE",
"504 626 CURVE SMOOTH",
"316 342 LINE",
"129 626 LINE SMOOTH",
"121.667 637.333 OFFCURVE",
"113 643 OFFCURVE",
"103 643 CURVE SMOOTH",
"90.333 643 OFFCURVE",
"84 632.667 OFFCURVE",
"84 612 CURVE SMOOTH",
"84 23 LINE SMOOTH"
);
}
);
};
layerId = "B309FD91-69BF-47D2-8142-D25EBE917F3C";
width = 600;
},
{
background = {
paths = (
{
closed = 1;
nodes = (
"144 -7 OFFCURVE",
"156 8 OFFCURVE",
"156 38 CURVE SMOOTH",
"156 523 LINE",
"319 291 LINE",
"335 275 OFFCURVE",
"358 275 OFFCURVE",
"374 291 CURVE",
"537 523 LINE",
"537 38 LINE SMOOTH",
"537 8 OFFCURVE",
"549 -7 OFFCURVE",
"573 -7 CURVE SMOOTH",
"597 -7 OFFCURVE",
"609 7 OFFCURVE",
"609 35 CURVE SMOOTH",
"609 600 LINE SMOOTH",
"609 628.667 OFFCURVE",
"597.333 643 OFFCURVE",
"574 643 CURVE SMOOTH",
"560 643 OFFCURVE",
"547.667 635.333 OFFCURVE",
"537 620 CURVE SMOOTH",
"346 354 LINE",
"156 620 LINE SMOOTH",
"145.333 635.333 OFFCURVE",
"132.667 643 OFFCURVE",
"118 643 CURVE SMOOTH",
"95.333 643 OFFCURVE",
"84 628.667 OFFCURVE",
"84 600 CURVE SMOOTH",
"84 35 LINE SMOOTH",
"84 7 OFFCURVE",
"96 -7 OFFCURVE",
"120 -7 CURVE SMOOTH"
);
}
);
};
layerId = "3776B938-A14A-42B9-91A8-ACB6A1608662";
width = 600;
}
);
unicode = 004D;
},
{
glyphname = N;
lastChange = "2016-07-15 20:54:10 +0000";
layers = (
{
layerId = "0E6FACCE-B85C-44A4-8B06-9EFDFED90B40";
width = 600;
},
{
background = {
paths = (
{
closed = 1;
nodes = (
"521.333 -7 OFFCURVE",
"528 3 OFFCURVE",
"528 23 CURVE SMOOTH",
"528 612 LINE SMOOTH",
"528 653.333 OFFCURVE",
"486 653.333 OFFCURVE",
"486 612 CURVE SMOOTH",
"486 84 LINE",
"129 626 LINE SMOOTH",
"121.667 637.333 OFFCURVE",
"113 643 OFFCURVE",
"103 643 CURVE SMOOTH",
"90.333 643 OFFCURVE",
"84 632.667 OFFCURVE",
"84 612 CURVE SMOOTH",
"84 23 LINE SMOOTH",
"84 -17 OFFCURVE",
"126 -17 OFFCURVE",
"126 23 CURVE SMOOTH",
"126 557 LINE",
"492 0 LINE SMOOTH",
"494.667 -4.667 OFFCURVE",
"500 -7 OFFCURVE",
"508 -7 CURVE SMOOTH"
);
}
);
};
layerId = "B309FD91-69BF-47D2-8142-D25EBE917F3C";
width = 600;
},
{
background = {
paths = (
{
closed = 1;
nodes = (
"144 -7 OFFCURVE",
"156 6 OFFCURVE",
"156 32 CURVE SMOOTH",
"156 517 LINE",
"525 0 LINE SMOOTH",
"528.333 -4.667 OFFCURVE",
"537.667 -7 OFFCURVE",
"553 -7 CURVE SMOOTH",
"576.333 -7 OFFCURVE",
"588 7 OFFCURVE",
"588 35 CURVE SMOOTH",
"588 600 LINE SMOOTH",
"588 628.667 OFFCURVE",
"576 643 OFFCURVE",
"552 643 CURVE SMOOTH",
"528 643 OFFCURVE",
"516 627.667 OFFCURVE",
"516 597 CURVE SMOOTH",
"516 118 LINE",
"156 620 LINE SMOOTH",
"145.333 635.333 OFFCURVE",
"132.667 643 OFFCURVE",
"118 643 CURVE SMOOTH",
"95.333 643 OFFCURVE",
"84 628.667 OFFCURVE",
"84 600 CURVE SMOOTH",
"84 35 LINE SMOOTH",
"84 7 OFFCURVE",
"96 -7 OFFCURVE",
"120 -7 CURVE SMOOTH"
);
}
);
};
layerId = "3776B938-A14A-42B9-91A8-ACB6A1608662";
width = 600;
}
);
unicode = 004E;
},
{
glyphname = O;
lastChange = "2016-07-15 20:54:10 +0000";
layers = (
{
layerId = "0E6FACCE-B85C-44A4-8B06-9EFDFED90B40";
width = 600;
},
{
background = {
paths = (
{
closed = 1;
nodes = (
"416.333 -9 OFFCURVE",
"509 80.333 OFFCURVE",
"509 227 CURVE SMOOTH",
"509 409 LINE SMOOTH",
"509 555.667 OFFCURVE",
"416.333 645 OFFCURVE",
"287 645 CURVE SMOOTH",
"157.667 645 OFFCURVE",
"65 555.667 OFFCURVE",
"65 409 CURVE SMOOTH",
"65 227 LINE SMOOTH",
"65 80.333 OFFCURVE",
"157.667 -9 OFFCURVE",
"287 -9 CURVE SMOOTH"
);
},
{
closed = 1;
nodes = (
"175 33 OFFCURVE",
"107 105.667 OFFCURVE",
"107 227 CURVE SMOOTH",
"107 409 LINE SMOOTH",
"107 530.333 OFFCURVE",
"175 603 OFFCURVE",
"287 603 CURVE SMOOTH",
"399 603 OFFCURVE",
"467 530.333 OFFCURVE",
"467 409 CURVE SMOOTH",
"467 227 LINE SMOOTH",
"467 105.667 OFFCURVE",
"399 33 OFFCURVE",
"287 33 CURVE SMOOTH"
);
}
);
};
layerId = "B309FD91-69BF-47D2-8142-D25EBE917F3C";
width = 600;
},
{
background = {
paths = (
{
closed = 1;
nodes = (
"466.833 -9 OFFCURVE",
"568 82 OFFCURVE",
"568 230 CURVE SMOOTH",
"568 406 LINE SMOOTH",
"568 554 OFFCURVE",
"466.833 645 OFFCURVE",
"315.5 645 CURVE SMOOTH",
"164.167 645 OFFCURVE",
"64 555.333 OFFCURVE",
"64 406 CURVE SMOOTH",
"64 230 LINE SMOOTH",
"64 80.667 OFFCURVE",
"164.167 -9 OFFCURVE",
"315.5 -9 CURVE SMOOTH"
);
},
{
closed = 1;
nodes = (
"198.667 63 OFFCURVE",
"136 123.667 OFFCURVE",
"136 233 CURVE SMOOTH",
"136 403 LINE SMOOTH",
"136 511 OFFCURVE",
"197.333 573 OFFCURVE",
"316 573 CURVE SMOOTH",
"434.667 573 OFFCURVE",
"496 511 OFFCURVE",
"496 403 CURVE SMOOTH",
"496 233 LINE SMOOTH",
"496 123.667 OFFCURVE",
"433.333 63 OFFCURVE",
"316 63 CURVE SMOOTH"
);
}
);
};
layerId = "3776B938-A14A-42B9-91A8-ACB6A1608662";
width = 600;
}
);
unicode = 004F;
},
{
glyphname = P;
lastChange = "2016-07-15 20:54:10 +0000";
layers = (
{
layerId = "0E6FACCE-B85C-44A4-8B06-9EFDFED90B40";
width = 600;
},
{
background = {
paths = (
{
closed = 1;
nodes = (
"84 -16 OFFCURVE",
"126 -16 OFFCURVE",
"126 20 CURVE SMOOTH",
"126 337 LINE",
"321 337 LINE SMOOTH",
"431 337 OFFCURVE",
"486 388.667 OFFCURVE",
"486 492 CURVE SMOOTH",
"486 598.667 OFFCURVE",
"416.333 636 OFFCURVE",
"279 636 CURVE SMOOTH",
"103 636 LINE SMOOTH",
"90.333 636 OFFCURVE",
"84 625.667 OFFCURVE",
"84 605 CURVE SMOOTH",
"84 20 LINE SMOOTH"
);
},
{
closed = 1;
nodes = (
"126 594 LINE",
"279 594 LINE SMOOTH",
"399 594 OFFCURVE",
"444 574 OFFCURVE",
"444 486 CURVE SMOOTH",
"444 398 OFFCURVE",
"399 379 OFFCURVE",
"279 379 CURVE SMOOTH",
"126 379 LINE"
);
}
);
};
layerId = "B309FD91-69BF-47D2-8142-D25EBE917F3C";
width = 600;
},
{
background = {
paths = (
{
closed = 1;
nodes = (
"144 -7 OFFCURVE",
"156 6.333 OFFCURVE",
"156 33 CURVE SMOOTH",
"156 322 LINE",
"357 322 LINE SMOOTH",
"477 322 OFFCURVE",
"546 377 OFFCURVE",
"546 489 CURVE SMOOTH",
"546 601 OFFCURVE",
"469 641 OFFCURVE",
"309 641 CURVE SMOOTH",
"118 641 LINE SMOOTH",
"95.333 641 OFFCURVE",
"84 626.333 OFFCURVE",
"84 597 CURVE SMOOTH",
"84 33 LINE SMOOTH",
"84 6.333 OFFCURVE",
"96 -7 OFFCURVE",
"120 -7 CURVE SMOOTH"
);
},
{
closed = 1;
nodes = (
"156 569 LINE",
"309 569 LINE SMOOTH",
"437 569 OFFCURVE",
"474 554 OFFCURVE",
"474 482 CURVE SMOOTH",
"474 446 OFFCURVE",
"463.333 422.667 OFFCURVE",
"442 412 CURVE SMOOTH",
"420.667 400 OFFCURVE",
"376.333 394 OFFCURVE",
"309 394 CURVE SMOOTH",
"156 394 LINE"
);
}
);
};
layerId = "3776B938-A14A-42B9-91A8-ACB6A1608662";
width = 600;
}
);
unicode = 0050;
},
{
glyphname = Q;
lastChange = "2016-07-15 20:54:10 +0000";
layers = (
{
layerId = "0E6FACCE-B85C-44A4-8B06-9EFDFED90B40";
width = 600;
},
{
background = {
paths = (
{
closed = 1;
nodes = (
"339.167 -9 OFFCURVE",
"389 6.333 OFFCURVE",
"429 37 CURVE",
"466 -1 LINE",
"497.269 -27.458 OFFCURVE",
"520.221 4.779 OFFCURVE",
"496 29 CURVE SMOOTH",
"458 67 LINE",
"492 107.667 OFFCURVE",
"509 161 OFFCURVE",
"509 227 CURVE SMOOTH",
"509 409 LINE SMOOTH",
"509 555.667 OFFCURVE",
"416.333 645 OFFCURVE",
"287 645 CURVE SMOOTH",
"157.667 645 OFFCURVE",
"65 555.667 OFFCURVE",
"65 409 CURVE SMOOTH",
"65 227 LINE SMOOTH",
"65 80.333 OFFCURVE",
"160.167 -9 OFFCURVE",
"279.5 -9 CURVE SMOOTH"
);
},
{
closed = 1;
nodes = (
"228.5 33 OFFCURVE",
"187 50.167 OFFCURVE",
"155 84.5 CURVE SMOOTH",
"123 118.833 OFFCURVE",
"107 166.333 OFFCURVE",
"107 227 CURVE SMOOTH",
"107 409 LINE SMOOTH",
"107 530.333 OFFCURVE",
"175 603 OFFCURVE",
"287 603 CURVE SMOOTH",
"399 603 OFFCURVE",
"467 530.333 OFFCURVE",
"467 409 CURVE SMOOTH",
"467 227 LINE SMOOTH",
"467 172.333 OFFCURVE",
"454.333 128.333 OFFCURVE",
"429 95 CURVE",
"371 154 LINE SMOOTH",
"343.523 181.477 OFFCURVE",
"315.301 149.699 OFFCURVE",
"341 124 CURVE SMOOTH",
"399 67 LINE",
"370.333 44.333 OFFCURVE",
"330.5 33 OFFCURVE",
"279.5 33 CURVE SMOOTH"
);
}
);
};
layerId = "B309FD91-69BF-47D2-8142-D25EBE917F3C";
width = 600;
},
{
background = {
paths = (
{
closed = 1;
nodes = (
"377.333 -9 OFFCURVE",
"428.667 3.333 OFFCURVE",
"470 28 CURVE",
"499 -1 LINE",
"536.301 -35.193 OFFCURVE",
"588.727 12.578 OFFCURVE",
"551 53 CURVE",
"523 79 LINE",
"553 118.333 OFFCURVE",
"568 168.667 OFFCURVE",
"568 230 CURVE SMOOTH",
"568 406 LINE SMOOTH",
"568 554 OFFCURVE",
"468 645 OFFCURVE",
"316 645 CURVE SMOOTH",
"164 645 OFFCURVE",
"64 555.333 OFFCURVE",
"64 406 CURVE SMOOTH",
"64 230 LINE SMOOTH",
"64 80.667 OFFCURVE",
"164 -9 OFFCURVE",
"316 -9 CURVE SMOOTH"
);
},
{
closed = 1;
nodes = (
"198.667 63 OFFCURVE",
"136 123.667 OFFCURVE",
"136 233 CURVE SMOOTH",
"136 403 LINE SMOOTH",
"136 511 OFFCURVE",
"197.333 573 OFFCURVE",
"316 573 CURVE SMOOTH",
"434.667 573 OFFCURVE",
"496 511 OFFCURVE",
"496 403 CURVE SMOOTH",
"496 233 LINE SMOOTH",
"496 192.333 OFFCURVE",
"487.333 158 OFFCURVE",
"470 130 CURVE",
"424 172 LINE SMOOTH",
"400 194.667 OFFCURVE",
"373.333 192.667 OFFCURVE",
"360 178 CURVE SMOOTH",
"345.333 163.333 OFFCURVE",
"343 138.667 OFFCURVE",
"367 124 CURVE",
"416 83 LINE",
"389.333 69.667 OFFCURVE",
"356 63 OFFCURVE",
"316 63 CURVE SMOOTH"
);
}
);
};
layerId = "3776B938-A14A-42B9-91A8-ACB6A1608662";
width = 600;
}
);
unicode = 0051;
},
{
glyphname = R;
lastChange = "2016-07-15 20:54:10 +0000";
layers = (
{
layerId = "0E6FACCE-B85C-44A4-8B06-9EFDFED90B40";
width = 600;
},
{
background = {
paths = (
{
closed = 1;
nodes = (
"486.667 -7 OFFCURVE",
"494 2 OFFCURVE",
"494 20 CURVE SMOOTH",
"494 36 OFFCURVE",
"471.833 130.833 OFFCURVE",
"428.5 235.5 CURVE SMOOTH",
"406.833 287.833 OFFCURVE",
"385 322.667 OFFCURVE",
"363 340 CURVE",
"441.667 352 OFFCURVE",
"486 402 OFFCURVE",
"486 486 CURVE SMOOTH",
"486 600.667 OFFCURVE",
"416.333 636 OFFCURVE",
"279 636 CURVE SMOOTH",
"103 636 LINE SMOOTH",
"90.333 636 OFFCURVE",
"84 625.667 OFFCURVE",
"84 605 CURVE SMOOTH",
"84 20 LINE SMOOTH",
"84 -16 OFFCURVE",
"126 -16 OFFCURVE",
"126 20 CURVE SMOOTH",
"126 337 LINE",
"314 337 LINE",
"342 315 OFFCURVE",
"367.333 278 OFFCURVE",
"390 226 CURVE SMOOTH",
"412.667 174 OFFCURVE",
"428.667 129 OFFCURVE",
"438 91 CURVE SMOOTH",
"447.333 53 OFFCURVE",
"452 30 OFFCURVE",
"452 22 CURVE SMOOTH",
"452 6 OFFCURVE",
"461.333 -5.667 OFFCURVE",
"472 -7 CURVE"
);
},
{
closed = 1;
nodes = (
"126 594 LINE",
"279 594 LINE SMOOTH",
"399 594 OFFCURVE",
"444 574 OFFCURVE",
"444 486 CURVE SMOOTH",
"444 398 OFFCURVE",
"397.667 380.333 OFFCURVE",
"279 379 CURVE",
"126 379 LINE"
);
}
);
};
layerId = "B309FD91-69BF-47D2-8142-D25EBE917F3C";
width = 600;
},
{
background = {
paths = (
{
closed = 1;
nodes = (
"144 -7 OFFCURVE",
"156 6.333 OFFCURVE",
"156 33 CURVE SMOOTH",
"156 322 LINE",
"342 322 LINE",
"370.667 302 OFFCURVE",
"396.5 268.333 OFFCURVE",
"419.5 221 CURVE SMOOTH",
"442.5 173.667 OFFCURVE",
"458.5 133.333 OFFCURVE",
"467.5 100 CURVE SMOOTH",
"485.5 33.333 OFFCURVE",
"481.333 22.333 OFFCURVE",
"492 5 CURVE SMOOTH",
"502.667 -11 OFFCURVE",
"528 -12 OFFCURVE",
"544 4 CURVE",
"557.333 20 OFFCURVE",
"558.5 26.167 OFFCURVE",
"540.5 97.5 CURVE SMOOTH",
"531.5 133.167 OFFCURVE",
"517.333 175.5 OFFCURVE",
"498 224.5 CURVE SMOOTH",
"478.667 273.5 OFFCURVE",
"458.667 310.667 OFFCURVE",
"438 336 CURVE",
"510 356.667 OFFCURVE",
"546 406.333 OFFCURVE",
"546 485 CURVE SMOOTH",
"546 607.667 OFFCURVE",
"468.667 646 OFFCURVE",
"306 646 CURVE SMOOTH",
"118 646 LINE SMOOTH",
"95.333 646 OFFCURVE",
"84 631.333 OFFCURVE",
"84 602 CURVE SMOOTH",
"84 33 LINE SMOOTH",
"84 6.333 OFFCURVE",
"96 -7 OFFCURVE",
"120 -7 CURVE SMOOTH"
);
},
{
closed = 1;
nodes = (
"156 569 LINE",
"306 569 LINE SMOOTH",
"434 569 OFFCURVE",
"474 554 OFFCURVE",
"474 482 CURVE SMOOTH",
"474 410 OFFCURVE",
"436.667 394 OFFCURVE",
"306 394 CURVE SMOOTH",
"156 394 LINE"
);
}
);
};
layerId = "3776B938-A14A-42B9-91A8-ACB6A1608662";
width = 600;
}
);
unicode = 0052;
},
{
glyphname = S;
lastChange = "2016-07-15 20:54:10 +0000";
layers = (
{
layerId = "0E6FACCE-B85C-44A4-8B06-9EFDFED90B40";
width = 600;
},
{
background = {
paths = (
{
closed = 1;
nodes = (
"347 -8 LINE SMOOTH",
"461.667 -8 OFFCURVE",
"508 66 OFFCURVE",
"508 154 CURVE SMOOTH",
"508 246.667 OFFCURVE",
"467 303.333 OFFCURVE",
"385 324 CURVE",
"168 376 LINE SMOOTH",
"132 385.333 OFFCURVE",
"104 427.833 OFFCURVE",
"104 484.5 CURVE SMOOTH",
"104 541.167 OFFCURVE",
"135.333 602 OFFCURVE",
"206 602 CURVE SMOOTH",
"300 602 LINE SMOOTH",
"412.528 602 OFFCURVE",
"465 593.277 OFFCURVE",
"465 471 CURVE SMOOTH",
"465 433.667 OFFCURVE",
"508 433.667 OFFCURVE",
"508 471 CURVE SMOOTH",
"508 543.667 OFFCURVE",
"488.667 591.333 OFFCURVE",
"450 614 CURVE SMOOTH",
"410 638 OFFCURVE",
"369.333 644 OFFCURVE",
"300 644 CURVE SMOOTH",
"224 644 LINE SMOOTH",
"109.333 644 OFFCURVE",
"62 572.167 OFFCURVE",
"62 483.5 CURVE SMOOTH",
"62 394.833 OFFCURVE",
"95.333 350.333 OFFCURVE",
"186 329 CURVE",
"402 276 LINE",
"471.686 276.902 OFFCURVE",
"512.353 36.235 OFFCURVE",
"364 34 CURVE",
"271 34 LINE SMOOTH",
"145.667 34 OFFCURVE",
"105 52.333 OFFCURVE",
"105 167 CURVE SMOOTH",
"105 185.667 OFFCURVE",
"98.333 195 OFFCURVE",
"85 195 CURVE SMOOTH",
"69.667 195 OFFCURVE",
"62 185.667 OFFCURVE",
"62 167 CURVE SMOOTH",
"62 93.667 OFFCURVE",
"81.333 45.333 OFFCURVE",
"120 22 CURVE SMOOTH",
"160 -2 OFFCURVE",
"201.667 -8 OFFCURVE",
"271 -8 CURVE SMOOTH"
);
}
);
};
layerId = "B309FD91-69BF-47D2-8142-D25EBE917F3C";
width = 600;
},
{
background = {
paths = (
{
closed = 1;
nodes = (
"408 -8 LINE SMOOTH",
"542.667 -8 OFFCURVE",
"597 67.5 OFFCURVE",
"597 157.5 CURVE SMOOTH",
"597 247.5 OFFCURVE",
"556 318.667 OFFCURVE",
"460 336 CURVE SMOOTH",
"185 385 LINE",
"131.895 387.203 OFFCURVE",
"82.007 565.092 OFFCURVE",
"238 572 CURVE",
"344 572 LINE SMOOTH",
"418.667 572 OFFCURVE",
"467.333 565.5 OFFCURVE",
"490 552.5 CURVE SMOOTH",
"512.667 539.5 OFFCURVE",
"524 507.333 OFFCURVE",
"524 456 CURVE SMOOTH",
"524 402.458 OFFCURVE",
"597 395.346 OFFCURVE",
"597 456 CURVE SMOOTH",
"597 534 OFFCURVE",
"575 585.333 OFFCURVE",
"531 610 CURVE SMOOTH",
"484.333 636.667 OFFCURVE",
"433.333 644 OFFCURVE",
"344 644 CURVE SMOOTH",
"268 644 LINE SMOOTH",
"188.667 644 OFFCURVE",
"133.333 626 OFFCURVE",
"102 590 CURVE SMOOTH",
"74.667 558 OFFCURVE",
"61 520.667 OFFCURVE",
"61 478 CURVE SMOOTH",
"61 384.667 OFFCURVE",
"100 336 OFFCURVE",
"200 316 CURVE",
"473 265 LINE",
"523.373 269.922 OFFCURVE",
"573.039 64.255 OFFCURVE",
"430 64 CURVE",
"312 64 LINE SMOOTH",
"166.667 64 OFFCURVE",
"134 79.333 OFFCURVE",
"134 182 CURVE SMOOTH",
"134 207.333 OFFCURVE",
"120.333 225 OFFCURVE",
"99 225 CURVE SMOOTH",
"73.667 225 OFFCURVE",
"61 210.667 OFFCURVE",
"61 182 CURVE SMOOTH",
"61 30 OFFCURVE",
"136 -8 OFFCURVE",
"312 -8 CURVE SMOOTH"
);
}
);
};
layerId = "3776B938-A14A-42B9-91A8-ACB6A1608662";
width = 600;
}
);
unicode = 0053;
},
{
glyphname = T;
lastChange = "2016-07-15 20:54:10 +0000";
layers = (
{
layerId = "0E6FACCE-B85C-44A4-8B06-9EFDFED90B40";
width = 600;
},
{
background = {
paths = (
{
closed = 1;
nodes = (
"209 -16 OFFCURVE",
"251 -16 OFFCURVE",
"251 20 CURVE SMOOTH",
"251 594 LINE",
"405 594 LINE SMOOTH",
"442.333 594 OFFCURVE",
"442.333 636 OFFCURVE",
"405 636 CURVE SMOOTH",
"54 636 LINE SMOOTH",
"16.667 636 OFFCURVE",
"16.667 594 OFFCURVE",
"54 594 CURVE SMOOTH",
"209 594 LINE",
"209 20 LINE SMOOTH"
);
}
);
};
layerId = "B309FD91-69BF-47D2-8142-D25EBE917F3C";
width = 600;
},
{
background = {
paths = (
{
closed = 1;
nodes = (
"219 -21.928 OFFCURVE",
"302 -20.15 OFFCURVE",
"302 33 CURVE SMOOTH",
"302 564 LINE",
"450 564 LINE SMOOTH",
"478.667 564 OFFCURVE",
"493 576 OFFCURVE",
"493 600 CURVE SMOOTH",
"493 624 OFFCURVE",
"478.667 636 OFFCURVE",
"450 636 CURVE SMOOTH",
"69 636 LINE SMOOTH",
"10.961 636 OFFCURVE",
"10.961 564 OFFCURVE",
"69 564 CURVE SMOOTH",
"219 564 LINE",
"219 33 LINE SMOOTH"
);
}
);
};
layerId = "3776B938-A14A-42B9-91A8-ACB6A1608662";
width = 600;
}
);
unicode = 0054;
},
{
glyphname = U;
lastChange = "2016-07-15 20:54:10 +0000";
layers = (
{
layerId = "0E6FACCE-B85C-44A4-8B06-9EFDFED90B40";
width = 600;
},
{
background = {
paths = (
{
closed = 1;
nodes = (
"428.333 -9 OFFCURVE",
"521 80.333 OFFCURVE",
"521 227 CURVE SMOOTH",
"521 615 LINE SMOOTH",
"521 652.333 OFFCURVE",
"479 652.333 OFFCURVE",
"479 615 CURVE SMOOTH",
"479 227 LINE SMOOTH",
"479 105.667 OFFCURVE",
"411 33 OFFCURVE",
"299 33 CURVE SMOOTH",
"187 33 OFFCURVE",
"119 105.667 OFFCURVE",
"119 227 CURVE SMOOTH",
"119 615 LINE SMOOTH",
"119 652.333 OFFCURVE",
"77 652.333 OFFCURVE",
"77 615 CURVE SMOOTH",
"77 227 LINE SMOOTH",
"77 80.333 OFFCURVE",
"169.667 -9 OFFCURVE",
"299 -9 CURVE SMOOTH"
);
}
);
};
layerId = "B309FD91-69BF-47D2-8142-D25EBE917F3C";
width = 600;
},
{
background = {
paths = (
{
closed = 1;
nodes = (
"480 -9 OFFCURVE",
"581 82 OFFCURVE",
"581 230 CURVE SMOOTH",
"581 602 LINE SMOOTH",
"581 629.333 OFFCURVE",
"569 643 OFFCURVE",
"545 643 CURVE SMOOTH",
"521 643 OFFCURVE",
"509 629.667 OFFCURVE",
"509 603 CURVE SMOOTH",
"509 233 LINE SMOOTH",
"509 123.667 OFFCURVE",
"446.333 63 OFFCURVE",
"329 63 CURVE SMOOTH",
"211.667 63 OFFCURVE",
"149 123.667 OFFCURVE",
"149 233 CURVE SMOOTH",
"149 603 LINE SMOOTH",
"149 631 OFFCURVE",
"131.667 643 OFFCURVE",
"113 643 CURVE SMOOTH",
"89 643 OFFCURVE",
"77 629.333 OFFCURVE",
"77 602 CURVE SMOOTH",
"77 230 LINE SMOOTH",
"77 80.667 OFFCURVE",
"176 -9 OFFCURVE",
"328 -9 CURVE SMOOTH"
);
}
);
};
layerId = "3776B938-A14A-42B9-91A8-ACB6A1608662";
width = 600;
}
);
unicode = 0055;
},
{
glyphname = V;
lastChange = "2016-07-15 20:54:10 +0000";
layers = (
{
layerId = "0E6FACCE-B85C-44A4-8B06-9EFDFED90B40";
width = 600;
},
{
background = {
paths = (
{
closed = 1;
nodes = (
"297 0 LINE",
"522 617 LINE SMOOTH",
"526.738 631.215 OFFCURVE",
"525.709 652 OFFCURVE",
"504 652 CURVE SMOOTH",
"494.667 652 OFFCURVE",
"487.333 645.333 OFFCURVE",
"482 632 CURVE SMOOTH",
"274 60 LINE",
"66 632 LINE",
"60 645.333 OFFCURVE",
"53.333 652 OFFCURVE",
"46 652 CURVE SMOOTH",
"32.667 652 OFFCURVE",
"25 645.333 OFFCURVE",
"23 632 CURVE",
"23 628 OFFCURVE",
"24 623 OFFCURVE",
"26 617 CURVE SMOOTH",
"251 0 LINE"
);
}
);
};
layerId = "B309FD91-69BF-47D2-8142-D25EBE917F3C";
width = 600;
},
{
background = {
paths = (
{
closed = 1;
nodes = (
"346 0 LINE",
"583 599 LINE",
"590.469 621.407 OFFCURVE",
"581.325 652 OFFCURVE",
"550 652 CURVE SMOOTH",
"533.333 652 OFFCURVE",
"521 642.667 OFFCURVE",
"513 624 CURVE SMOOTH",
"306 104 LINE",
"97 624 LINE SMOOTH",
"89.667 642.667 OFFCURVE",
"77.333 652 OFFCURVE",
"60 652 CURVE SMOOTH",
"28.675 652 OFFCURVE",
"19.531 621.407 OFFCURVE",
"27 599 CURVE",
"264 0 LINE"
);
}
);
};
layerId = "3776B938-A14A-42B9-91A8-ACB6A1608662";
width = 600;
}
);
unicode = 0056;
},
{
glyphname = W;
lastChange = "2016-07-15 20:54:10 +0000";
layers = (
{
layerId = "0E6FACCE-B85C-44A4-8B06-9EFDFED90B40";
width = 600;
},
{
background = {
paths = (
{
closed = 1;
nodes = (
"269 0 LINE",
"444 565 LINE",
"620 0 LINE",
"670 0 LINE",
"862 617 LINE",
"876.484 630.549 OFFCURVE",
"848.928 678.216 OFFCURVE",
"822 632 CURVE",
"646 60 LINE",
"469 630 LINE SMOOTH",
"459.667 659.333 OFFCURVE",
"430.333 659.333 OFFCURVE",
"421 630 CURVE SMOOTH",
"245 60 LINE",
"67 632 LINE SMOOTH",
"63 645.333 OFFCURVE",
"56.667 652 OFFCURVE",
"48 652 CURVE SMOOTH",
"37.333 652 OFFCURVE",
"24 642 OFFCURVE",
"24 634 CURVE SMOOTH",
"24 628.667 OFFCURVE",
"30.667 621 OFFCURVE",
"32 617 CURVE SMOOTH",
"220 0 LINE"
);
}
);
};
layerId = "B309FD91-69BF-47D2-8142-D25EBE917F3C";
width = 600;
},
{
background = {
paths = (
{
closed = 1;
nodes = (
"299 0 LINE",
"477 531 LINE",
"656 0 LINE",
"730 0 LINE",
"924 600 LINE SMOOTH",
"926.667 608 OFFCURVE",
"928 614 OFFCURVE",
"928 618 CURVE SMOOTH",
"928 638.667 OFFCURVE",
"917.333 649 OFFCURVE",
"896 649 CURVE SMOOTH",
"874.667 649 OFFCURVE",
"861.333 639.667 OFFCURVE",
"856 621 CURVE SMOOTH",
"694 96 LINE",
"520 619 LINE",
"504 663 OFFCURVE",
"452 662.667 OFFCURVE",
"436 620 CURVE",
"263 96 LINE",
"99 625 LINE SMOOTH",
"93 643.667 OFFCURVE",
"79.333 653 OFFCURVE",
"58 653 CURVE SMOOTH",
"37.333 653 OFFCURVE",
"27 643.333 OFFCURVE",
"27 624 CURVE SMOOTH",
"27 618.667 OFFCURVE",
"28.333 612 OFFCURVE",
"31 604 CURVE SMOOTH",
"226 0 LINE"
);
}
);
};
layerId = "3776B938-A14A-42B9-91A8-ACB6A1608662";
width = 600;
}
);
unicode = 0057;
},
{
glyphname = X;
lastChange = "2016-07-15 20:54:10 +0000";
layers = (
{
layerId = "0E6FACCE-B85C-44A4-8B06-9EFDFED90B40";
width = 600;
},
{
background = {
paths = (
{
closed = 1;
nodes = (
"268 281 LINE",
"460 7 LINE",
"487.16 -27.567 OFFCURVE",
"511.694 5.767 OFFCURVE",
"495 32 CURVE",
"294 317 LINE",
"495 604 LINE",
"513.669 625.336 OFFCURVE",
"486.505 665.552 OFFCURVE",
"460 627 CURVE SMOOTH",
"268 354 LINE",
"77 627 LINE SMOOTH",
"50.111 666.111 OFFCURVE",
"23.34 625.325 OFFCURVE",
"42 604 CURVE",
"243 317 LINE",
"42 32 LINE",
"25.306 5.767 OFFCURVE",
"49.84 -27.567 OFFCURVE",
"77 7 CURVE"
);
}
);
};
layerId = "B309FD91-69BF-47D2-8142-D25EBE917F3C";
width = 600;
},
{
background = {
paths = (
{
closed = 1;
nodes = (
"302 270 LINE",
"497 13 LINE",
"537.954 -38.192 OFFCURVE",
"585.659 17.41 OFFCURVE",
"556 53 CURVE",
"351 317 LINE",
"556 582 LINE SMOOTH",
"584.863 619.522 OFFCURVE",
"536.645 675.511 OFFCURVE",
"497 621 CURVE",
"302 365 LINE",
"108 621 LINE",
"98.667 636.333 OFFCURVE",
"88 644 OFFCURVE",
"76 644 CURVE",
"74 644 LINE",
"63.333 644 OFFCURVE",
"54 639.333 OFFCURVE",
"46 630 CURVE SMOOTH",
"41.333 625.333 OFFCURVE",
"39 619 OFFCURVE",
"39 611 CURVE SMOOTH",
"39 599.667 OFFCURVE",
"42.333 590 OFFCURVE",
"49 582 CURVE SMOOTH",
"254 317 LINE",
"49 53 LINE",
"16.379 20.085 OFFCURVE",
"66.268 -37.693 OFFCURVE",
"108 13 CURVE"
);
}
);
};
layerId = "3776B938-A14A-42B9-91A8-ACB6A1608662";
width = 600;
}
);
unicode = 0058;
},
{
glyphname = Y;
lastChange = "2016-07-15 20:54:10 +0000";
layers = (
{
layerId = "0E6FACCE-B85C-44A4-8B06-9EFDFED90B40";
width = 600;
},
{
background = {
paths = (
{
closed = 1;
nodes = (
"230.333 -16 OFFCURVE",
"270 -16 OFFCURVE",
"270 20 CURVE SMOOTH",
"270 310 LINE",
"475 604 LINE SMOOTH",
"488.351 623.073 OFFCURVE",
"480.397 640.845 OFFCURVE",
"461 643 CURVE",
"455.667 643 OFFCURVE",
"448.667 637.667 OFFCURVE",
"440 627 CURVE",
"249 354 LINE",
"57 627 LINE SMOOTH",
"42.333 648.333 OFFCURVE",
"32.667 644 OFFCURVE",
"22 636 CURVE",
"14 628 OFFCURVE",
"13.667 617.333 OFFCURVE",
"23 604 CURVE SMOOTH",
"229 310 LINE",
"229 20 LINE"
);
}
);
};
layerId = "B309FD91-69BF-47D2-8142-D25EBE917F3C";
width = 600;
},
{
background = {
paths = (
{
closed = 1;
nodes = (
"307.333 -7 OFFCURVE",
"320 6 OFFCURVE",
"320 32 CURVE SMOOTH",
"320 306 LINE",
"534 583 LINE",
"565 618.098 OFFCURVE",
"518.667 673.431 OFFCURVE",
"475 621 CURVE",
"281 365 LINE",
"86 621 LINE",
"44.026 673.431 OFFCURVE",
"-3.752 618.098 OFFCURVE",
"28 583 CURVE",
"243 306 LINE",
"243 32 LINE",
"243.667 6 OFFCURVE",
"256.667 -7 OFFCURVE",
"282 -7 CURVE SMOOTH"
);
}
);
};
layerId = "3776B938-A14A-42B9-91A8-ACB6A1608662";
width = 600;
}
);
unicode = 0059;
},
{
glyphname = Z;
lastChange = "2016-07-15 20:54:10 +0000";
layers = (
{
layerId = "0E6FACCE-B85C-44A4-8B06-9EFDFED90B40";
width = 600;
},
{
background = {
paths = (
{
closed = 1;
nodes = (
"459 0 LINE SMOOTH",
"499 0 OFFCURVE",
"499 42 OFFCURVE",
"459 42 CURVE SMOOTH",
"95 42 LINE",
"489 590 LINE",
"489 636 LINE",
"76 636 LINE SMOOTH",
"34.667 636 OFFCURVE",
"34.667 594 OFFCURVE",
"76 594 CURVE SMOOTH",
"442 594 LINE",
"46 44 LINE",
"46 0 LINE"
);
}
);
};
layerId = "B309FD91-69BF-47D2-8142-D25EBE917F3C";
width = 600;
},
{
background = {
paths = (
{
closed = 1;
nodes = (
"508 0 LINE SMOOTH",
"538 0 OFFCURVE",
"553 12 OFFCURVE",
"553 36 CURVE SMOOTH",
"553 60 OFFCURVE",
"538 72 OFFCURVE",
"508 72 CURVE SMOOTH",
"144 72 LINE",
"553 569 LINE",
"553 636 LINE",
"95 636 LINE SMOOTH",
"64.333 636 OFFCURVE",
"49 624 OFFCURVE",
"49 600 CURVE SMOOTH",
"49 576 OFFCURVE",
"64.333 564 OFFCURVE",
"95 564 CURVE SMOOTH",
"461 564 LINE",
"50 64 LINE",
"50 0 LINE"
);
}
);
};
layerId = "3776B938-A14A-42B9-91A8-ACB6A1608662";
width = 600;
}
);
unicode = 005A;
},
{
glyphname = a;
lastChange = "2016-07-15 20:54:10 +0000";
layers = (
{
layerId = "0E6FACCE-B85C-44A4-8B06-9EFDFED90B40";
paths = (
{
closed = 0;
nodes = (
"481 0 LINE",
"481 353 LINE",
"481 415 OFFCURVE",
"447 443 OFFCURVE",
"372 443 CURVE",
"231 443 LINE",
"141 443 OFFCURVE",
"104 417 OFFCURVE",
"104 345 CURVE"
);
},
{
closed = 0;
nodes = (
"481 265 LINE",
"266 265 LINE SMOOTH",
"152 265 OFFCURVE",
"100 223 OFFCURVE",
"100 132 CURVE SMOOTH",
"100 48 OFFCURVE",
"148 10 OFFCURVE",
"253 10 CURVE",
"410 9 OFFCURVE",
"481 78 OFFCURVE",
"481 230 CURVE SMOOTH"
);
}
);
width = 581;
},
{
associatedMasterId = "0E6FACCE-B85C-44A4-8B06-9EFDFED90B40";
background = {
paths = (
{
closed = 1;
nodes = (
"452 -7 OFFCURVE",
"462 3 OFFCURVE",
"462 23 CURVE SMOOTH",
"462 337 LINE SMOOTH",
"462 430.333 OFFCURVE",
"440.333 461 OFFCURVE",
"367 461 CURVE SMOOTH",
"212 461 LINE SMOOTH",
"122.667 461 OFFCURVE",
"60 426 OFFCURVE",
"60 354 CURVE SMOOTH",
"60 334 OFFCURVE",
"71 324 OFFCURVE",
"81 324 CURVE SMOOTH",
"92 324 OFFCURVE",
"102 334 OFFCURVE",
"102 354 CURVE SMOOTH",
"102 397.333 OFFCURVE",
"141 419 OFFCURVE",
"219 419 CURVE SMOOTH",
"360 419 LINE SMOOTH",
"405.333 419 OFFCURVE",
"420 400.667 OFFCURVE",
"420 354 CURVE SMOOTH",
"420 290 LINE",
"268 290 LINE SMOOTH",
"215.333 290 OFFCURVE",
"173 284 OFFCURVE",
"141 272 CURVE SMOOTH",
"87 252 OFFCURVE",
"60 199.333 OFFCURVE",
"60 114 CURVE SMOOTH",
"60 82 OFFCURVE",
"69.333 54.667 OFFCURVE",
"88 32 CURVE SMOOTH",
"106.667 10.667 OFFCURVE",
"131.333 0 OFFCURVE",
"162 0 CURVE SMOOTH",
"255 0 LINE SMOOTH",
"329 0 OFFCURVE",
"384 24 OFFCURVE",
"420 72 CURVE",
"420 23 LINE SMOOTH",
"420 3 OFFCURVE",
"431 -7 OFFCURVE",
"441 -7 CURVE SMOOTH"
);
},
{
closed = 1;
nodes = (
"123 42 OFFCURVE",
"103 86 OFFCURVE",
"103 133 CURVE SMOOTH",
"103 152 OFFCURVE",
"106 170 OFFCURVE",
"111.5 187 CURVE SMOOTH",
"131.338 243.382 OFFCURVE",
"183.796 248 OFFCURVE",
"268 248 CURVE SMOOTH",
"420 248 LINE",
"420 228 LINE SMOOTH",
"420 108 OFFCURVE",
"360.333 42 OFFCURVE",
"255 42 CURVE SMOOTH",
"162 42 LINE SMOOTH"
);
}
);
};
layerId = "10B218E2-C40F-4A90-81B3-DE104A9C37B1";
name = "Regular Jun 28 16, 13:38";
paths = (
{
closed = 0;
nodes = (
"439 0 LINE",
"439 353 LINE",
"439 415 OFFCURVE",
"405 443 OFFCURVE",
"330 443 CURVE",
"209 443 LINE",
"119 443 OFFCURVE",
"78 410 OFFCURVE",
"78 338 CURVE"
);
},
{
closed = 0;
nodes = (
"439 265 LINE",
"244 265 LINE SMOOTH",
"130 265 OFFCURVE",
"78 223 OFFCURVE",
"78 132 CURVE SMOOTH",
"78 48 OFFCURVE",
"126 10 OFFCURVE",
"231 10 CURVE",
"374 9 OFFCURVE",
"439 78 OFFCURVE",
"439 230 CURVE SMOOTH"
);
}
);
width = 600;
},
{
background = {
paths = (
{
closed = 1;
nodes = (
"255 0 LINE SMOOTH",
"329 0 OFFCURVE",
"384 24 OFFCURVE",
"420 72 CURVE",
"420 23 LINE SMOOTH",
"420 -17 OFFCURVE",
"462 -17 OFFCURVE",
"462 23 CURVE SMOOTH",
"462 337 LINE SMOOTH",
"462 430.333 OFFCURVE",
"440.333 461 OFFCURVE",
"367 461 CURVE SMOOTH",
"212 461 LINE SMOOTH",
"122.667 461 OFFCURVE",
"60 426 OFFCURVE",
"60 354 CURVE SMOOTH",
"60 314 OFFCURVE",
"102 314 OFFCURVE",
"102 354 CURVE SMOOTH",
"102 397.333 OFFCURVE",
"141 419 OFFCURVE",
"219 419 CURVE SMOOTH",
"360 419 LINE SMOOTH",
"405.333 419 OFFCURVE",
"420 400.667 OFFCURVE",
"420 354 CURVE SMOOTH",
"420 290 LINE",
"268 290 LINE SMOOTH",
"215.333 290 OFFCURVE",
"173 284 OFFCURVE",
"141 272 CURVE SMOOTH",
"87 252 OFFCURVE",
"60 199.333 OFFCURVE",
"60 114 CURVE SMOOTH",
"60 82 OFFCURVE",
"69.333 54.667 OFFCURVE",
"88 32 CURVE SMOOTH",
"106.667 10.667 OFFCURVE",
"131.333 0 OFFCURVE",
"162 0 CURVE SMOOTH"
);
},
{
closed = 1;
nodes = (
"107.619 42 OFFCURVE",
"90.143 126.301 OFFCURVE",
"111.5 187 CURVE SMOOTH",
"131.338 243.382 OFFCURVE",
"183.796 248 OFFCURVE",
"268 248 CURVE SMOOTH",
"420 248 LINE",
"420 228 LINE SMOOTH",
"420 108 OFFCURVE",
"360.333 42 OFFCURVE",
"255 42 CURVE SMOOTH",
"162 42 LINE SMOOTH"
);
}
);
};
layerId = "B309FD91-69BF-47D2-8142-D25EBE917F3C";
width = 600;
},
{
background = {
paths = (
{
closed = 1;
nodes = (
"511 -7 OFFCURVE",
"523 7 OFFCURVE",
"523 35 CURVE SMOOTH",
"523 331 LINE SMOOTH",
"523 424.333 OFFCURVE",
"498.333 461 OFFCURVE",
"413 461 CURVE SMOOTH",
"258 461 LINE SMOOTH",
"130 461 OFFCURVE",
"61 434 OFFCURVE",
"61 350 CURVE SMOOTH",
"61 320 OFFCURVE",
"73 305 OFFCURVE",
"97 305 CURVE SMOOTH",
"121 305 OFFCURVE",
"133 320 OFFCURVE",
"133 350 CURVE SMOOTH",
"133 379.333 OFFCURVE",
"161 389 OFFCURVE",
"265 389 CURVE SMOOTH",
"406 389 LINE SMOOTH",
"442 389 OFFCURVE",
"451 380.333 OFFCURVE",
"451 347 CURVE SMOOTH",
"451 305 LINE",
"314 305 LINE SMOOTH",
"138 305 OFFCURVE",
"61 265 OFFCURVE",
"61 129 CURVE SMOOTH",
"61 50.333 OFFCURVE",
"110 0 OFFCURVE",
"178 0 CURVE SMOOTH",
"271 0 LINE SMOOTH",
"351 0 OFFCURVE",
"411 16.667 OFFCURVE",
"451 50 CURVE",
"451 38 LINE SMOOTH",
"451 8 OFFCURVE",
"463 -7 OFFCURVE",
"487 -7 CURVE SMOOTH"
);
},
{
closed = 1;
nodes = (
"158 72 OFFCURVE",
"133 96 OFFCURVE",
"133 124 CURVE SMOOTH",
"133 172 OFFCURVE",
"144.5 202.167 OFFCURVE",
"167.5 214.5 CURVE SMOOTH",
"190.5 226.833 OFFCURVE",
"239.333 233 OFFCURVE",
"314 233 CURVE SMOOTH",
"451 233 LINE",
"451 231.667 OFFCURVE",
"451 230.333 OFFCURVE",
"451 229 CURVE",
"451 191 OFFCURVE",
"442 157.667 OFFCURVE",
"424 129 CURVE SMOOTH",
"401.333 91 OFFCURVE",
"350.333 72 OFFCURVE",
"271 72 CURVE SMOOTH",
"178 72 LINE SMOOTH"
);
}
);
};
layerId = "3776B938-A14A-42B9-91A8-ACB6A1608662";
width = 600;
}
);
unicode = 0061;
},
{
glyphname = b;
lastChange = "2016-07-15 20:54:10 +0000";
layers = (
{
components = (
{
name = d;
transform = "{-1, 0, 0, 1, 594, 0}";
}
);
layerId = "0E6FACCE-B85C-44A4-8B06-9EFDFED90B40";
width = 594;
},
{
background = {
paths = (
{
closed = 1;
nodes = (
"311 0 LINE SMOOTH",
"451 0 OFFCURVE",
"518 35 OFFCURVE",
"518 175 CURVE SMOOTH",
"518 286 LINE SMOOTH",
"518 426 OFFCURVE",
"451 461 OFFCURVE",
"311 461 CURVE SMOOTH",
"282 461 LINE SMOOTH",
"208.667 461 OFFCURVE",
"153.333 437 OFFCURVE",
"116 389 CURVE",
"116 612 LINE SMOOTH",
"116 632.667 OFFCURVE",
"108.333 643 OFFCURVE",
"93 643 CURVE SMOOTH",
"80.333 643 OFFCURVE",
"74 632.667 OFFCURVE",
"74 612 CURVE SMOOTH",
"74 23 LINE SMOOTH",
"74 -17 OFFCURVE",
"116 -17 OFFCURVE",
"116 23 CURVE SMOOTH",
"116 72 LINE",
"153.333 24 OFFCURVE",
"208.667 0 OFFCURVE",
"282 0 CURVE SMOOTH"
);
},
{
closed = 1;
nodes = (
"175.333 42 OFFCURVE",
"116 108 OFFCURVE",
"116 228 CURVE SMOOTH",
"116 232 LINE SMOOTH",
"116 352 OFFCURVE",
"175.333 419 OFFCURVE",
"282 419 CURVE SMOOTH",
"311 419 LINE SMOOTH",
"422.143 419 OFFCURVE",
"476 408.017 OFFCURVE",
"476 286 CURVE SMOOTH",
"476 175 LINE SMOOTH",
"476 52.983 OFFCURVE",
"422.143 42 OFFCURVE",
"311 42 CURVE SMOOTH",
"282 42 LINE SMOOTH"
);
}
);
};
layerId = "B309FD91-69BF-47D2-8142-D25EBE917F3C";
width = 600;
},
{
background = {
paths = (
{
closed = 1;
nodes = (
"135 -7 OFFCURVE",
"147 8 OFFCURVE",
"147 38 CURVE SMOOTH",
"147 50 LINE",
"188.333 16.667 OFFCURVE",
"248.667 0 OFFCURVE",
"328 0 CURVE SMOOTH",
"357 0 LINE SMOOTH",
"535.667 0 OFFCURVE",
"609 38 OFFCURVE",
"609 178 CURVE SMOOTH",
"609 283 LINE SMOOTH",
"609 423 OFFCURVE",
"535.667 461 OFFCURVE",
"357 461 CURVE SMOOTH",
"328 461 LINE SMOOTH",
"248.667 461 OFFCURVE",
"188.333 444.333 OFFCURVE",
"147 411 CURVE",
"147 597 LINE SMOOTH",
"147 627.667 OFFCURVE",
"134.333 643 OFFCURVE",
"109 643 CURVE SMOOTH",
"86.333 643 OFFCURVE",
"75 627.667 OFFCURVE",
"75 597 CURVE SMOOTH",
"75 35 LINE SMOOTH",
"75 7 OFFCURVE",
"87 -7 OFFCURVE",
"111 -7 CURVE SMOOTH"
);
},
{
closed = 1;
nodes = (
"193.333 72 OFFCURVE",
"147 133.333 OFFCURVE",
"147 228 CURVE SMOOTH",
"147 232 LINE SMOOTH",
"147 328 OFFCURVE",
"192 389 OFFCURVE",
"328 389 CURVE SMOOTH",
"357 389 LINE SMOOTH",
"505 389 OFFCURVE",
"537 376 OFFCURVE",
"537 280 CURVE SMOOTH",
"537 181 LINE SMOOTH",
"537 85 OFFCURVE",
"505 72 OFFCURVE",
"357 72 CURVE SMOOTH",
"328 72 LINE SMOOTH"
);
}
);
};
layerId = "3776B938-A14A-42B9-91A8-ACB6A1608662";
width = 600;
}
);
unicode = 0062;
},
{
glyphname = c;
lastChange = "2016-07-15 20:54:10 +0000";
layers = (
{
layerId = "0E6FACCE-B85C-44A4-8B06-9EFDFED90B40";
paths = (
{
closed = 0;
nodes = (
"499 331 LINE",
"499 408 OFFCURVE",
"436 443 OFFCURVE",
"300 443 CURVE",
"163 443 OFFCURVE",
"100 406 OFFCURVE",
"100 324 CURVE SMOOTH",
"100 182 LINE",
"100 78 OFFCURVE",
"131 20 OFFCURVE",
"243 20 CURVE",
"376 20 LINE",
"460 20 OFFCURVE",
"499 51 OFFCURVE",
"499 117 CURVE"
);
}
);
width = 549;
},
{
background = {
paths = (
{
closed = 1;
nodes = (
"411 0 LINE SMOOTH",
"495 0 OFFCURVE",
"506 48.667 OFFCURVE",
"506 110 CURVE SMOOTH",
"506 127.333 OFFCURVE",
"499 136.333 OFFCURVE",
"485 137 CURVE",
"471 137 OFFCURVE",
"464 126.167 OFFCURVE",
"464 104.5 CURVE SMOOTH",
"464 82.833 OFFCURVE",
"459.667 67 OFFCURVE",
"451 57 CURVE SMOOTH",
"442.333 47 OFFCURVE",
"426.667 42 OFFCURVE",
"404 42 CURVE SMOOTH",
"270 42 LINE SMOOTH",
"157.186 42 OFFCURVE",
"104 52.983 OFFCURVE",
"104 175 CURVE SMOOTH",
"104 286 LINE SMOOTH",
"104 408.017 OFFCURVE",
"157.186 419 OFFCURVE",
"270 419 CURVE SMOOTH",
"404 419 LINE SMOOTH",
"449.333 419 OFFCURVE",
"464 398.667 OFFCURVE",
"464 356 CURVE SMOOTH",
"464 334.667 OFFCURVE",
"471 324 OFFCURVE",
"485 324 CURVE SMOOTH",
"513 324 OFFCURVE",
"511.333 385 OFFCURVE",
"490 429 CURVE SMOOTH",
"480 450.333 OFFCURVE",
"455 461 OFFCURVE",
"415 461 CURVE",
"413.667 461 OFFCURVE",
"412.333 461 OFFCURVE",
"411 461 CURVE",
"270 461 LINE SMOOTH",
"128.667 461 OFFCURVE",
"62 426 OFFCURVE",
"62 286 CURVE SMOOTH",
"62 175 LINE SMOOTH",
"62 35 OFFCURVE",
"128.667 0 OFFCURVE",
"270 0 CURVE SMOOTH"
);
}
);
};
layerId = "B309FD91-69BF-47D2-8142-D25EBE917F3C";
width = 600;
},
{
background = {
paths = (
{
closed = 1;
nodes = (
"455 0 LINE SMOOTH",
"541.667 0 OFFCURVE",
"565 49.333 OFFCURVE",
"565 116 CURVE SMOOTH",
"565 149.333 OFFCURVE",
"553 166.333 OFFCURVE",
"529 167 CURVE",
"510.333 167 OFFCURVE",
"493 154.667 OFFCURVE",
"493 120 CURVE SMOOTH",
"493 85.333 OFFCURVE",
"484 72 OFFCURVE",
"448 72 CURVE SMOOTH",
"314 72 LINE SMOOTH",
"239.333 72 OFFCURVE",
"190.5 78.167 OFFCURVE",
"167.5 90.5 CURVE SMOOTH",
"144.5 102.833 OFFCURVE",
"133 133 OFFCURVE",
"133 181 CURVE SMOOTH",
"133 280 LINE SMOOTH",
"133 328 OFFCURVE",
"144.5 358.167 OFFCURVE",
"167.5 370.5 CURVE SMOOTH",
"190.5 382.833 OFFCURVE",
"239.333 389 OFFCURVE",
"314 389 CURVE SMOOTH",
"448 389 LINE SMOOTH",
"484 389 OFFCURVE",
"493 374.667 OFFCURVE",
"493 340 CURVE SMOOTH",
"493 305.333 OFFCURVE",
"510.333 294 OFFCURVE",
"529 294 CURVE SMOOTH",
"553 294 OFFCURVE",
"565 310.667 OFFCURVE",
"565 344 CURVE SMOOTH",
"565 377.333 OFFCURVE",
"557.5 405.167 OFFCURVE",
"542.5 427.5 CURVE SMOOTH",
"527.5 449.833 OFFCURVE",
"498.333 461 OFFCURVE",
"455 461 CURVE SMOOTH",
"314 461 LINE SMOOTH",
"134 461 OFFCURVE",
"61 423 OFFCURVE",
"61 283 CURVE SMOOTH",
"61 178 LINE SMOOTH",
"61 38 OFFCURVE",
"134 0 OFFCURVE",
"314 0 CURVE SMOOTH"
);
}
);
};
layerId = "3776B938-A14A-42B9-91A8-ACB6A1608662";
width = 600;
}
);
unicode = 0063;
},
{
glyphname = d;
lastChange = "2016-07-15 20:54:10 +0000";
layers = (
{
components = (
{
name = q;
transform = "{1, 0, 0, -1, 0, 461}";
}
);
layerId = "0E6FACCE-B85C-44A4-8B06-9EFDFED90B40";
width = 594;
},
{
background = {
paths = (
{
closed = 1;
nodes = (
"299 0 LINE SMOOTH",
"373 0 OFFCURVE",
"428 24 OFFCURVE",
"464 72 CURVE",
"464 23 LINE SMOOTH",
"464 -17 OFFCURVE",
"506 -17 OFFCURVE",
"506 23 CURVE SMOOTH",
"506 612 LINE SMOOTH",
"506 632.667 OFFCURVE",
"499.667 643 OFFCURVE",
"487 643 CURVE SMOOTH",
"471.667 643 OFFCURVE",
"464 632.667 OFFCURVE",
"464 612 CURVE SMOOTH",
"464 461 LINE",
"270 461 LINE SMOOTH",
"128.667 461 OFFCURVE",
"62 426 OFFCURVE",
"62 286 CURVE SMOOTH",
"62 175 LINE SMOOTH",
"62 35 OFFCURVE",
"128.667 0 OFFCURVE",
"270 0 CURVE SMOOTH"
);
},
{
closed = 1;
nodes = (
"157.186 42 OFFCURVE",
"104 52.983 OFFCURVE",
"104 175 CURVE SMOOTH",
"104 286 LINE SMOOTH",
"104 408.017 OFFCURVE",
"157.186 419 OFFCURVE",
"270 419 CURVE SMOOTH",
"464 419 LINE",
"464 228 LINE SMOOTH",
"464 108 OFFCURVE",
"404.333 42 OFFCURVE",
"299 42 CURVE SMOOTH",
"270 42 LINE SMOOTH"
);
}
);
};
layerId = "B309FD91-69BF-47D2-8142-D25EBE917F3C";
width = 600;
},
{
background = {
paths = (
{
closed = 1;
nodes = (
"583 -7 OFFCURVE",
"595 7 OFFCURVE",
"595 35 CURVE SMOOTH",
"595 598 LINE SMOOTH",
"595 628 OFFCURVE",
"583.667 643 OFFCURVE",
"561 643 CURVE SMOOTH",
"535.667 643 OFFCURVE",
"523 628 OFFCURVE",
"523 598 CURVE SMOOTH",
"523 461 LINE",
"305 461 LINE SMOOTH",
"134.333 461 OFFCURVE",
"61 423 OFFCURVE",
"61 283 CURVE SMOOTH",
"61 178 LINE SMOOTH",
"61 38 OFFCURVE",
"134.333 0 OFFCURVE",
"313 0 CURVE SMOOTH",
"342 0 LINE SMOOTH",
"421.333 0 OFFCURVE",
"481.667 16.667 OFFCURVE",
"523 50 CURVE",
"523 38 LINE SMOOTH",
"523 8 OFFCURVE",
"535 -7 OFFCURVE",
"559 -7 CURVE SMOOTH"
);
},
{
closed = 1;
nodes = (
"165 72 OFFCURVE",
"133 85 OFFCURVE",
"133 181 CURVE SMOOTH",
"133 280 LINE SMOOTH",
"133 376 OFFCURVE",
"165 389 OFFCURVE",
"305 389 CURVE SMOOTH",
"523 389 LINE",
"523 229 LINE SMOOTH",
"523 133 OFFCURVE",
"478 72 OFFCURVE",
"342 72 CURVE SMOOTH",
"313 72 LINE SMOOTH"
);
}
);
};
layerId = "3776B938-A14A-42B9-91A8-ACB6A1608662";
width = 600;
}
);
unicode = 0064;
},
{
glyphname = e;
lastChange = "2016-07-15 20:54:10 +0000";
layers = (
{
layerId = "0E6FACCE-B85C-44A4-8B06-9EFDFED90B40";
paths = (
{
closed = 0;
nodes = (
"90 231 LINE",
"400 231 LINE",
"460 231 OFFCURVE",
"487 259 OFFCURVE",
"487 331 CURVE",
"487 408 OFFCURVE",
"424 443 OFFCURVE",
"290 443 CURVE",
"153 443 OFFCURVE",
"90 406 OFFCURVE",
"90 324 CURVE SMOOTH",
"90 182 LINE",
"90 71 OFFCURVE",
"135 20 OFFCURVE",
"233 20 CURVE",
"366 20 LINE",
"450 20 OFFCURVE",
"489 50 OFFCURVE",
"489 117 CURVE"
);
}
);
width = 579;
},
{
background = {
paths = (
{
closed = 1;
nodes = (
"411 0 LINE SMOOTH",
"495 0 OFFCURVE",
"506 48.667 OFFCURVE",
"506 110 CURVE SMOOTH",
"506 127.333 OFFCURVE",
"499 136.333 OFFCURVE",
"485 137 CURVE",
"471 137 OFFCURVE",
"464 126.167 OFFCURVE",
"464 104.5 CURVE SMOOTH",
"464 82.833 OFFCURVE",
"459.667 67 OFFCURVE",
"451 57 CURVE SMOOTH",
"442.333 47 OFFCURVE",
"426.667 42 OFFCURVE",
"404 42 CURVE SMOOTH",
"270 42 LINE SMOOTH",
"157.186 42 OFFCURVE",
"104 52.983 OFFCURVE",
"104 175 CURVE SMOOTH",
"104 250 LINE",
"506 250 LINE",
"506 286 LINE SMOOTH",
"506 426 OFFCURVE",
"439 461 OFFCURVE",
"299 461 CURVE SMOOTH",
"270 461 LINE SMOOTH",
"128.667 461 OFFCURVE",
"62 426 OFFCURVE",
"62 286 CURVE SMOOTH",
"62 175 LINE SMOOTH",
"62 35 OFFCURVE",
"128.667 0 OFFCURVE",
"270 0 CURVE SMOOTH"
);
},
{
closed = 1;
nodes = (
"104 400 OFFCURVE",
"147.333 419 OFFCURVE",
"270 419 CURVE SMOOTH",
"299 419 LINE SMOOTH",
"420.333 419 OFFCURVE",
"464 400 OFFCURVE",
"464 292 CURVE",
"104 292 LINE"
);
}
);
};
layerId = "B309FD91-69BF-47D2-8142-D25EBE917F3C";
width = 600;
},
{
background = {
paths = (
{
closed = 1;
nodes = (
"475 0 LINE SMOOTH",
"561.667 0 OFFCURVE",
"585 49.333 OFFCURVE",
"585 116 CURVE SMOOTH",
"585 149.333 OFFCURVE",
"573 166.333 OFFCURVE",
"549 167 CURVE",
"530.333 167 OFFCURVE",
"513 154.667 OFFCURVE",
"513 120 CURVE SMOOTH",
"513 85.333 OFFCURVE",
"504 72 OFFCURVE",
"468 72 CURVE SMOOTH",
"314 72 LINE SMOOTH",
"239.333 72 OFFCURVE",
"190.5 78.167 OFFCURVE",
"167.5 90.5 CURVE SMOOTH",
"144.5 102.833 OFFCURVE",
"133 133 OFFCURVE",
"133 181 CURVE SMOOTH",
"133 235 LINE",
"595 235 LINE",
"595 283 LINE SMOOTH",
"595 423 OFFCURVE",
"521.667 461 OFFCURVE",
"343 461 CURVE SMOOTH",
"314 461 LINE SMOOTH",
"134 461 OFFCURVE",
"61 423 OFFCURVE",
"61 283 CURVE SMOOTH",
"61 178 LINE SMOOTH",
"61 38 OFFCURVE",
"134 0 OFFCURVE",
"314 0 CURVE SMOOTH"
);
},
{
closed = 1;
nodes = (
"137 376.333 OFFCURVE",
"170 389 OFFCURVE",
"314 389 CURVE SMOOTH",
"343 389 LINE SMOOTH",
"481.667 389 OFFCURVE",
"517.667 377.667 OFFCURVE",
"523 307 CURVE",
"133 307 LINE"
);
}
);
};
layerId = "3776B938-A14A-42B9-91A8-ACB6A1608662";
width = 600;
}
);
leftMetricsKey = o;
rightMetricsKey = o;
unicode = 0065;
},
{
glyphname = f;
lastChange = "2016-07-15 20:54:10 +0000";
layers = (
{
layerId = "0E6FACCE-B85C-44A4-8B06-9EFDFED90B40";
paths = (
{
closed = 0;
nodes = (
"324 618 LINE",
"184 618 OFFCURVE",
"120 569 OFFCURVE",
"120 462 CURVE",
"120 0 LINE"
);
},
{
closed = 0;
nodes = (
"312 441 LINE",
"45 441 LINE"
);
}
);
width = 349;
},
{
background = {
paths = (
{
closed = 1;
nodes = (
"113.333 -7 OFFCURVE",
"121 3.333 OFFCURVE",
"121 24 CURVE SMOOTH",
"121 419 LINE",
"264 419 LINE SMOOTH",
"284.667 419 OFFCURVE",
"295 425.333 OFFCURVE",
"295 438 CURVE SMOOTH",
"295 453.333 OFFCURVE",
"284.667 461 OFFCURVE",
"264 461 CURVE SMOOTH",
"121 461 LINE",
"121 583.017 OFFCURVE",
"174.186 594 OFFCURVE",
"287 594 CURVE SMOOTH",
"307.667 594 OFFCURVE",
"318 600.333 OFFCURVE",
"318 613 CURVE SMOOTH",
"318 628.333 OFFCURVE",
"307.667 636 OFFCURVE",
"287 636 CURVE SMOOTH",
"217.667 636 OFFCURVE",
"177 630 OFFCURVE",
"137 606 CURVE SMOOTH",
"98.333 582.667 OFFCURVE",
"79 534.333 OFFCURVE",
"79 461 CURVE",
"37.667 461 OFFCURVE",
"37.667 419 OFFCURVE",
"79 419 CURVE",
"79 24 LINE SMOOTH",
"79 3.333 OFFCURVE",
"85.333 -7 OFFCURVE",
"98 -7 CURVE SMOOTH"
);
}
);
};
layerId = "B309FD91-69BF-47D2-8142-D25EBE917F3C";
width = 600;
},
{
background = {
paths = (
{
closed = 1;
nodes = (
"139.333 -7 OFFCURVE",
"152 7.333 OFFCURVE",
"152 36 CURVE SMOOTH",
"152 389 LINE",
"280 389 LINE SMOOTH",
"310.667 389 OFFCURVE",
"326 400.333 OFFCURVE",
"326 423 CURVE SMOOTH",
"326 448.333 OFFCURVE",
"310.667 461 OFFCURVE",
"280 461 CURVE SMOOTH",
"152 461 LINE",
"154.667 550.333 OFFCURVE",
"189.667 564 OFFCURVE",
"303 564 CURVE SMOOTH",
"333.667 564 OFFCURVE",
"349 575.333 OFFCURVE",
"349 598 CURVE SMOOTH",
"349 623.333 OFFCURVE",
"333.667 636 OFFCURVE",
"303 636 CURVE SMOOTH",
"157.667 636 OFFCURVE",
"85.333 598.667 OFFCURVE",
"80 460 CURVE",
"38.667 454.667 OFFCURVE",
"38.667 402 OFFCURVE",
"80 394 CURVE",
"80 36 LINE SMOOTH",
"80 7.333 OFFCURVE",
"91.333 -7 OFFCURVE",
"114 -7 CURVE SMOOTH"
);
}
);
};
layerId = "3776B938-A14A-42B9-91A8-ACB6A1608662";
width = 600;
}
);
unicode = 0066;
},
{
glyphname = g;
lastChange = "2016-07-15 20:54:10 +0000";
layers = (
{
layerId = "0E6FACCE-B85C-44A4-8B06-9EFDFED90B40";
paths = (
{
closed = 0;
nodes = (
"507 445 LINE",
"507 0 LINE",
"507 -111 LINE",
"507 -160 OFFCURVE",
"485 -182 OFFCURVE",
"438 -182 CURVE",
"186 -182 LINE",
"134 -182 OFFCURVE",
"110 -151 OFFCURVE",
"110 -84 CURVE"
);
},
{
closed = 0;
nodes = (
"507 267 LINE",
"507 386 OFFCURVE",
"440 441 OFFCURVE",
"295 441 CURVE SMOOTH",
"163 441 OFFCURVE",
"103 400 OFFCURVE",
"103 311 CURVE",
"103 150 LINE",
"103 61 OFFCURVE",
"163 20 OFFCURVE",
"295 20 CURVE SMOOTH",
"440 20 OFFCURVE",
"507 75 OFFCURVE",
"507 194 CURVE"
);
}
);
width = 600;
},
{
background = {
paths = (
{
closed = 1;
nodes = (
"154.333 -205 OFFCURVE",
"155.667 -205 OFFCURVE",
"157 -205 CURVE",
"420 -205 LINE SMOOTH",
"486.667 -205 OFFCURVE",
"506 -177.333 OFFCURVE",
"506 -92 CURVE SMOOTH",
"506 438 LINE SMOOTH",
"506 478 OFFCURVE",
"464 478 OFFCURVE",
"464 438 CURVE SMOOTH",
"464 389 LINE",
"428 437 OFFCURVE",
"373 461 OFFCURVE",
"299 461 CURVE SMOOTH",
"270 461 LINE SMOOTH",
"128.667 461 OFFCURVE",
"62 426 OFFCURVE",
"62 286 CURVE SMOOTH",
"62 175 LINE SMOOTH",
"62 35 OFFCURVE",
"128.667 0 OFFCURVE",
"270 0 CURVE SMOOTH",
"411 0 LINE SMOOTH",
"433.667 0 OFFCURVE",
"451.333 3 OFFCURVE",
"464 9 CURVE",
"464 -108 LINE SMOOTH",
"464 -150.667 OFFCURVE",
"454.333 -163 OFFCURVE",
"413 -163 CURVE SMOOTH",
"164 -163 LINE SMOOTH",
"118.667 -163 OFFCURVE",
"104 -142.667 OFFCURVE",
"104 -100 CURVE SMOOTH",
"104 -78.667 OFFCURVE",
"97 -68 OFFCURVE",
"83 -68 CURVE SMOOTH",
"55 -68 OFFCURVE",
"56.667 -129 OFFCURVE",
"78 -173 CURVE SMOOTH",
"88 -194.333 OFFCURVE",
"113 -205 OFFCURVE",
"153 -205 CURVE"
);
},
{
closed = 1;
nodes = (
"157.186 42 OFFCURVE",
"104 52.983 OFFCURVE",
"104 175 CURVE SMOOTH",
"104 286 LINE SMOOTH",
"104 408.017 OFFCURVE",
"157.186 419 OFFCURVE",
"270 419 CURVE SMOOTH",
"299 419 LINE SMOOTH",
"404.333 419 OFFCURVE",
"464 352 OFFCURVE",
"464 232 CURVE SMOOTH",
"464 106 LINE SMOOTH",
"464 59.333 OFFCURVE",
"449.333 42 OFFCURVE",
"404 42 CURVE SMOOTH",
"270 42 LINE SMOOTH"
);
}
);
};
layerId = "B309FD91-69BF-47D2-8142-D25EBE917F3C";
width = 600;
},
{
background = {
paths = (
{
closed = 1;
nodes = (
"494 -205 LINE SMOOTH",
"571.333 -205 OFFCURVE",
"595 -169 OFFCURVE",
"595 -77 CURVE SMOOTH",
"595 426 LINE SMOOTH",
"595 454 OFFCURVE",
"583 468 OFFCURVE",
"559 468 CURVE SMOOTH",
"535 468 OFFCURVE",
"523 453 OFFCURVE",
"523 423 CURVE SMOOTH",
"523 411 LINE",
"481.667 444.333 OFFCURVE",
"421.333 461 OFFCURVE",
"342 461 CURVE SMOOTH",
"313 461 LINE SMOOTH",
"134.333 461 OFFCURVE",
"61 423 OFFCURVE",
"61 283 CURVE SMOOTH",
"61 178 LINE SMOOTH",
"61 38 OFFCURVE",
"135 0 OFFCURVE",
"311 0 CURVE SMOOTH",
"523 0 LINE",
"523 -93 LINE SMOOTH",
"523 -126.333 OFFCURVE",
"517.667 -133 OFFCURVE",
"487 -133 CURVE SMOOTH",
"178 -133 LINE SMOOTH",
"142 -133 OFFCURVE",
"133 -121 OFFCURVE",
"133 -81 CURVE SMOOTH",
"133 -52.333 OFFCURVE",
"121 -38 OFFCURVE",
"97 -38 CURVE SMOOTH",
"73 -38 OFFCURVE",
"61 -54.667 OFFCURVE",
"61 -88 CURVE SMOOTH",
"61 -154.667 OFFCURVE",
"84.333 -205 OFFCURVE",
"171 -205 CURVE SMOOTH"
);
},
{
closed = 1;
nodes = (
"165.667 72 OFFCURVE",
"133 85 OFFCURVE",
"133 181 CURVE SMOOTH",
"133 280 LINE SMOOTH",
"133 376 OFFCURVE",
"165 389 OFFCURVE",
"313 389 CURVE SMOOTH",
"342 389 LINE SMOOTH",
"476.667 389 OFFCURVE",
"523 327.667 OFFCURVE",
"523 233 CURVE SMOOTH",
"523 72 LINE",
"311 72 LINE SMOOTH"
);
}
);
};
layerId = "3776B938-A14A-42B9-91A8-ACB6A1608662";
width = 600;
}
);
unicode = 0067;
},
{
glyphname = h;
lastChange = "2016-07-15 20:54:10 +0000";
layers = (
{
layerId = "0E6FACCE-B85C-44A4-8B06-9EFDFED90B40";
paths = (
{
closed = 0;
nodes = (
"100 643 LINE",
"100 16 LINE"
);
},
{
closed = 0;
nodes = (
"484 16 LINE",
"484 311 LINE",
"484 400 OFFCURVE",
"427 441 OFFCURVE",
"302 441 CURVE SMOOTH",
"163 441 OFFCURVE",
"100 386 OFFCURVE",
"100 267 CURVE"
);
}
);
width = 584;
},
{
background = {
paths = (
{
closed = 1;
nodes = (
"74 -17 OFFCURVE",
"116 -17 OFFCURVE",
"116 23 CURVE SMOOTH",
"116 232 LINE SMOOTH",
"116 352 OFFCURVE",
"175.333 419 OFFCURVE",
"282 419 CURVE SMOOTH",
"311 419 LINE SMOOTH",
"422.143 419 OFFCURVE",
"476 408.017 OFFCURVE",
"476 286 CURVE SMOOTH",
"476 23 LINE SMOOTH",
"476 -17 OFFCURVE",
"518 -17 OFFCURVE",
"518 23 CURVE SMOOTH",
"518 286 LINE SMOOTH",
"518 426 OFFCURVE",
"451 461 OFFCURVE",
"311 461 CURVE SMOOTH",
"282 461 LINE SMOOTH",
"208.667 461 OFFCURVE",
"153.333 437 OFFCURVE",
"116 389 CURVE",
"116 612 LINE SMOOTH",
"116 632.667 OFFCURVE",
"108.333 643 OFFCURVE",
"93 643 CURVE SMOOTH",
"80.333 643 OFFCURVE",
"74 632.667 OFFCURVE",
"74 612 CURVE SMOOTH",
"74 23 LINE SMOOTH"
);
}
);
};
layerId = "B309FD91-69BF-47D2-8142-D25EBE917F3C";
paths = (
{
closed = 1;
nodes = (
"103 0 OFFCURVE",
"105 2 OFFCURVE",
"105 5 CURVE SMOOTH",
"105 307 LINE SMOOTH",
"105 423 OFFCURVE",
"162 476 OFFCURVE",
"302 476 CURVE SMOOTH",
"428 476 OFFCURVE",
"479 440 OFFCURVE",
"479 351 CURVE SMOOTH",
"479 5 LINE SMOOTH",
"479 2 OFFCURVE",
"481 0 OFFCURVE",
"484 0 CURVE SMOOTH",
"487 0 OFFCURVE",
"489 2 OFFCURVE",
"489 5 CURVE SMOOTH",
"489 351 LINE SMOOTH",
"489 447 OFFCURVE",
"436 486 OFFCURVE",
"302 486 CURVE SMOOTH",
"186 486 OFFCURVE",
"130 455 OFFCURVE",
"105 379 CURVE",
"105 795 LINE SMOOTH",
"105 798 OFFCURVE",
"103 800 OFFCURVE",
"100 800 CURVE SMOOTH",
"97 800 OFFCURVE",
"95 798 OFFCURVE",
"95 795 CURVE SMOOTH",
"95 5 LINE SMOOTH",
"95 2 OFFCURVE",
"97 0 OFFCURVE",
"100 0 CURVE SMOOTH"
);
}
);
width = 600;
},
{
background = {
paths = (
{
closed = 1;
nodes = (
"135 -7 OFFCURVE",
"147 7 OFFCURVE",
"147 35 CURVE SMOOTH",
"147 229 LINE SMOOTH",
"147 326.333 OFFCURVE",
"193.333 389 OFFCURVE",
"328 389 CURVE SMOOTH",
"357 389 LINE SMOOTH",
"505 389 OFFCURVE",
"537 376 OFFCURVE",
"537 280 CURVE SMOOTH",
"537 35 LINE SMOOTH",
"537 7 OFFCURVE",
"549 -7 OFFCURVE",
"573 -7 CURVE SMOOTH",
"597 -7 OFFCURVE",
"609 7 OFFCURVE",
"609 35 CURVE SMOOTH",
"609 283 LINE SMOOTH",
"609 423 OFFCURVE",
"535.667 461 OFFCURVE",
"357 461 CURVE SMOOTH",
"328 461 LINE SMOOTH",
"248.667 461 OFFCURVE",
"188.333 444.333 OFFCURVE",
"147 411 CURVE",
"147 597 LINE SMOOTH",
"147 627.667 OFFCURVE",
"134.333 643 OFFCURVE",
"109 643 CURVE SMOOTH",
"86.333 643 OFFCURVE",
"75 627.667 OFFCURVE",
"75 597 CURVE SMOOTH",
"75 35 LINE SMOOTH",
"75 7 OFFCURVE",
"87 -7 OFFCURVE",
"111 -7 CURVE SMOOTH"
);
}
);
};
layerId = "3776B938-A14A-42B9-91A8-ACB6A1608662";
width = 600;
}
);
leftMetricsKey = n;
rightMetricsKey = n;
unicode = 0068;
},
{
glyphname = i;
lastChange = "2016-07-15 20:54:10 +0000";
layers = (
{
layerId = "0E6FACCE-B85C-44A4-8B06-9EFDFED90B40";
paths = (
{
closed = 0;
nodes = (
"124 461 LINE",
"124 16 LINE"
);
},
{
closed = 1;
nodes = (
"138 587 OFFCURVE",
"149 593 OFFCURVE",
"149 601 CURVE SMOOTH",
"149 609 OFFCURVE",
"138 615 OFFCURVE",
"125 615 CURVE SMOOTH",
"111 615 OFFCURVE",
"100 609 OFFCURVE",
"100 601 CURVE SMOOTH",
"100 593 OFFCURVE",
"111 587 OFFCURVE",
"125 587 CURVE SMOOTH"
);
}
);
width = 249;
},
{
background = {
paths = (
{
closed = 1;
nodes = (
"74 -16 OFFCURVE",
"116 -16 OFFCURVE",
"116 20 CURVE SMOOTH",
"116 440 LINE SMOOTH",
"116 477.333 OFFCURVE",
"74 477.333 OFFCURVE",
"74 440 CURVE SMOOTH",
"74 20 LINE SMOOTH"
);
},
{
closed = 1;
nodes = (
"49 554.882 OFFCURVE",
"141 554.882 OFFCURVE",
"141 601 CURVE SMOOTH",
"141 647.653 OFFCURVE",
"52.244 646.419 OFFCURVE",
"49 601 CURVE"
);
}
);
};
layerId = "B309FD91-69BF-47D2-8142-D25EBE917F3C";
width = 600;
},
{
background = {
paths = (
{
closed = 1;
nodes = (
"132.667 -22 OFFCURVE",
"145 -8 OFFCURVE",
"145 20 CURVE SMOOTH",
"145 440 LINE SMOOTH",
"145 498.039 OFFCURVE",
"73 498.039 OFFCURVE",
"73 440 CURVE SMOOTH",
"73 20 LINE SMOOTH",
"73 -10.667 OFFCURVE",
"89.333 -22 OFFCURVE",
"108 -22 CURVE SMOOTH"
);
},
{
closed = 1;
nodes = (
"213.931 609.958 OFFCURVE",
"111.931 685.846 OFFCURVE",
"67.5 637.5 CURVE",
"5.944 592.042 OFFCURVE",
"104.389 516.154 OFFCURVE",
"149.5 564.5 CURVE"
);
}
);
};
layerId = "3776B938-A14A-42B9-91A8-ACB6A1608662";
width = 600;
}
);
unicode = 0069;
},
{
glyphname = j;
lastChange = "2016-07-15 20:54:10 +0000";
layers = (
{
layerId = "0E6FACCE-B85C-44A4-8B06-9EFDFED90B40";
paths = (
{
closed = 0;
nodes = (
"98 461 LINE",
"98 16 LINE",
"98 -100 OFFCURVE",
"55 -153 OFFCURVE",
"-40 -153 CURVE"
);
},
{
closed = 1;
nodes = (
"115 587 OFFCURVE",
"123 591 OFFCURVE",
"123 601 CURVE SMOOTH",
"123 611 OFFCURVE",
"115 615 OFFCURVE",
"99 615 CURVE SMOOTH",
"82 615 OFFCURVE",
"74 611 OFFCURVE",
"74 601 CURVE SMOOTH",
"74 591 OFFCURVE",
"82 587 OFFCURVE",
"99 587 CURVE SMOOTH"
);
}
);
width = 223;
},
{
background = {
paths = (
{
closed = 1;
nodes = (
"-21.667 -175 OFFCURVE",
"19 -170 OFFCURVE",
"59 -146 CURVE SMOOTH",
"97.667 -123.333 OFFCURVE",
"117 -74.667 OFFCURVE",
"117 0 CURVE SMOOTH",
"117 437 LINE SMOOTH",
"117 478.333 OFFCURVE",
"75 478.333 OFFCURVE",
"75 437 CURVE SMOOTH",
"75 0 LINE SMOOTH",
"75 -122.017 OFFCURVE",
"21.814 -133 OFFCURVE",
"-91 -133 CURVE SMOOTH",
"-132.333 -133 OFFCURVE",
"-132.333 -175 OFFCURVE",
"-91 -175 CURVE SMOOTH"
);
},
{
closed = 1;
nodes = (
"100.719 540.484 OFFCURVE",
"173.663 596.261 OFFCURVE",
"127 626 CURVE",
"93.559 661.516 OFFCURVE",
"17.059 605.739 OFFCURVE",
"65.5 576 CURVE"
);
}
);
};
layerId = "B309FD91-69BF-47D2-8142-D25EBE917F3C";
width = 600;
},
{
background = {
paths = (
{
closed = 1;
nodes = (
"76 -175 OFFCURVE",
"147 -140 OFFCURVE",
"147 0 CURVE SMOOTH",
"147 422 LINE SMOOTH",
"147 452.667 OFFCURVE",
"135 468 OFFCURVE",
"111 468 CURVE SMOOTH",
"87 468 OFFCURVE",
"75 452.667 OFFCURVE",
"75 422 CURVE SMOOTH",
"75 0 LINE SMOOTH",
"75 -89.333 OFFCURVE",
"44 -103 OFFCURVE",
"-76 -103 CURVE SMOOTH",
"-106.667 -103 OFFCURVE",
"-122 -115 OFFCURVE",
"-122 -139 CURVE SMOOTH",
"-122 -163 OFFCURVE",
"-106.667 -175 OFFCURVE",
"-76 -175 CURVE SMOOTH"
);
},
{
closed = 1;
nodes = (
"215.931 609.958 OFFCURVE",
"113.931 685.846 OFFCURVE",
"69.5 637.5 CURVE",
"7.944 592.042 OFFCURVE",
"106.389 516.154 OFFCURVE",
"151.5 564.5 CURVE"
);
}
);
};
layerId = "3776B938-A14A-42B9-91A8-ACB6A1608662";
width = 600;
}
);
unicode = 006A;
},
{
glyphname = k;
lastChange = "2016-07-15 20:54:10 +0000";
layers = (
{
layerId = "0E6FACCE-B85C-44A4-8B06-9EFDFED90B40";
paths = (
{
closed = 0;
nodes = (
"100 643 LINE",
"100 0 LINE"
);
},
{
closed = 0;
nodes = (
"189 271 LINE",
"382 2 LINE"
);
},
{
closed = 0;
nodes = (
"100 196 LINE",
"387 441 LINE"
);
}
);
width = 457;
},
{
background = {
paths = (
{
closed = 1;
nodes = (
"409.131 -23.131 OFFCURVE",
"435.575 10.425 OFFCURVE",
"411 35 CURVE SMOOTH",
"179 266 LINE",
"338 425 LINE SMOOTH",
"365.021 452.021 OFFCURVE",
"337.318 479.808 OFFCURVE",
"308 455 CURVE",
"116 262 LINE",
"116 615 LINE SMOOTH",
"116 652.333 OFFCURVE",
"74 652.333 OFFCURVE",
"74 615 CURVE SMOOTH",
"74 20 LINE SMOOTH",
"74 -16 OFFCURVE",
"116 -16 OFFCURVE",
"116 20 CURVE SMOOTH",
"116 203 LINE",
"150 237 LINE",
"381 5 LINE SMOOTH"
);
}
);
};
layerId = "B309FD91-69BF-47D2-8142-D25EBE917F3C";
width = 600;
},
{
background = {
paths = (
{
closed = 1;
nodes = (
"135 -7 OFFCURVE",
"147 7 OFFCURVE",
"147 35 CURVE SMOOTH",
"147 212 LINE",
"166 231 LINE",
"417 8 LINE",
"457.451 -34.281 OFFCURVE",
"506.451 26.497 OFFCURVE",
"468 57 CURVE",
"219 263 LINE",
"394 403 LINE SMOOTH",
"437.575 437.19 OFFCURVE",
"381.464 492.634 OFFCURVE",
"343 452 CURVE",
"147 282 LINE",
"147 600 LINE SMOOTH",
"147 658.039 OFFCURVE",
"75 658.039 OFFCURVE",
"75 600 CURVE SMOOTH",
"75 32 LINE SMOOTH",
"75 6 OFFCURVE",
"87 -7 OFFCURVE",
"111 -7 CURVE SMOOTH"
);
}
);
};
layerId = "3776B938-A14A-42B9-91A8-ACB6A1608662";
width = 600;
}
);
leftMetricsKey = h;
unicode = 006B;
},
{
glyphname = l;
lastChange = "2016-07-15 20:54:10 +0000";
layers = (
{
layerId = "0E6FACCE-B85C-44A4-8B06-9EFDFED90B40";
paths = (
{
closed = 0;
nodes = (
"100 643 LINE",
"100 81 LINE",
"100 36 OFFCURVE",
"136 15 OFFCURVE",
"214 15 CURVE"
);
}
);
width = 264;
},
{
background = {
paths = (
{
closed = 1;
nodes = (
"192 0 LINE SMOOTH",
"232 0 OFFCURVE",
"232.667 42 OFFCURVE",
"190 42 CURVE SMOOTH",
"147.333 42 OFFCURVE",
"132 59.333 OFFCURVE",
"132 106 CURVE SMOOTH",
"132 613 LINE SMOOTH",
"132 653 OFFCURVE",
"90 653 OFFCURVE",
"90 613 CURVE SMOOTH",
"90 124 LINE SMOOTH",
"90 30.667 OFFCURVE",
"111.667 0 OFFCURVE",
"185 0 CURVE SMOOTH"
);
}
);
};
layerId = "B309FD91-69BF-47D2-8142-D25EBE917F3C";
width = 600;
},
{
background = {
paths = (
{
closed = 1;
nodes = (
"208 0 LINE SMOOTH",
"238 0 OFFCURVE",
"253 12 OFFCURVE",
"253 36 CURVE SMOOTH",
"253 60 OFFCURVE",
"238 72 OFFCURVE",
"208 72 CURVE SMOOTH",
"172 72 OFFCURVE",
"163 82 OFFCURVE",
"163 118 CURVE SMOOTH",
"163 598 LINE SMOOTH",
"163 628 OFFCURVE",
"151 643 OFFCURVE",
"127 643 CURVE SMOOTH",
"103 643 OFFCURVE",
"91 628 OFFCURVE",
"91 598 CURVE SMOOTH",
"91 133 LINE SMOOTH",
"91 38.333 OFFCURVE",
"117 0 OFFCURVE",
"201 0 CURVE SMOOTH"
);
}
);
};
layerId = "3776B938-A14A-42B9-91A8-ACB6A1608662";
width = 600;
}
);
unicode = 006C;
},
{
glyphname = m;
lastChange = "2016-07-15 20:54:10 +0000";
layers = (
{
layerId = "0E6FACCE-B85C-44A4-8B06-9EFDFED90B40";
paths = (
{
closed = 0;
nodes = (
"100 462 LINE",
"100 1 LINE"
);
},
{
closed = 0;
nodes = (
"414 1 LINE",
"414 311 LINE",
"414 400 OFFCURVE",
"369 441 OFFCURVE",
"272 441 CURVE SMOOTH",
"179 441 OFFCURVE",
"125 396 OFFCURVE",
"100 297 CURVE"
);
},
{
closed = 0;
nodes = (
"728 1 LINE",
"728 311 LINE",
"728 400 OFFCURVE",
"683 441 OFFCURVE",
"586 441 CURVE SMOOTH",
"493 441 OFFCURVE",
"439 396 OFFCURVE",
"414 297 CURVE"
);
}
);
width = 828;
},
{
background = {
paths = (
{
closed = 1;
nodes = (
"74 -17 OFFCURVE",
"116 -17 OFFCURVE",
"116 23 CURVE SMOOTH",
"116 232 LINE SMOOTH",
"116 352 OFFCURVE",
"165.667 419 OFFCURVE",
"251 419 CURVE SMOOTH",
"345.468 419 OFFCURVE",
"386 408.017 OFFCURVE",
"386 286 CURVE SMOOTH",
"386 23 LINE SMOOTH",
"386 -17 OFFCURVE",
"428 -17 OFFCURVE",
"428 23 CURVE SMOOTH",
"428 232 LINE SMOOTH",
"428 352 OFFCURVE",
"477.667 419 OFFCURVE",
"563 419 CURVE SMOOTH",
"658.515 419 OFFCURVE",
"699 408.017 OFFCURVE",
"699 286 CURVE SMOOTH",
"699 23 LINE SMOOTH",
"699 -17 OFFCURVE",
"741 -17 OFFCURVE",
"741 23 CURVE SMOOTH",
"741 286 LINE SMOOTH",
"741 426 OFFCURVE",
"683.333 461 OFFCURVE",
"558 461 CURVE SMOOTH",
"495.333 461 OFFCURVE",
"448.333 432 OFFCURVE",
"417 374 CURVE",
"394.333 442 OFFCURVE",
"337 461 OFFCURVE",
"261 461 CURVE SMOOTH",
"185 461 OFFCURVE",
"156 441 OFFCURVE",
"116 389 CURVE",
"116 437 LINE SMOOTH",
"116 457.667 OFFCURVE",
"108.333 468 OFFCURVE",
"93 468 CURVE SMOOTH",
"80.333 468 OFFCURVE",
"74 457.667 OFFCURVE",
"74 437 CURVE SMOOTH",
"74 23 LINE SMOOTH"
);
}
);
};
layerId = "B309FD91-69BF-47D2-8142-D25EBE917F3C";
width = 600;
},
{
background = {
paths = (
{
closed = 1;
nodes = (
"134 -7 OFFCURVE",
"146 7 OFFCURVE",
"146 35 CURVE SMOOTH",
"146 229 LINE SMOOTH",
"146 334.333 OFFCURVE",
"187 389 OFFCURVE",
"279 389 CURVE SMOOTH",
"371 389 OFFCURVE",
"399 374.667 OFFCURVE",
"399 280 CURVE SMOOTH",
"399 35 LINE SMOOTH",
"399 7 OFFCURVE",
"411.333 -7 OFFCURVE",
"436 -7 CURVE SMOOTH",
"460.667 -7 OFFCURVE",
"473 7 OFFCURVE",
"473 35 CURVE SMOOTH",
"473 229 LINE",
"473.667 335.667 OFFCURVE",
"519.333 389 OFFCURVE",
"610 389 CURVE SMOOTH",
"700.667 389 OFFCURVE",
"727 376 OFFCURVE",
"727 280 CURVE SMOOTH",
"727 35 LINE SMOOTH",
"727 7 OFFCURVE",
"739 -7 OFFCURVE",
"763 -7 CURVE SMOOTH",
"787 -7 OFFCURVE",
"799 7 OFFCURVE",
"799 35 CURVE SMOOTH",
"799 283 LINE SMOOTH",
"799 421.667 OFFCURVE",
"733.333 461 OFFCURVE",
"604 461 CURVE SMOOTH",
"539.333 461 OFFCURVE",
"488 437.333 OFFCURVE",
"450 390 CURVE",
"419.333 444.667 OFFCURVE",
"361 461 OFFCURVE",
"265 461 CURVE SMOOTH",
"217 461 OFFCURVE",
"177.333 445.333 OFFCURVE",
"146 414 CURVE",
"146 422 LINE SMOOTH",
"146 452.667 OFFCURVE",
"133.333 468 OFFCURVE",
"108 468 CURVE SMOOTH",
"85.333 468 OFFCURVE",
"74 453.667 OFFCURVE",
"74 425 CURVE SMOOTH",
"74 35 LINE SMOOTH",
"74 7 OFFCURVE",
"86 -7 OFFCURVE",
"110 -7 CURVE SMOOTH"
);
}
);
};
layerId = "3776B938-A14A-42B9-91A8-ACB6A1608662";
width = 600;
}
);
leftMetricsKey = n;
rightMetricsKey = n;
unicode = 006D;
},
{
glyphname = n;
lastChange = "2016-07-15 20:54:10 +0000";
layers = (
{
layerId = "0E6FACCE-B85C-44A4-8B06-9EFDFED90B40";
paths = (
{
closed = 0;
nodes = (
"100 461 LINE",
"100 16 LINE"
);
},
{
closed = 0;
nodes = (
"484 16 LINE",
"484 311 LINE",
"484 400 OFFCURVE",
"427 441 OFFCURVE",
"302 441 CURVE SMOOTH",
"163 441 OFFCURVE",
"100 386 OFFCURVE",
"100 267 CURVE"
);
}
);
width = 584;
},
{
associatedMasterId = "0E6FACCE-B85C-44A4-8B06-9EFDFED90B40";
background = {
paths = (
{
closed = 1;
nodes = (
"106 -7 OFFCURVE",
"116 3 OFFCURVE",
"116 23 CURVE SMOOTH",
"116 232 LINE SMOOTH",
"116 352 OFFCURVE",
"175.333 419 OFFCURVE",
"282 419 CURVE SMOOTH",
"311 419 LINE SMOOTH",
"422.143 419 OFFCURVE",
"476 408.017 OFFCURVE",
"476 286 CURVE SMOOTH",
"476 23 LINE SMOOTH",
"476 3 OFFCURVE",
"487 -7 OFFCURVE",
"497 -7 CURVE SMOOTH",
"508 -7 OFFCURVE",
"518 3 OFFCURVE",
"518 23 CURVE SMOOTH",
"518 286 LINE SMOOTH",
"518 426 OFFCURVE",
"451 461 OFFCURVE",
"311 461 CURVE SMOOTH",
"282 461 LINE SMOOTH",
"208.667 461 OFFCURVE",
"153.333 437 OFFCURVE",
"116 389 CURVE",
"116 437 LINE SMOOTH",
"116 457.667 OFFCURVE",
"108.333 468 OFFCURVE",
"93 468 CURVE SMOOTH",
"80.333 468 OFFCURVE",
"74 457.667 OFFCURVE",
"74 437 CURVE SMOOTH",
"74 23 LINE SMOOTH",
"74 3 OFFCURVE",
"85 -7 OFFCURVE",
"95 -7 CURVE SMOOTH"
);
}
);
};
layerId = "98EC6F63-6639-454F-9F2B-6AB61C1FD1D8";
name = "Light Jun 28 16, 14:55";
paths = (
{
closed = 0;
nodes = (
"93 447 LINE",
"93 16 LINE"
);
},
{
closed = 0;
nodes = (
"497 16 LINE",
"497 311 LINE",
"497 400 OFFCURVE",
"437 441 OFFCURVE",
"305 441 CURVE SMOOTH",
"160 441 OFFCURVE",
"93 386 OFFCURVE",
"93 267 CURVE"
);
}
);
width = 600;
},
{
background = {
paths = (
{
closed = 1;
nodes = (
"74 -17 OFFCURVE",
"116 -17 OFFCURVE",
"116 23 CURVE SMOOTH",
"116 232 LINE SMOOTH",
"116 352 OFFCURVE",
"175.333 419 OFFCURVE",
"282 419 CURVE SMOOTH",
"311 419 LINE SMOOTH",
"422.143 419 OFFCURVE",
"476 408.017 OFFCURVE",
"476 286 CURVE SMOOTH",
"476 23 LINE SMOOTH",
"476 -17 OFFCURVE",
"518 -17 OFFCURVE",
"518 23 CURVE SMOOTH",
"518 286 LINE SMOOTH",
"518 426 OFFCURVE",
"451 461 OFFCURVE",
"311 461 CURVE SMOOTH",
"282 461 LINE SMOOTH",
"208.667 461 OFFCURVE",
"153.333 437 OFFCURVE",
"116 389 CURVE",
"116 437 LINE SMOOTH",
"116 457.667 OFFCURVE",
"108.333 468 OFFCURVE",
"93 468 CURVE SMOOTH",
"80.333 468 OFFCURVE",
"74 457.667 OFFCURVE",
"74 437 CURVE SMOOTH",
"74 23 LINE SMOOTH"
);
}
);
};
layerId = "B309FD91-69BF-47D2-8142-D25EBE917F3C";
paths = (
{
closed = 1;
nodes = (
"103 0 OFFCURVE",
"105 2 OFFCURVE",
"105 5 CURVE SMOOTH",
"105 307 LINE SMOOTH",
"105 423 OFFCURVE",
"162 476 OFFCURVE",
"302 476 CURVE SMOOTH",
"428 476 OFFCURVE",
"479 440 OFFCURVE",
"479 351 CURVE SMOOTH",
"479 5 LINE SMOOTH",
"479 2 OFFCURVE",
"481 0 OFFCURVE",
"484 0 CURVE SMOOTH",
"487 0 OFFCURVE",
"489 2 OFFCURVE",
"489 5 CURVE SMOOTH",
"489 351 LINE SMOOTH",
"489 447 OFFCURVE",
"436 486 OFFCURVE",
"302 486 CURVE SMOOTH",
"186 486 OFFCURVE",
"130 455 OFFCURVE",
"105 379 CURVE",
"105 495 LINE SMOOTH",
"105 498 OFFCURVE",
"103 500 OFFCURVE",
"100 500 CURVE SMOOTH",
"97 500 OFFCURVE",
"95 498 OFFCURVE",
"95 495 CURVE SMOOTH",
"95 5 LINE SMOOTH",
"95 2 OFFCURVE",
"97 0 OFFCURVE",
"100 0 CURVE SMOOTH"
);
}
);
width = 600;
},
{
background = {
paths = (
{
closed = 1;
nodes = (
"134 -7 OFFCURVE",
"146 7 OFFCURVE",
"146 35 CURVE SMOOTH",
"146 229 LINE SMOOTH",
"146 326.333 OFFCURVE",
"192.333 389 OFFCURVE",
"327 389 CURVE SMOOTH",
"356 389 LINE SMOOTH",
"504 389 OFFCURVE",
"536 376 OFFCURVE",
"536 280 CURVE SMOOTH",
"536 35 LINE SMOOTH",
"536 7 OFFCURVE",
"548 -7 OFFCURVE",
"572 -7 CURVE SMOOTH",
"596 -7 OFFCURVE",
"608 7 OFFCURVE",
"608 35 CURVE SMOOTH",
"608 283 LINE SMOOTH",
"608 423 OFFCURVE",
"534.667 461 OFFCURVE",
"356 461 CURVE SMOOTH",
"327 461 LINE SMOOTH",
"247.667 461 OFFCURVE",
"187.333 444.333 OFFCURVE",
"146 411 CURVE",
"146 422 LINE SMOOTH",
"146 452.667 OFFCURVE",
"133.333 468 OFFCURVE",
"108 468 CURVE SMOOTH",
"85.333 468 OFFCURVE",
"74 453.667 OFFCURVE",
"74 425 CURVE SMOOTH",
"74 35 LINE SMOOTH",
"74 7 OFFCURVE",
"86 -7 OFFCURVE",
"110 -7 CURVE SMOOTH"
);
}
);
};
layerId = "3776B938-A14A-42B9-91A8-ACB6A1608662";
width = 600;
}
);
unicode = 006E;
},
{
glyphname = o;
lastChange = "2016-07-15 20:54:10 +0000";
layers = (
{
layerId = "0E6FACCE-B85C-44A4-8B06-9EFDFED90B40";
paths = (
{
closed = 1;
nodes = (
"494 311 LINE",
"494 400 OFFCURVE",
"425 441 OFFCURVE",
"292 441 CURVE",
"159 441 OFFCURVE",
"90 400 OFFCURVE",
"90 311 CURVE",
"90 150 LINE",
"90 61 OFFCURVE",
"169 20 OFFCURVE",
"292 20 CURVE",
"425 20 OFFCURVE",
"494 61 OFFCURVE",
"494 150 CURVE",
"494 186 LINE"
);
}
);
width = 584;
},
{
background = {
paths = (
{
closed = 1;
nodes = (
"299 0 LINE SMOOTH",
"439 0 OFFCURVE",
"506 35 OFFCURVE",
"506 175 CURVE SMOOTH",
"506 286 LINE SMOOTH",
"506 426 OFFCURVE",
"439 461 OFFCURVE",
"299 461 CURVE SMOOTH",
"270 461 LINE SMOOTH",
"128.667 461 OFFCURVE",
"62 426 OFFCURVE",
"62 286 CURVE SMOOTH",
"62 175 LINE SMOOTH",
"62 35 OFFCURVE",
"128.667 0 OFFCURVE",
"270 0 CURVE SMOOTH"
);
},
{
closed = 1;
nodes = (
"157.186 42 OFFCURVE",
"104 52.983 OFFCURVE",
"104 175 CURVE SMOOTH",
"104 286 LINE SMOOTH",
"104 408.017 OFFCURVE",
"157.186 419 OFFCURVE",
"270 419 CURVE SMOOTH",
"299 419 LINE SMOOTH",
"410.143 419 OFFCURVE",
"464 408.017 OFFCURVE",
"464 286 CURVE SMOOTH",
"464 175 LINE SMOOTH",
"464 52.983 OFFCURVE",
"410.143 42 OFFCURVE",
"299 42 CURVE SMOOTH",
"270 42 LINE SMOOTH"
);
}
);
};
layerId = "B309FD91-69BF-47D2-8142-D25EBE917F3C";
width = 600;
},
{
background = {
paths = (
{
closed = 1;
nodes = (
"343 0 LINE SMOOTH",
"521.667 0 OFFCURVE",
"595 38 OFFCURVE",
"595 178 CURVE SMOOTH",
"595 283 LINE SMOOTH",
"595 423 OFFCURVE",
"521.667 461 OFFCURVE",
"343 461 CURVE SMOOTH",
"314 461 LINE SMOOTH",
"134 461 OFFCURVE",
"61 423 OFFCURVE",
"61 283 CURVE SMOOTH",
"61 178 LINE SMOOTH",
"61 38 OFFCURVE",
"134 0 OFFCURVE",
"314 0 CURVE SMOOTH"
);
},
{
closed = 1;
nodes = (
"239.333 72 OFFCURVE",
"190.5 78.167 OFFCURVE",
"167.5 90.5 CURVE SMOOTH",
"144.5 102.833 OFFCURVE",
"133 133 OFFCURVE",
"133 181 CURVE SMOOTH",
"133 280 LINE SMOOTH",
"133 328 OFFCURVE",
"144.5 358.167 OFFCURVE",
"167.5 370.5 CURVE SMOOTH",
"190.5 382.833 OFFCURVE",
"239.333 389 OFFCURVE",
"314 389 CURVE SMOOTH",
"343 389 LINE SMOOTH",
"491 389 OFFCURVE",
"523 376 OFFCURVE",
"523 280 CURVE SMOOTH",
"523 181 LINE SMOOTH",
"523 85 OFFCURVE",
"491 72 OFFCURVE",
"343 72 CURVE SMOOTH",
"314 72 LINE SMOOTH"
);
}
);
};
layerId = "3776B938-A14A-42B9-91A8-ACB6A1608662";
width = 600;
}
);
unicode = 006F;
},
{
glyphname = p;
lastChange = "2016-07-15 20:54:10 +0000";
layers = (
{
components = (
{
name = q;
transform = "{-1, 0, 0, 1, 594, 0}";
}
);
layerId = "0E6FACCE-B85C-44A4-8B06-9EFDFED90B40";
width = 594;
},
{
background = {
paths = (
{
closed = 1;
nodes = (
"109.333 -182 OFFCURVE",
"117 -172 OFFCURVE",
"117 -152 CURVE SMOOTH",
"117 0 LINE",
"312 0 LINE SMOOTH",
"452 0 OFFCURVE",
"519 35 OFFCURVE",
"519 175 CURVE SMOOTH",
"519 286 LINE SMOOTH",
"519 426 OFFCURVE",
"452 461 OFFCURVE",
"312 461 CURVE SMOOTH",
"283 461 LINE SMOOTH",
"209.667 461 OFFCURVE",
"154.333 437 OFFCURVE",
"117 389 CURVE",
"117 438 LINE SMOOTH",
"117 478 OFFCURVE",
"75 478 OFFCURVE",
"75 438 CURVE SMOOTH",
"75 -152 LINE SMOOTH",
"75 -172 OFFCURVE",
"81.333 -182 OFFCURVE",
"94 -182 CURVE SMOOTH"
);
},
{
closed = 1;
nodes = (
"117 232 LINE SMOOTH",
"117 352 OFFCURVE",
"176.333 419 OFFCURVE",
"283 419 CURVE SMOOTH",
"312 419 LINE SMOOTH",
"423.143 419 OFFCURVE",
"477 408.017 OFFCURVE",
"477 286 CURVE SMOOTH",
"477 175 LINE SMOOTH",
"477 52.983 OFFCURVE",
"423.143 42 OFFCURVE",
"312 42 CURVE SMOOTH",
"117 42 LINE"
);
}
);
};
layerId = "B309FD91-69BF-47D2-8142-D25EBE917F3C";
width = 600;
},
{
background = {
paths = (
{
closed = 1;
nodes = (
"134.333 -182 OFFCURVE",
"147 -167 OFFCURVE",
"147 -137 CURVE SMOOTH",
"147 0 LINE",
"360 0 LINE SMOOTH",
"536 0 OFFCURVE",
"609 38 OFFCURVE",
"609 178 CURVE SMOOTH",
"609 283 LINE SMOOTH",
"609 423 OFFCURVE",
"535.667 461 OFFCURVE",
"357 461 CURVE SMOOTH",
"328 461 LINE SMOOTH",
"248.667 461 OFFCURVE",
"188.333 444.333 OFFCURVE",
"147 411 CURVE",
"147 423 LINE SMOOTH",
"147 453 OFFCURVE",
"135 468 OFFCURVE",
"111 468 CURVE SMOOTH",
"87 468 OFFCURVE",
"75 454 OFFCURVE",
"75 426 CURVE SMOOTH",
"75 -137 LINE SMOOTH",
"75 -167 OFFCURVE",
"86.333 -182 OFFCURVE",
"109 -182 CURVE SMOOTH"
);
},
{
closed = 1;
nodes = (
"147 232 LINE SMOOTH",
"147 328 OFFCURVE",
"192 389 OFFCURVE",
"328 389 CURVE SMOOTH",
"357 389 LINE SMOOTH",
"505 389 OFFCURVE",
"537 376 OFFCURVE",
"537 280 CURVE SMOOTH",
"537 181 LINE SMOOTH",
"537 85 OFFCURVE",
"505.333 72 OFFCURVE",
"360 72 CURVE SMOOTH",
"147 72 LINE"
);
}
);
};
layerId = "3776B938-A14A-42B9-91A8-ACB6A1608662";
width = 600;
}
);
unicode = 0070;
},
{
glyphname = q;
lastChange = "2016-07-15 20:54:10 +0000";
layers = (
{
components = (
{
name = o;
}
);
layerId = "0E6FACCE-B85C-44A4-8B06-9EFDFED90B40";
paths = (
{
closed = 0;
nodes = (
"494 -182 LINE",
"494 461 LINE"
);
}
);
width = 594;
},
{
background = {
paths = (
{
closed = 1;
nodes = (
"499.667 -182 OFFCURVE",
"506 -172 OFFCURVE",
"506 -152 CURVE SMOOTH",
"506 438 LINE SMOOTH",
"506 478 OFFCURVE",
"464 478 OFFCURVE",
"464 438 CURVE SMOOTH",
"464 389 LINE",
"428 437 OFFCURVE",
"373 461 OFFCURVE",
"299 461 CURVE SMOOTH",
"270 461 LINE SMOOTH",
"128.667 461 OFFCURVE",
"62 426 OFFCURVE",
"62 286 CURVE SMOOTH",
"62 175 LINE SMOOTH",
"62 35 OFFCURVE",
"128.667 0 OFFCURVE",
"270 0 CURVE SMOOTH",
"464 0 LINE",
"464 -152 LINE SMOOTH",
"464 -172 OFFCURVE",
"471.667 -182 OFFCURVE",
"487 -182 CURVE SMOOTH"
);
},
{
closed = 1;
nodes = (
"157.186 42 OFFCURVE",
"104 52.983 OFFCURVE",
"104 175 CURVE SMOOTH",
"104 286 LINE SMOOTH",
"104 408.017 OFFCURVE",
"157.186 419 OFFCURVE",
"270 419 CURVE SMOOTH",
"299 419 LINE SMOOTH",
"404.333 419 OFFCURVE",
"464 352 OFFCURVE",
"464 232 CURVE SMOOTH",
"464 42 LINE",
"270 42 LINE SMOOTH"
);
}
);
};
layerId = "B309FD91-69BF-47D2-8142-D25EBE917F3C";
width = 600;
},
{
background = {
paths = (
{
closed = 1;
nodes = (
"583.667 -182 OFFCURVE",
"595 -167 OFFCURVE",
"595 -137 CURVE SMOOTH",
"595 426 LINE SMOOTH",
"595 454 OFFCURVE",
"583 468 OFFCURVE",
"559 468 CURVE SMOOTH",
"535 468 OFFCURVE",
"523 453 OFFCURVE",
"523 423 CURVE SMOOTH",
"523 411 LINE",
"483 444.333 OFFCURVE",
"423 461 OFFCURVE",
"343 461 CURVE SMOOTH",
"314 461 LINE SMOOTH",
"134 461 OFFCURVE",
"61 423 OFFCURVE",
"61 283 CURVE SMOOTH",
"61 178 LINE SMOOTH",
"61 38 OFFCURVE",
"135 0 OFFCURVE",
"311 0 CURVE SMOOTH",
"523 0 LINE",
"523 -137 LINE SMOOTH",
"523 -170.333 OFFCURVE",
"542.333 -182 OFFCURVE",
"561 -182 CURVE SMOOTH"
);
},
{
closed = 1;
nodes = (
"165.667 72 OFFCURVE",
"133 85 OFFCURVE",
"133 181 CURVE SMOOTH",
"133 280 LINE SMOOTH",
"133 328 OFFCURVE",
"144.5 358.167 OFFCURVE",
"167.5 370.5 CURVE SMOOTH",
"190.5 382.833 OFFCURVE",
"239.333 389 OFFCURVE",
"314 389 CURVE SMOOTH",
"343 389 LINE SMOOTH",
"463 389 OFFCURVE",
"523 336.667 OFFCURVE",
"523 232 CURVE SMOOTH",
"523 72 LINE",
"311 72 LINE SMOOTH"
);
}
);
};
layerId = "3776B938-A14A-42B9-91A8-ACB6A1608662";
width = 600;
}
);
rightMetricsKey = n;
unicode = 0071;
},
{
glyphname = r;
lastChange = "2016-07-15 20:54:10 +0000";
layers = (
{
layerId = "0E6FACCE-B85C-44A4-8B06-9EFDFED90B40";
paths = (
{
closed = 0;
nodes = (
"100 0 LINE",
"100 461 LINE"
);
},
{
closed = 0;
nodes = (
"345 441 LINE",
"203 441 OFFCURVE",
"100 413 OFFCURVE",
"100 242 CURVE"
);
}
);
width = 385;
},
{
background = {
paths = (
{
closed = 1;
nodes = (
"74 -17 OFFCURVE",
"116 -17 OFFCURVE",
"116 23 CURVE SMOOTH",
"116 232 LINE SMOOTH",
"116 352 OFFCURVE",
"175.333 419 OFFCURVE",
"282 419 CURVE SMOOTH",
"328 419 LINE SMOOTH",
"368 419 OFFCURVE",
"368 461 OFFCURVE",
"328 461 CURVE SMOOTH",
"282 461 LINE SMOOTH",
"208.667 461 OFFCURVE",
"153.333 437 OFFCURVE",
"116 389 CURVE",
"116 437 LINE SMOOTH",
"116 457.667 OFFCURVE",
"108.333 468 OFFCURVE",
"93 468 CURVE SMOOTH",
"80.333 468 OFFCURVE",
"74 457.667 OFFCURVE",
"74 437 CURVE SMOOTH",
"74 23 LINE SMOOTH"
);
}
);
};
layerId = "B309FD91-69BF-47D2-8142-D25EBE917F3C";
width = 600;
},
{
background = {
paths = (
{
closed = 1;
nodes = (
"134 -7 OFFCURVE",
"146 7 OFFCURVE",
"146 35 CURVE SMOOTH",
"146 229 LINE SMOOTH",
"146 333 OFFCURVE",
"198.333 389 OFFCURVE",
"297 389 CURVE SMOOTH",
"343 389 LINE SMOOTH",
"373 389 OFFCURVE",
"388 401 OFFCURVE",
"388 425 CURVE SMOOTH",
"388 449 OFFCURVE",
"373 461 OFFCURVE",
"343 461 CURVE SMOOTH",
"297 461 LINE SMOOTH",
"236.333 461 OFFCURVE",
"186 444.333 OFFCURVE",
"146 411 CURVE",
"146 422 LINE SMOOTH",
"146 452.667 OFFCURVE",
"133.333 468 OFFCURVE",
"108 468 CURVE SMOOTH",
"85.333 468 OFFCURVE",
"74 453.667 OFFCURVE",
"74 425 CURVE SMOOTH",
"74 35 LINE SMOOTH",
"74 7 OFFCURVE",
"86 -7 OFFCURVE",
"110 -7 CURVE SMOOTH"
);
}
);
};
layerId = "3776B938-A14A-42B9-91A8-ACB6A1608662";
width = 600;
}
);
leftMetricsKey = n;
unicode = 0072;
},
{
glyphname = s;
lastChange = "2016-07-15 20:54:10 +0000";
layers = (
{
layerId = "0E6FACCE-B85C-44A4-8B06-9EFDFED90B40";
paths = (
{
closed = 0;
nodes = (
"450 338 LINE",
"450 414 OFFCURVE",
"419 449 OFFCURVE",
"350 449 CURVE",
"172 449 LINE",
"115 449 OFFCURVE",
"89 414 OFFCURVE",
"89 339 CURVE",
"89 270 OFFCURVE",
"122 238 OFFCURVE",
"194 238 CURVE SMOOTH",
"361 238 LINE",
"430 238 OFFCURVE",
"461 206 OFFCURVE",
"461 135 CURVE",
"461 55 OFFCURVE",
"427 16 OFFCURVE",
"352 16 CURVE SMOOTH",
"176 16 LINE",
"103 16 OFFCURVE",
"70 49 OFFCURVE",
"70 120 CURVE"
);
}
);
width = 530;
},
{
background = {
paths = (
{
closed = 1;
nodes = (
"383 0 LINE SMOOTH",
"465 0 OFFCURVE",
"506 41 OFFCURVE",
"506 123 CURVE SMOOTH",
"506 212.333 OFFCURVE",
"465 257 OFFCURVE",
"383 257 CURVE SMOOTH",
"166 257 LINE SMOOTH",
"128.667 257 OFFCURVE",
"102 288.333 OFFCURVE",
"102 343 CURVE SMOOTH",
"102 393.667 OFFCURVE",
"123.333 419 OFFCURVE",
"166 419 CURVE SMOOTH",
"402 419 LINE SMOOTH",
"447.333 419 OFFCURVE",
"462 398.667 OFFCURVE",
"462 356 CURVE SMOOTH",
"462 334.667 OFFCURVE",
"469 324 OFFCURVE",
"483 324 CURVE SMOOTH",
"511 324 OFFCURVE",
"509.333 385 OFFCURVE",
"488 429 CURVE SMOOTH",
"478 450.333 OFFCURVE",
"453 461 OFFCURVE",
"413 461 CURVE",
"411.667 461 OFFCURVE",
"410.333 461 OFFCURVE",
"409 461 CURVE",
"184 461 LINE SMOOTH",
"94.667 461 OFFCURVE",
"60 420.333 OFFCURVE",
"60 343 CURVE SMOOTH",
"60 257.667 OFFCURVE",
"101.333 215 OFFCURVE",
"184 215 CURVE SMOOTH",
"400 215 LINE SMOOTH",
"437.333 215 OFFCURVE",
"464 179 OFFCURVE",
"464 123 CURVE SMOOTH",
"464 69 OFFCURVE",
"442.667 42 OFFCURVE",
"400 42 CURVE SMOOTH",
"162 42 LINE SMOOTH",
"116.667 42 OFFCURVE",
"102 61.167 OFFCURVE",
"102 104.5 CURVE SMOOTH",
"102 126.167 OFFCURVE",
"95 137 OFFCURVE",
"81 137 CURVE",
"50.167 139.333 OFFCURVE",
"35.833 -9.083 OFFCURVE",
"155 0 CURVE"
);
}
);
};
layerId = "B309FD91-69BF-47D2-8142-D25EBE917F3C";
width = 600;
},
{
background = {
paths = (
{
closed = 1;
nodes = (
"398 0 LINE SMOOTH",
"522 0 OFFCURVE",
"566 47.333 OFFCURVE",
"566 130 CURVE SMOOTH",
"566 212.667 OFFCURVE",
"526.667 272 OFFCURVE",
"428 272 CURVE SMOOTH",
"181 272 LINE SMOOTH",
"153 272 OFFCURVE",
"132 294 OFFCURVE",
"132 334 CURVE SMOOTH",
"132 370.667 OFFCURVE",
"148.333 389 OFFCURVE",
"181 389 CURVE SMOOTH",
"447 389 LINE SMOOTH",
"483 389 OFFCURVE",
"492 374.667 OFFCURVE",
"492 340 CURVE SMOOTH",
"492 305.333 OFFCURVE",
"509.333 294 OFFCURVE",
"528 294 CURVE SMOOTH",
"552 294 OFFCURVE",
"564 310.667 OFFCURVE",
"564 344 CURVE SMOOTH",
"564 377.333 OFFCURVE",
"556.5 405.167 OFFCURVE",
"541.5 427.5 CURVE SMOOTH",
"526.5 449.833 OFFCURVE",
"497.333 461 OFFCURVE",
"454 461 CURVE SMOOTH",
"229 461 LINE SMOOTH",
"102.333 461 OFFCURVE",
"60 416.333 OFFCURVE",
"60 335 CURVE SMOOTH",
"60 253.667 OFFCURVE",
"103 200 OFFCURVE",
"199 200 CURVE SMOOTH",
"445 200 LINE SMOOTH",
"474.333 200 OFFCURVE",
"494 170.667 OFFCURVE",
"494 132 CURVE SMOOTH",
"494 92 OFFCURVE",
"477.667 72 OFFCURVE",
"445 72 CURVE SMOOTH",
"177 72 LINE SMOOTH",
"141 72 OFFCURVE",
"132 84 OFFCURVE",
"132 124 CURVE SMOOTH",
"132 152.667 OFFCURVE",
"120.333 167 OFFCURVE",
"97 167 CURVE",
"96 166 LINE",
"72 166 OFFCURVE",
"60 149.333 OFFCURVE",
"60 116 CURVE SMOOTH",
"60 82.667 OFFCURVE",
"67.5 55 OFFCURVE",
"82.5 33 CURVE SMOOTH",
"97.5 11 OFFCURVE",
"126.667 0 OFFCURVE",
"170 0 CURVE SMOOTH"
);
}
);
};
layerId = "3776B938-A14A-42B9-91A8-ACB6A1608662";
width = 600;
}
);
unicode = 0073;
},
{
glyphname = t;
lastChange = "2016-07-15 20:54:10 +0000";
layers = (
{
layerId = "0E6FACCE-B85C-44A4-8B06-9EFDFED90B40";
paths = (
{
closed = 0;
nodes = (
"125 583 LINE",
"125 121 LINE",
"125 49 OFFCURVE",
"170 20 OFFCURVE",
"269 20 CURVE"
);
},
{
closed = 0;
nodes = (
"50 441 LINE",
"278 441 LINE"
);
}
);
width = 328;
},
{
background = {
paths = (
{
closed = 1;
nodes = (
"305 0 OFFCURVE",
"315 7.667 OFFCURVE",
"315 23 CURVE SMOOTH",
"315 35.667 OFFCURVE",
"305 42 OFFCURVE",
"285 42 CURVE SMOOTH",
"172.186 42 OFFCURVE",
"119 52.983 OFFCURVE",
"119 175 CURVE SMOOTH",
"119 419 LINE",
"262 419 LINE SMOOTH",
"282.667 419 OFFCURVE",
"293 425.333 OFFCURVE",
"293 438 CURVE SMOOTH",
"293 453.333 OFFCURVE",
"282.667 461 OFFCURVE",
"262 461 CURVE SMOOTH",
"119 461 LINE",
"119 570 LINE SMOOTH",
"119 590.667 OFFCURVE",
"111.333 601 OFFCURVE",
"96 601 CURVE SMOOTH",
"83.333 601 OFFCURVE",
"77 590.667 OFFCURVE",
"77 570 CURVE SMOOTH",
"77 461 LINE",
"35.667 461 OFFCURVE",
"35.667 419 OFFCURVE",
"77 419 CURVE",
"77 171 LINE SMOOTH",
"77 100.333 OFFCURVE",
"96 53.667 OFFCURVE",
"134 31 CURVE SMOOTH",
"167.333 10.333 OFFCURVE",
"217.667 0 OFFCURVE",
"285 0 CURVE SMOOTH"
);
}
);
};
layerId = "B309FD91-69BF-47D2-8142-D25EBE917F3C";
width = 600;
},
{
background = {
paths = (
{
closed = 1;
nodes = (
"333 0 OFFCURVE",
"348 12.667 OFFCURVE",
"348 38 CURVE SMOOTH",
"348 60.667 OFFCURVE",
"333 72 OFFCURVE",
"303 72 CURVE SMOOTH",
"184.333 72 OFFCURVE",
"152 86.333 OFFCURVE",
"152 181 CURVE SMOOTH",
"152 389 LINE",
"280 389 LINE SMOOTH",
"310.667 389 OFFCURVE",
"326 400.333 OFFCURVE",
"326 423 CURVE SMOOTH",
"326 448.333 OFFCURVE",
"310.667 461 OFFCURVE",
"280 461 CURVE SMOOTH",
"152 461 LINE",
"152 555 LINE SMOOTH",
"152 585.667 OFFCURVE",
"139.333 601 OFFCURVE",
"114 601 CURVE SMOOTH",
"91.333 601 OFFCURVE",
"80 585.667 OFFCURVE",
"80 555 CURVE SMOOTH",
"80 460 LINE",
"38.667 453.333 OFFCURVE",
"38.667 400.667 OFFCURVE",
"80 394 CURVE",
"80 178 LINE SMOOTH",
"80 40.667 OFFCURVE",
"152.333 0 OFFCURVE",
"303 0 CURVE SMOOTH"
);
}
);
};
layerId = "3776B938-A14A-42B9-91A8-ACB6A1608662";
width = 600;
}
);
unicode = 0074;
},
{
glyphname = u;
lastChange = "2016-07-15 20:54:10 +0000";
layers = (
{
components = (
{
name = n;
transform = "{-1, 0, 0, -1, 584, 461}";
}
);
layerId = "0E6FACCE-B85C-44A4-8B06-9EFDFED90B40";
width = 584;
},
{
background = {
paths = (
{
closed = 1;
nodes = (
"507.667 -7 OFFCURVE",
"514 3.333 OFFCURVE",
"514 24 CURVE SMOOTH",
"514 438 LINE SMOOTH",
"514 478 OFFCURVE",
"472 478 OFFCURVE",
"472 438 CURVE SMOOTH",
"472 228 LINE SMOOTH",
"472 108 OFFCURVE",
"412.333 42 OFFCURVE",
"307 42 CURVE SMOOTH",
"278 42 LINE SMOOTH",
"165.186 42 OFFCURVE",
"112 52.983 OFFCURVE",
"112 175 CURVE SMOOTH",
"112 438 LINE SMOOTH",
"112 478 OFFCURVE",
"70 478 OFFCURVE",
"70 438 CURVE SMOOTH",
"70 175 LINE SMOOTH",
"70 35 OFFCURVE",
"136.667 0 OFFCURVE",
"278 0 CURVE SMOOTH",
"307 0 LINE SMOOTH",
"381 0 OFFCURVE",
"436 24 OFFCURVE",
"472 72 CURVE",
"472 24 LINE SMOOTH",
"472 3.333 OFFCURVE",
"479.667 -7 OFFCURVE",
"495 -7 CURVE SMOOTH"
);
}
);
};
layerId = "B309FD91-69BF-47D2-8142-D25EBE917F3C";
width = 600;
},
{
background = {
paths = (
{
closed = 1;
nodes = (
"592.667 -7 OFFCURVE",
"604 7.333 OFFCURVE",
"604 36 CURVE SMOOTH",
"604 426 LINE SMOOTH",
"604 454 OFFCURVE",
"592 468 OFFCURVE",
"568 468 CURVE SMOOTH",
"544 468 OFFCURVE",
"532 454 OFFCURVE",
"532 426 CURVE SMOOTH",
"532 232 LINE SMOOTH",
"532 137.333 OFFCURVE",
"488.333 72 OFFCURVE",
"351 72 CURVE SMOOTH",
"322 72 LINE SMOOTH",
"174 72 OFFCURVE",
"142 85 OFFCURVE",
"142 181 CURVE SMOOTH",
"142 426 LINE SMOOTH",
"142 454 OFFCURVE",
"130 468 OFFCURVE",
"106 468 CURVE SMOOTH",
"82 468 OFFCURVE",
"70 454 OFFCURVE",
"70 426 CURVE SMOOTH",
"70 178 LINE SMOOTH",
"70 38 OFFCURVE",
"143.333 0 OFFCURVE",
"322 0 CURVE SMOOTH",
"351 0 LINE SMOOTH",
"430.333 0 OFFCURVE",
"490.667 16.667 OFFCURVE",
"532 50 CURVE",
"532 39 LINE SMOOTH",
"532 8.333 OFFCURVE",
"544.667 -7 OFFCURVE",
"570 -7 CURVE SMOOTH"
);
}
);
};
layerId = "3776B938-A14A-42B9-91A8-ACB6A1608662";
width = 600;
}
);
unicode = 0075;
},
{
glyphname = v;
lastChange = "2016-07-15 20:54:10 +0000";
layers = (
{
layerId = "0E6FACCE-B85C-44A4-8B06-9EFDFED90B40";
paths = (
{
closed = 0;
nodes = (
"40 448 LINE",
"232 7 LINE"
);
},
{
closed = 0;
nodes = (
"449 445 LINE",
"243 7 LINE"
);
}
);
width = 489;
},
{
background = {
paths = (
{
closed = 1;
nodes = (
"276 0 LINE",
"469 439 LINE",
"471 441 OFFCURVE",
"472 444.667 OFFCURVE",
"472 450 CURVE SMOOTH",
"472 462 OFFCURVE",
"465.667 468 OFFCURVE",
"453 468 CURVE SMOOTH",
"443.667 468 OFFCURVE",
"436 462 OFFCURVE",
"430 450 CURVE SMOOTH",
"250 46 LINE",
"243 46 LINE",
"70 449 LINE SMOOTH",
"64.667 461.667 OFFCURVE",
"58 468 OFFCURVE",
"50 468 CURVE SMOOTH",
"35.333 468 OFFCURVE",
"28 461.667 OFFCURVE",
"28 449 CURVE SMOOTH",
"28 443.667 OFFCURVE",
"29 440.333 OFFCURVE",
"31 439 CURVE",
"212 0 LINE"
);
}
);
};
layerId = "B309FD91-69BF-47D2-8142-D25EBE917F3C";
width = 600;
},
{
background = {
paths = (
{
closed = 1;
nodes = (
"309 0 LINE",
"500 432 LINE SMOOTH",
"502.667 438 OFFCURVE",
"504 444 OFFCURVE",
"504 450 CURVE SMOOTH",
"504 472 OFFCURVE",
"492.667 483 OFFCURVE",
"470 483 CURVE SMOOTH",
"452.667 483 OFFCURVE",
"440 474 OFFCURVE",
"432 456 CURVE SMOOTH",
"264 76 LINE",
"102 455 LINE",
"92.667 473.667 OFFCURVE",
"80 483 OFFCURVE",
"64 483 CURVE SMOOTH",
"31.678 483 OFFCURVE",
"25.777 452.558 OFFCURVE",
"34 432 CURVE SMOOTH",
"214 0 LINE"
);
}
);
};
layerId = "3776B938-A14A-42B9-91A8-ACB6A1608662";
width = 600;
}
);
unicode = 0076;
},
{
glyphname = w;
lastChange = "2016-07-15 20:54:10 +0000";
layers = (
{
layerId = "0E6FACCE-B85C-44A4-8B06-9EFDFED90B40";
paths = (
{
closed = 0;
nodes = (
"65 448 LINE",
"205 7 LINE"
);
},
{
closed = 0;
nodes = (
"373 425 LINE",
"216 7 LINE"
);
},
{
closed = 0;
nodes = (
"366 428 LINE",
"510 7 LINE"
);
},
{
closed = 0;
nodes = (
"669 445 LINE",
"521 7 LINE"
);
}
);
width = 734;
},
{
background = {
paths = (
{
closed = 1;
nodes = (
"250 0 LINE",
"386 384 LINE",
"512 0 LINE",
"583 0 LINE",
"738 439 LINE",
"740.667 441.667 OFFCURVE",
"742 445.667 OFFCURVE",
"742 451 CURVE SMOOTH",
"742 460.333 OFFCURVE",
"724.667 468 OFFCURVE",
"714 468 CURVE SMOOTH",
"706.667 468 OFFCURVE",
"701 462 OFFCURVE",
"697 450 CURVE SMOOTH",
"552 46 LINE",
"546 46 LINE",
"408 450 LINE",
"401.333 472.667 OFFCURVE",
"368 472.667 OFFCURVE",
"364 450 CURVE",
"220 46 LINE",
"214 46 LINE",
"75 449 LINE SMOOTH",
"70.333 461.667 OFFCURVE",
"64.667 468 OFFCURVE",
"58 468 CURVE SMOOTH",
"39.613 468 OFFCURVE",
"22.358 442.881 OFFCURVE",
"34 439 CURVE",
"179 0 LINE"
);
}
);
};
layerId = "B309FD91-69BF-47D2-8142-D25EBE917F3C";
width = 600;
},
{
background = {
paths = (
{
closed = 1;
nodes = (
"277 0 LINE",
"418 354 LINE",
"547 0 LINE",
"642 0 LINE",
"799 424 LINE SMOOTH",
"801.667 432 OFFCURVE",
"803 438 OFFCURVE",
"803 442 CURVE SMOOTH",
"803 462.667 OFFCURVE",
"791.667 473 OFFCURVE",
"769 473 CURVE SMOOTH",
"751 473 OFFCURVE",
"738.333 463.667 OFFCURVE",
"731 445 CURVE SMOOTH",
"596 68 LINE",
"458 440 LINE SMOOTH",
"444.667 476 OFFCURVE",
"391.333 476 OFFCURVE",
"378 440 CURVE SMOOTH",
"234 68 LINE",
"104 445 LINE",
"96.667 463.667 OFFCURVE",
"84 473 OFFCURVE",
"66 473 CURVE SMOOTH",
"43.333 473 OFFCURVE",
"32 462.667 OFFCURVE",
"32 442 CURVE SMOOTH",
"32 438 OFFCURVE",
"33.333 432 OFFCURVE",
"36 424 CURVE SMOOTH",
"184 0 LINE"
);
}
);
};
layerId = "3776B938-A14A-42B9-91A8-ACB6A1608662";
width = 600;
}
);
unicode = 0077;
},
{
glyphname = x;
lastChange = "2016-07-15 20:54:10 +0000";
layers = (
{
layerId = "0E6FACCE-B85C-44A4-8B06-9EFDFED90B40";
paths = (
{
closed = 0;
nodes = (
"45 454 LINE",
"420 6 LINE"
);
},
{
closed = 0;
nodes = (
"45 9 LINE",
"427 454 LINE"
);
}
);
width = 472;
},
{
background = {
paths = (
{
closed = 1;
nodes = (
"429 -12 LINE",
"434.333 -12 OFFCURVE",
"439 -10 OFFCURVE",
"443 -6 CURVE SMOOTH",
"452.333 2 OFFCURVE",
"453 11.667 OFFCURVE",
"441 29 CURVE",
"271 230 LINE",
"441 433 LINE SMOOTH",
"462.866 459.726 OFFCURVE",
"433.684 488.421 OFFCURVE",
"410 460 CURVE SMOOTH",
"245 263 LINE",
"79 460 LINE",
"64.333 476 OFFCURVE",
"54.667 474 OFFCURVE",
"44 466 CURVE",
"36 458 OFFCURVE",
"35 447.667 OFFCURVE",
"47 433 CURVE SMOOTH",
"217 230 LINE",
"47 29 LINE",
"25.863 -1.532 OFFCURVE",
"54.591 -28.291 OFFCURVE",
"79 1 CURVE SMOOTH",
"245 198 LINE",
"410 1 LINE SMOOTH",
"416.667 -7.667 OFFCURVE",
"422.667 -12 OFFCURVE",
"428 -12 CURVE"
);
}
);
};
layerId = "B309FD91-69BF-47D2-8142-D25EBE917F3C";
width = 600;
},
{
background = {
paths = (
{
closed = 1;
nodes = (
"280 186 LINE",
"448 1 LINE",
"482.895 -33.895 OFFCURVE",
"540.34 12.66 OFFCURVE",
"503 50 CURVE",
"332 230 LINE",
"503 411 LINE SMOOTH",
"539.012 450.013 OFFCURVE",
"483.456 495.456 OFFCURVE",
"448 460 CURVE",
"280 275 LINE",
"111 460 LINE",
"75.07 495.93 OFFCURVE",
"18.926 450.08 OFFCURVE",
"55 411 CURVE SMOOTH",
"226 230 LINE",
"55 50 LINE",
"17.552 12.552 OFFCURVE",
"75.663 -34.337 OFFCURVE",
"111 1 CURVE"
);
}
);
};
layerId = "3776B938-A14A-42B9-91A8-ACB6A1608662";
width = 600;
}
);
unicode = 0078;
},
{
glyphname = y;
lastChange = "2016-07-15 20:54:10 +0000";
layers = (
{
layerId = "0E6FACCE-B85C-44A4-8B06-9EFDFED90B40";
paths = (
{
closed = 0;
nodes = (
"497 441 LINE",
"497 0 LINE",
"497 -71 LINE",
"497 -147 OFFCURVE",
"463 -182 OFFCURVE",
"388 -182 CURVE",
"216 -182 LINE",
"136 -182 OFFCURVE",
"100 -151 OFFCURVE",
"100 -84 CURVE"
);
},
{
closed = 0;
nodes = (
"113 441 LINE",
"113 150 LINE",
"113 61 OFFCURVE",
"170 20 OFFCURVE",
"295 20 CURVE SMOOTH",
"434 20 OFFCURVE",
"497 75 OFFCURVE",
"497 194 CURVE"
);
}
);
width = 597;
},
{
background = {
paths = (
{
closed = 1;
nodes = (
"162.333 -205 OFFCURVE",
"163.667 -205 OFFCURVE",
"165 -205 CURVE",
"428 -205 LINE SMOOTH",
"494.667 -205 OFFCURVE",
"514 -177.333 OFFCURVE",
"514 -92 CURVE SMOOTH",
"514 436 LINE SMOOTH",
"514 478.667 OFFCURVE",
"472 478.667 OFFCURVE",
"472 436 CURVE SMOOTH",
"472 228 LINE SMOOTH",
"472 108 OFFCURVE",
"412.333 42 OFFCURVE",
"307 42 CURVE SMOOTH",
"278 42 LINE SMOOTH",
"165.186 42 OFFCURVE",
"112 52.983 OFFCURVE",
"112 175 CURVE SMOOTH",
"112 436 LINE SMOOTH",
"112 478.667 OFFCURVE",
"70 478.667 OFFCURVE",
"70 436 CURVE SMOOTH",
"70 175 LINE SMOOTH",
"70 35 OFFCURVE",
"136.667 0 OFFCURVE",
"278 0 CURVE SMOOTH",
"307 0 LINE SMOOTH",
"381 0 OFFCURVE",
"436 24 OFFCURVE",
"472 72 CURVE",
"472 -108 LINE SMOOTH",
"472 -150.667 OFFCURVE",
"462.333 -163 OFFCURVE",
"421 -163 CURVE SMOOTH",
"172 -163 LINE SMOOTH",
"126.667 -163 OFFCURVE",
"112 -142.667 OFFCURVE",
"112 -100 CURVE SMOOTH",
"112 -78.667 OFFCURVE",
"105 -68 OFFCURVE",
"91 -68 CURVE SMOOTH",
"63 -68 OFFCURVE",
"64.667 -129 OFFCURVE",
"86 -173 CURVE SMOOTH",
"96 -194.333 OFFCURVE",
"121 -205 OFFCURVE",
"161 -205 CURVE"
);
}
);
};
layerId = "B309FD91-69BF-47D2-8142-D25EBE917F3C";
width = 600;
},
{
background = {
paths = (
{
closed = 1;
nodes = (
"503 -205 LINE SMOOTH",
"580.333 -205 OFFCURVE",
"604 -169 OFFCURVE",
"604 -77 CURVE SMOOTH",
"604 426 LINE SMOOTH",
"604 454 OFFCURVE",
"592 468 OFFCURVE",
"568 468 CURVE SMOOTH",
"544 468 OFFCURVE",
"532 454 OFFCURVE",
"532 426 CURVE SMOOTH",
"532 232 LINE SMOOTH",
"532 125.333 OFFCURVE",
"471.667 72 OFFCURVE",
"351 72 CURVE SMOOTH",
"322 72 LINE SMOOTH",
"174 72 OFFCURVE",
"142 85 OFFCURVE",
"142 181 CURVE SMOOTH",
"142 426 LINE SMOOTH",
"142 454 OFFCURVE",
"130 468 OFFCURVE",
"106 468 CURVE SMOOTH",
"82 468 OFFCURVE",
"70 454 OFFCURVE",
"70 426 CURVE SMOOTH",
"70 178 LINE SMOOTH",
"70 38 OFFCURVE",
"143.333 0 OFFCURVE",
"322 0 CURVE SMOOTH",
"351 0 LINE SMOOTH",
"430.333 0 OFFCURVE",
"490.667 16.667 OFFCURVE",
"532 50 CURVE",
"532 -93 LINE SMOOTH",
"532 -126.333 OFFCURVE",
"526.667 -133 OFFCURVE",
"496 -133 CURVE SMOOTH",
"187 -133 LINE SMOOTH",
"151 -133 OFFCURVE",
"142 -121 OFFCURVE",
"142 -81 CURVE SMOOTH",
"142 -52.333 OFFCURVE",
"130 -38 OFFCURVE",
"106 -38 CURVE SMOOTH",
"82 -38 OFFCURVE",
"70 -54.667 OFFCURVE",
"70 -88 CURVE SMOOTH",
"70 -154.667 OFFCURVE",
"93.333 -205 OFFCURVE",
"180 -205 CURVE SMOOTH"
);
}
);
};
layerId = "3776B938-A14A-42B9-91A8-ACB6A1608662";
width = 600;
}
);
leftMetricsKey = u;
rightMetricsKey = u;
unicode = 0079;
},
{
glyphname = z;
lastChange = "2016-07-15 20:54:10 +0000";
layers = (
{
guideLines = (
{
angle = 90;
position = "{476, 50}";
}
);
layerId = "0E6FACCE-B85C-44A4-8B06-9EFDFED90B40";
paths = (
{
closed = 0;
nodes = (
"90 338 LINE",
"90 411.55 OFFCURVE",
"119.15 441 OFFCURVE",
"192 441 CURVE",
"447 441 LINE",
"105 20 LINE",
"378 20 LINE",
"448 20 OFFCURVE",
"476 48.85 OFFCURVE",
"476 121 CURVE"
);
}
);
width = 516;
},
{
background = {
paths = (
{
closed = 1;
nodes = (
"385 0 LINE SMOOTH",
"457 0 OFFCURVE",
"480 30.667 OFFCURVE",
"480 124 CURVE SMOOTH",
"480 145.333 OFFCURVE",
"473 156 OFFCURVE",
"459 156 CURVE",
"458 156 LINE",
"431.333 156 OFFCURVE",
"438.833 100.833 OFFCURVE",
"435.5 81.5 CURVE SMOOTH",
"432.167 62.167 OFFCURVE",
"414.333 42 OFFCURVE",
"377 42 CURVE SMOOTH",
"108 42 LINE",
"459 399 LINE",
"459 461 LINE",
"153 461 LINE SMOOTH",
"79.667 461 OFFCURVE",
"58 430.333 OFFCURVE",
"58 337 CURVE SMOOTH",
"58 295.667 OFFCURVE",
"100 294 OFFCURVE",
"100 342 CURVE SMOOTH",
"100 390 OFFCURVE",
"108 419 OFFCURVE",
"160 419 CURVE SMOOTH",
"412 419 LINE",
"58 59 LINE",
"58 0 LINE"
);
}
);
};
layerId = "B309FD91-69BF-47D2-8142-D25EBE917F3C";
width = 600;
},
{
background = {
paths = (
{
closed = 1;
nodes = (
"432 0 LINE SMOOTH",
"516 0 OFFCURVE",
"542 40.333 OFFCURVE",
"542 139 CURVE SMOOTH",
"542 170.333 OFFCURVE",
"530 186 OFFCURVE",
"506 186 CURVE",
"505 186 LINE",
"481.667 186 OFFCURVE",
"470 172 OFFCURVE",
"470 144 CURVE SMOOTH",
"470 116 OFFCURVE",
"467.333 97 OFFCURVE",
"462 87 CURVE SMOOTH",
"456.667 77 OFFCURVE",
"444 72 OFFCURVE",
"424 72 CURVE SMOOTH",
"162 72 LINE",
"521 384 LINE",
"521 461 LINE",
"170 461 LINE SMOOTH",
"84.667 461 OFFCURVE",
"60 422 OFFCURVE",
"60 322 CURVE SMOOTH",
"60 291.333 OFFCURVE",
"72 276 OFFCURVE",
"96 276 CURVE SMOOTH",
"120 276 OFFCURVE",
"132 290.333 OFFCURVE",
"132 319 CURVE SMOOTH",
"132 376.333 OFFCURVE",
"139.667 389 OFFCURVE",
"177 389 CURVE SMOOTH",
"422 389 LINE",
"60 74 LINE",
"60 0 LINE"
);
}
);
};
layerId = "3776B938-A14A-42B9-91A8-ACB6A1608662";
width = 600;
}
);
unicode = 007A;
},
{
color = 9;
glyphname = zerokayahli;
lastChange = "2016-07-15 20:17:18 +0000";
layers = (
{
background = {
paths = (
{
closed = 1;
nodes = (
"430 -15 LINE SMOOTH",
"514 -15 OFFCURVE",
"540 25.333 OFFCURVE",
"540 124 CURVE SMOOTH",
"540 337 LINE SMOOTH",
"540 435.667 OFFCURVE",
"514 476 OFFCURVE",
"430 476 CURVE SMOOTH",
"176 476 LINE SMOOTH",
"92 476 OFFCURVE",
"66 435.667 OFFCURVE",
"66 337 CURVE SMOOTH",
"66 124 LINE SMOOTH",
"66 25.333 OFFCURVE",
"92 -15 OFFCURVE",
"176 -15 CURVE SMOOTH"
);
},
{
closed = 1;
nodes = (
"147 57 OFFCURVE",
"138 68 OFFCURVE",
"138 108 CURVE SMOOTH",
"138 352 LINE SMOOTH",
"138 392 OFFCURVE",
"147 403 OFFCURVE",
"183 403 CURVE SMOOTH",
"423 403 LINE SMOOTH",
"459 403 OFFCURVE",
"468 392 OFFCURVE",
"468 352 CURVE SMOOTH",
"468 108 LINE SMOOTH",
"468 68 OFFCURVE",
"459 57 OFFCURVE",
"423 57 CURVE SMOOTH",
"183 57 LINE SMOOTH"
);
}
);
};
layerId = "B309FD91-69BF-47D2-8142-D25EBE917F3C";
paths = (
{
closed = 1;
nodes = (
"434 0 LINE SMOOTH",
"507.333 0 OFFCURVE",
"529 30.667 OFFCURVE",
"529 124 CURVE SMOOTH",
"529 337 LINE SMOOTH",
"529 430.333 OFFCURVE",
"507.333 461 OFFCURVE",
"434 461 CURVE SMOOTH",
"180 461 LINE SMOOTH",
"106.667 461 OFFCURVE",
"85 430.333 OFFCURVE",
"85 337 CURVE SMOOTH",
"85 124 LINE SMOOTH",
"85 30.667 OFFCURVE",
"106.667 0 OFFCURVE",
"180 0 CURVE SMOOTH"
);
},
{
closed = 1;
nodes = (
"141.667 42 OFFCURVE",
"127 60 OFFCURVE",
"127 108 CURVE SMOOTH",
"127 352 LINE SMOOTH",
"127 400 OFFCURVE",
"141.667 418 OFFCURVE",
"187 418 CURVE SMOOTH",
"427 418 LINE SMOOTH",
"472.333 418 OFFCURVE",
"487 400 OFFCURVE",
"487 352 CURVE SMOOTH",
"487 108 LINE SMOOTH",
"487 60 OFFCURVE",
"472.333 42 OFFCURVE",
"427 42 CURVE SMOOTH",
"187 42 LINE SMOOTH"
);
}
);
width = 614;
},
{
background = {
paths = (
{
closed = 1;
nodes = (
"430 -15 LINE SMOOTH",
"514 -15 OFFCURVE",
"540 25.333 OFFCURVE",
"540 124 CURVE SMOOTH",
"540 337 LINE SMOOTH",
"540 435.667 OFFCURVE",
"514 476 OFFCURVE",
"430 476 CURVE SMOOTH",
"176 476 LINE SMOOTH",
"92 476 OFFCURVE",
"66 435.667 OFFCURVE",
"66 337 CURVE SMOOTH",
"66 124 LINE SMOOTH",
"66 25.333 OFFCURVE",
"92 -15 OFFCURVE",
"176 -15 CURVE SMOOTH"
);
},
{
closed = 1;
nodes = (
"147 57 OFFCURVE",
"138 68 OFFCURVE",
"138 108 CURVE SMOOTH",
"138 352 LINE SMOOTH",
"138 392 OFFCURVE",
"147 403 OFFCURVE",
"183 403 CURVE SMOOTH",
"423 403 LINE SMOOTH",
"459 403 OFFCURVE",
"468 392 OFFCURVE",
"468 352 CURVE SMOOTH",
"468 108 LINE SMOOTH",
"468 68 OFFCURVE",
"459 57 OFFCURVE",
"423 57 CURVE SMOOTH",
"183 57 LINE SMOOTH"
);
}
);
};
layerId = "3776B938-A14A-42B9-91A8-ACB6A1608662";
paths = (
{
closed = 1;
nodes = (
"430 -15 LINE SMOOTH",
"514 -15 OFFCURVE",
"540 25.333 OFFCURVE",
"540 124 CURVE SMOOTH",
"540 337 LINE SMOOTH",
"540 435.667 OFFCURVE",
"514 476 OFFCURVE",
"430 476 CURVE SMOOTH",
"176 476 LINE SMOOTH",
"92 476 OFFCURVE",
"66 435.667 OFFCURVE",
"66 337 CURVE SMOOTH",
"66 124 LINE SMOOTH",
"66 25.333 OFFCURVE",
"92 -15 OFFCURVE",
"176 -15 CURVE SMOOTH"
);
},
{
closed = 1;
nodes = (
"147 57 OFFCURVE",
"138 68 OFFCURVE",
"138 108 CURVE SMOOTH",
"138 352 LINE SMOOTH",
"138 392 OFFCURVE",
"147 403 OFFCURVE",
"183 403 CURVE SMOOTH",
"423 403 LINE SMOOTH",
"459 403 OFFCURVE",
"468 392 OFFCURVE",
"468 352 CURVE SMOOTH",
"468 108 LINE SMOOTH",
"468 68 OFFCURVE",
"459 57 OFFCURVE",
"423 57 CURVE SMOOTH",
"183 57 LINE SMOOTH"
);
}
);
width = 606;
},
{
background = {
paths = (
{
closed = 1;
nodes = (
"434 0 LINE SMOOTH",
"507.333 0 OFFCURVE",
"529 30.667 OFFCURVE",
"529 124 CURVE SMOOTH",
"529 337 LINE SMOOTH",
"529 430.333 OFFCURVE",
"507.333 461 OFFCURVE",
"434 461 CURVE SMOOTH",
"180 461 LINE SMOOTH",
"106.667 461 OFFCURVE",
"85 430.333 OFFCURVE",
"85 337 CURVE SMOOTH",
"85 124 LINE SMOOTH",
"85 30.667 OFFCURVE",
"106.667 0 OFFCURVE",
"180 0 CURVE SMOOTH"
);
},
{
closed = 1;
nodes = (
"141.667 42 OFFCURVE",
"127 60 OFFCURVE",
"127 108 CURVE SMOOTH",
"127 352 LINE SMOOTH",
"127 400 OFFCURVE",
"141.667 418 OFFCURVE",
"187 418 CURVE SMOOTH",
"427 418 LINE SMOOTH",
"472.333 418 OFFCURVE",
"487 400 OFFCURVE",
"487 352 CURVE SMOOTH",
"487 108 LINE SMOOTH",
"487 60 OFFCURVE",
"472.333 42 OFFCURVE",
"427 42 CURVE SMOOTH",
"187 42 LINE SMOOTH"
);
}
);
};
layerId = "0E6FACCE-B85C-44A4-8B06-9EFDFED90B40";
width = 600;
}
);
unicode = A900;
},
{
color = 9;
glyphname = onekayahli;
lastChange = "2016-07-15 20:17:18 +0000";
layers = (
{
background = {
paths = (
{
closed = 1;
nodes = (
"429 -15 LINE SMOOTH",
"501.667 -15 OFFCURVE",
"538 21 OFFCURVE",
"538 93 CURVE SMOOTH",
"538 162.333 OFFCURVE",
"491.333 197 OFFCURVE",
"398 197 CURVE SMOOTH",
"341.333 197 OFFCURVE",
"280 150.333 OFFCURVE",
"214 57 CURVE",
"181 57 LINE SMOOTH",
"145 57 OFFCURVE",
"136 67.333 OFFCURVE",
"136 106 CURVE SMOOTH",
"136 185 LINE SMOOTH",
"136 223.667 OFFCURVE",
"145 233 OFFCURVE",
"181 233 CURVE SMOOTH",
"538 233 LINE",
"538 337 LINE SMOOTH",
"538 437 OFFCURVE",
"513.333 476 OFFCURVE",
"428 476 CURVE SMOOTH",
"174 476 LINE SMOOTH",
"98 476 OFFCURVE",
"64 440.667 OFFCURVE",
"64 354 CURVE SMOOTH",
"64 324 OFFCURVE",
"76 309 OFFCURVE",
"100 309 CURVE SMOOTH",
"124 309 OFFCURVE",
"136 324 OFFCURVE",
"136 354 CURVE SMOOTH",
"136 392.667 OFFCURVE",
"145 404 OFFCURVE",
"181 404 CURVE SMOOTH",
"421 404 LINE SMOOTH",
"457 404 OFFCURVE",
"466 392.667 OFFCURVE",
"466 354 CURVE SMOOTH",
"466 305 LINE",
"174 305 LINE SMOOTH",
"88.667 305 OFFCURVE",
"64 268 OFFCURVE",
"64 168 CURVE SMOOTH",
"64 124 LINE SMOOTH",
"64 24 OFFCURVE",
"88.667 -15 OFFCURVE",
"174 -15 CURVE SMOOTH"
);
},
{
closed = 1;
nodes = (
"346.333 102.333 OFFCURVE",
"376 125 OFFCURVE",
"398 125 CURVE SMOOTH",
"443.333 125 OFFCURVE",
"466 115 OFFCURVE",
"466 95 CURVE SMOOTH",
"466 68.333 OFFCURVE",
"457 57 OFFCURVE",
"421 57 CURVE SMOOTH",
"309 57 LINE"
);
}
);
};
layerId = "B309FD91-69BF-47D2-8142-D25EBE917F3C";
paths = (
{
closed = 1;
nodes = (
"435 0 LINE SMOOTH",
"497.667 0 OFFCURVE",
"529 31 OFFCURVE",
"529 93 CURVE SMOOTH",
"529 157 OFFCURVE",
"489.333 182 OFFCURVE",
"404 182 CURVE SMOOTH",
"349.333 182 OFFCURVE",
"291 135.333 OFFCURVE",
"229 42 CURVE",
"187 42 LINE SMOOTH",
"141.667 42 OFFCURVE",
"127 59.333 OFFCURVE",
"127 106 CURVE SMOOTH",
"127 185 LINE SMOOTH",
"127 231.667 OFFCURVE",
"141.667 248 OFFCURVE",
"187 248 CURVE SMOOTH",
"529 248 LINE",
"529 337 LINE SMOOTH",
"529 430.333 OFFCURVE",
"507.333 461 OFFCURVE",
"434 461 CURVE SMOOTH",
"180 461 LINE SMOOTH",
"112 461 OFFCURVE",
"85 431.333 OFFCURVE",
"85 354 CURVE SMOOTH",
"85 314 OFFCURVE",
"127 313.333 OFFCURVE",
"127 356 CURVE SMOOTH",
"127 377.333 OFFCURVE",
"131.333 393.333 OFFCURVE",
"140 404 CURVE SMOOTH",
"148 414 OFFCURVE",
"162.333 419 OFFCURVE",
"183 419 CURVE",
"184.333 419 OFFCURVE",
"185.667 419 OFFCURVE",
"187 419 CURVE",
"427 419 LINE SMOOTH",
"472.333 419 OFFCURVE",
"487 400.667 OFFCURVE",
"487 354 CURVE SMOOTH",
"487 290 LINE",
"180 290 LINE SMOOTH",
"106.667 290 OFFCURVE",
"85 261.333 OFFCURVE",
"85 168 CURVE SMOOTH",
"85 124 LINE SMOOTH",
"85 30.667 OFFCURVE",
"106.667 0 OFFCURVE",
"180 0 CURVE SMOOTH"
);
},
{
closed = 1;
nodes = (
"334.333 107.333 OFFCURVE",
"374.667 140 OFFCURVE",
"404 140 CURVE SMOOTH",
"459.333 140 OFFCURVE",
"487 125 OFFCURVE",
"487 95 CURVE SMOOTH",
"487 60.333 OFFCURVE",
"471 42 OFFCURVE",
"427 42 CURVE SMOOTH",
"283 42 LINE"
);
}
);
width = 614;
},
{
background = {
paths = (
{
closed = 1;
nodes = (
"429 -15 LINE SMOOTH",
"501.667 -15 OFFCURVE",
"538 21 OFFCURVE",
"538 93 CURVE SMOOTH",
"538 162.333 OFFCURVE",
"491.333 197 OFFCURVE",
"398 197 CURVE SMOOTH",
"341.333 197 OFFCURVE",
"280 150.333 OFFCURVE",
"214 57 CURVE",
"181 57 LINE SMOOTH",
"145 57 OFFCURVE",
"136 67.333 OFFCURVE",
"136 106 CURVE SMOOTH",
"136 185 LINE SMOOTH",
"136 223.667 OFFCURVE",
"145 233 OFFCURVE",
"181 233 CURVE SMOOTH",
"538 233 LINE",
"538 337 LINE SMOOTH",
"538 437 OFFCURVE",
"513.333 476 OFFCURVE",
"428 476 CURVE SMOOTH",
"174 476 LINE SMOOTH",
"98 476 OFFCURVE",
"64 440.667 OFFCURVE",
"64 354 CURVE SMOOTH",
"64 324 OFFCURVE",
"76 309 OFFCURVE",
"100 309 CURVE SMOOTH",
"124 309 OFFCURVE",
"136 324 OFFCURVE",
"136 354 CURVE SMOOTH",
"136 392.667 OFFCURVE",
"145 404 OFFCURVE",
"181 404 CURVE SMOOTH",
"421 404 LINE SMOOTH",
"457 404 OFFCURVE",
"466 392.667 OFFCURVE",
"466 354 CURVE SMOOTH",
"466 305 LINE",
"174 305 LINE SMOOTH",
"88.667 305 OFFCURVE",
"64 268 OFFCURVE",
"64 168 CURVE SMOOTH",
"64 124 LINE SMOOTH",
"64 24 OFFCURVE",
"88.667 -15 OFFCURVE",
"174 -15 CURVE SMOOTH"
);
},
{
closed = 1;
nodes = (
"346.333 102.333 OFFCURVE",
"376 125 OFFCURVE",
"398 125 CURVE SMOOTH",
"443.333 125 OFFCURVE",
"466 115 OFFCURVE",
"466 95 CURVE SMOOTH",
"466 68.333 OFFCURVE",
"457 57 OFFCURVE",
"421 57 CURVE SMOOTH",
"309 57 LINE"
);
}
);
};
layerId = "3776B938-A14A-42B9-91A8-ACB6A1608662";
paths = (
{
closed = 1;
nodes = (
"429 -15 LINE SMOOTH",
"501.667 -15 OFFCURVE",
"538 21 OFFCURVE",
"538 93 CURVE SMOOTH",
"538 162.333 OFFCURVE",
"491.333 197 OFFCURVE",
"398 197 CURVE SMOOTH",
"341.333 197 OFFCURVE",
"280 150.333 OFFCURVE",
"214 57 CURVE",
"181 57 LINE SMOOTH",
"145 57 OFFCURVE",
"136 67.333 OFFCURVE",
"136 106 CURVE SMOOTH",
"136 185 LINE SMOOTH",
"136 223.667 OFFCURVE",
"145 233 OFFCURVE",
"181 233 CURVE SMOOTH",
"538 233 LINE",
"538 337 LINE SMOOTH",
"538 437 OFFCURVE",
"513.333 476 OFFCURVE",
"428 476 CURVE SMOOTH",
"174 476 LINE SMOOTH",
"98 476 OFFCURVE",
"64 440.667 OFFCURVE",
"64 354 CURVE SMOOTH",
"64 324 OFFCURVE",
"76 309 OFFCURVE",
"100 309 CURVE SMOOTH",
"124 309 OFFCURVE",
"136 324 OFFCURVE",
"136 354 CURVE SMOOTH",
"136 392.667 OFFCURVE",
"145 404 OFFCURVE",
"181 404 CURVE SMOOTH",
"421 404 LINE SMOOTH",
"457 404 OFFCURVE",
"466 392.667 OFFCURVE",
"466 354 CURVE SMOOTH",
"466 305 LINE",
"174 305 LINE SMOOTH",
"88.667 305 OFFCURVE",
"64 268 OFFCURVE",
"64 168 CURVE SMOOTH",
"64 124 LINE SMOOTH",
"64 24 OFFCURVE",
"88.667 -15 OFFCURVE",
"174 -15 CURVE SMOOTH"
);
},
{
closed = 1;
nodes = (
"346.333 102.333 OFFCURVE",
"376 125 OFFCURVE",
"398 125 CURVE SMOOTH",
"443.333 125 OFFCURVE",
"466 115 OFFCURVE",
"466 95 CURVE SMOOTH",
"466 68.333 OFFCURVE",
"457 57 OFFCURVE",
"421 57 CURVE SMOOTH",
"309 57 LINE"
);
}
);
width = 601;
},
{
background = {
paths = (
{
closed = 1;
nodes = (
"435 0 LINE SMOOTH",
"497.667 0 OFFCURVE",
"529 31 OFFCURVE",
"529 93 CURVE SMOOTH",
"529 157 OFFCURVE",
"489.333 182 OFFCURVE",
"404 182 CURVE SMOOTH",
"349.333 182 OFFCURVE",
"291 135.333 OFFCURVE",
"229 42 CURVE",
"187 42 LINE SMOOTH",
"141.667 42 OFFCURVE",
"127 59.333 OFFCURVE",
"127 106 CURVE SMOOTH",
"127 185 LINE SMOOTH",
"127 231.667 OFFCURVE",
"141.667 248 OFFCURVE",
"187 248 CURVE SMOOTH",
"529 248 LINE",
"529 337 LINE SMOOTH",
"529 430.333 OFFCURVE",
"507.333 461 OFFCURVE",
"434 461 CURVE SMOOTH",
"180 461 LINE SMOOTH",
"112 461 OFFCURVE",
"85 431.333 OFFCURVE",
"85 354 CURVE SMOOTH",
"85 314 OFFCURVE",
"127 313.333 OFFCURVE",
"127 356 CURVE SMOOTH",
"127 377.333 OFFCURVE",
"131.333 393.333 OFFCURVE",
"140 404 CURVE SMOOTH",
"148 414 OFFCURVE",
"162.333 419 OFFCURVE",
"183 419 CURVE",
"184.333 419 OFFCURVE",
"185.667 419 OFFCURVE",
"187 419 CURVE",
"427 419 LINE SMOOTH",
"472.333 419 OFFCURVE",
"487 400.667 OFFCURVE",
"487 354 CURVE SMOOTH",
"487 290 LINE",
"180 290 LINE SMOOTH",
"106.667 290 OFFCURVE",
"85 261.333 OFFCURVE",
"85 168 CURVE SMOOTH",
"85 124 LINE SMOOTH",
"85 30.667 OFFCURVE",
"106.667 0 OFFCURVE",
"180 0 CURVE SMOOTH"
);
},
{
closed = 1;
nodes = (
"334.333 107.333 OFFCURVE",
"374.667 140 OFFCURVE",
"404 140 CURVE SMOOTH",
"459.333 140 OFFCURVE",
"487 125 OFFCURVE",
"487 95 CURVE SMOOTH",
"487 60.333 OFFCURVE",
"471 42 OFFCURVE",
"427 42 CURVE SMOOTH",
"283 42 LINE"
);
}
);
};
layerId = "0E6FACCE-B85C-44A4-8B06-9EFDFED90B40";
width = 600;
}
);
unicode = A901;
},
{
color = 9;
glyphname = twokayahli;
lastChange = "2016-07-15 20:17:18 +0000";
layers = (
{
background = {
paths = (
{
closed = 1;
nodes = (
"301 -15 LINE",
"499 432 LINE SMOOTH",
"501.667 438 OFFCURVE",
"503 444 OFFCURVE",
"503 450 CURVE SMOOTH",
"503 472 OFFCURVE",
"491.667 483 OFFCURVE",
"469 483 CURVE SMOOTH",
"451.667 483 OFFCURVE",
"439 474 OFFCURVE",
"431 456 CURVE SMOOTH",
"263 76 LINE",
"101 455 LINE",
"91.667 473.667 OFFCURVE",
"79 483 OFFCURVE",
"63 483 CURVE SMOOTH",
"30.678 483 OFFCURVE",
"24.777 452.558 OFFCURVE",
"33 432 CURVE SMOOTH",
"219 -15 LINE"
);
}
);
};
layerId = "B309FD91-69BF-47D2-8142-D25EBE917F3C";
paths = (
{
closed = 1;
nodes = (
"333 0 LINE",
"526 439 LINE",
"528 441 OFFCURVE",
"529 444.667 OFFCURVE",
"529 450 CURVE SMOOTH",
"529 462 OFFCURVE",
"522.667 468 OFFCURVE",
"510 468 CURVE SMOOTH",
"500.667 468 OFFCURVE",
"493 462 OFFCURVE",
"487 450 CURVE SMOOTH",
"307 46 LINE",
"300 46 LINE",
"127 449 LINE",
"122.333 461.667 OFFCURVE",
"116 468 OFFCURVE",
"108 468 CURVE SMOOTH",
"92.667 468 OFFCURVE",
"85 461.667 OFFCURVE",
"85 449 CURVE SMOOTH",
"85 443.667 OFFCURVE",
"86 440.333 OFFCURVE",
"88 439 CURVE",
"269 0 LINE"
);
}
);
width = 614;
},
{
background = {
paths = (
{
closed = 1;
nodes = (
"301 -15 LINE",
"499 432 LINE SMOOTH",
"501.667 438 OFFCURVE",
"503 444 OFFCURVE",
"503 450 CURVE SMOOTH",
"503 472 OFFCURVE",
"491.667 483 OFFCURVE",
"469 483 CURVE SMOOTH",
"451.667 483 OFFCURVE",
"439 474 OFFCURVE",
"431 456 CURVE SMOOTH",
"263 76 LINE",
"101 455 LINE",
"91.667 473.667 OFFCURVE",
"79 483 OFFCURVE",
"63 483 CURVE SMOOTH",
"30.678 483 OFFCURVE",
"24.777 452.558 OFFCURVE",
"33 432 CURVE SMOOTH",
"219 -15 LINE"
);
}
);
};
layerId = "3776B938-A14A-42B9-91A8-ACB6A1608662";
paths = (
{
closed = 1;
nodes = (
"301 -15 LINE",
"499 432 LINE SMOOTH",
"501.667 438 OFFCURVE",
"503 444 OFFCURVE",
"503 450 CURVE SMOOTH",
"503 472 OFFCURVE",
"491.667 483 OFFCURVE",
"469 483 CURVE SMOOTH",
"451.667 483 OFFCURVE",
"439 474 OFFCURVE",
"431 456 CURVE SMOOTH",
"263 76 LINE",
"101 455 LINE",
"91.667 473.667 OFFCURVE",
"79 483 OFFCURVE",
"63 483 CURVE SMOOTH",
"30.678 483 OFFCURVE",
"24.777 452.558 OFFCURVE",
"33 432 CURVE SMOOTH",
"219 -15 LINE"
);
}
);
width = 531;
},
{
background = {
paths = (
{
closed = 1;
nodes = (
"333 0 LINE",
"526 439 LINE",
"528 441 OFFCURVE",
"529 444.667 OFFCURVE",
"529 450 CURVE SMOOTH",
"529 462 OFFCURVE",
"522.667 468 OFFCURVE",
"510 468 CURVE SMOOTH",
"500.667 468 OFFCURVE",
"493 462 OFFCURVE",
"487 450 CURVE SMOOTH",
"307 46 LINE",
"300 46 LINE",
"127 449 LINE",
"122.333 461.667 OFFCURVE",
"116 468 OFFCURVE",
"108 468 CURVE SMOOTH",
"92.667 468 OFFCURVE",
"85 461.667 OFFCURVE",
"85 449 CURVE SMOOTH",
"85 443.667 OFFCURVE",
"86 440.333 OFFCURVE",
"88 439 CURVE",
"269 0 LINE"
);
}
);
};
layerId = "0E6FACCE-B85C-44A4-8B06-9EFDFED90B40";
width = 600;
}
);
unicode = A902;
},
{
color = 9;
glyphname = threekayahli;
lastChange = "2016-07-15 20:17:18 +0000";
layers = (
{
background = {
paths = (
{
closed = 1;
nodes = (
"427 -15 LINE SMOOTH",
"503 -15 OFFCURVE",
"536 19.333 OFFCURVE",
"536 106 CURVE SMOOTH",
"536 195 LINE",
"396 195 LINE SMOOTH",
"338 195 OFFCURVE",
"276.667 149 OFFCURVE",
"212 57 CURVE",
"179 57 LINE SMOOTH",
"141.667 57 OFFCURVE",
"134 68 OFFCURVE",
"134 108 CURVE",
"536 308 LINE",
"536 337 LINE SMOOTH",
"536 437 OFFCURVE",
"511.333 476 OFFCURVE",
"426 476 CURVE SMOOTH",
"172 476 LINE SMOOTH",
"86.667 476 OFFCURVE",
"62 437 OFFCURVE",
"62 337 CURVE SMOOTH",
"62 276 LINE",
"189 276 LINE SMOOTH",
"219 276 OFFCURVE",
"234 288 OFFCURVE",
"234 312 CURVE SMOOTH",
"234 336 OFFCURVE",
"219 348 OFFCURVE",
"189 348 CURVE SMOOTH",
"134 348 LINE",
"134 354 LINE SMOOTH",
"134 392.667 OFFCURVE",
"143 404 OFFCURVE",
"179 404 CURVE SMOOTH",
"419 404 LINE SMOOTH",
"457.667 404 OFFCURVE",
"464 391 OFFCURVE",
"464 351 CURVE",
"62 150 LINE",
"62 124 LINE SMOOTH",
"62 24 OFFCURVE",
"86.667 -15 OFFCURVE",
"172 -15 CURVE SMOOTH"
);
},
{
closed = 1;
nodes = (
"343.667 101 OFFCURVE",
"373.333 123 OFFCURVE",
"396 123 CURVE SMOOTH",
"464 123 LINE",
"464 95 LINE SMOOTH",
"464 68.333 OFFCURVE",
"455 57 OFFCURVE",
"419 57 CURVE SMOOTH",
"307 57 LINE"
);
}
);
};
layerId = "B309FD91-69BF-47D2-8142-D25EBE917F3C";
paths = (
{
closed = 1;
nodes = (
"435 0 LINE SMOOTH",
"503 0 OFFCURVE",
"529 30 OFFCURVE",
"529 106 CURVE SMOOTH",
"529 180 LINE",
"404 180 LINE SMOOTH",
"348.667 180 OFFCURVE",
"290.333 134 OFFCURVE",
"229 42 CURVE",
"187 42 LINE SMOOTH",
"141.667 42 OFFCURVE",
"127 59.333 OFFCURVE",
"127 106 CURVE SMOOTH",
"127 117 LINE",
"529 317 LINE",
"529 337 LINE SMOOTH",
"529 430.333 OFFCURVE",
"507.333 461 OFFCURVE",
"434 461 CURVE SMOOTH",
"180 461 LINE SMOOTH",
"106.667 461 OFFCURVE",
"85 430.333 OFFCURVE",
"85 337 CURVE SMOOTH",
"85 291 LINE",
"197 291 LINE SMOOTH",
"237 291 OFFCURVE",
"237 333 OFFCURVE",
"197 333 CURVE SMOOTH",
"127 333 LINE",
"127 354 LINE SMOOTH",
"127 400.667 OFFCURVE",
"141.667 419 OFFCURVE",
"187 419 CURVE SMOOTH",
"427 419 LINE SMOOTH",
"472.333 419 OFFCURVE",
"487 400.667 OFFCURVE",
"487 354 CURVE SMOOTH",
"487 342 LINE",
"85 141 LINE",
"85 124 LINE SMOOTH",
"85 30.667 OFFCURVE",
"106.667 0 OFFCURVE",
"180 0 CURVE SMOOTH"
);
},
{
closed = 1;
nodes = (
"333 106 OFFCURVE",
"373.333 138 OFFCURVE",
"404 138 CURVE SMOOTH",
"487 138 LINE",
"487 95 LINE SMOOTH",
"487 60.333 OFFCURVE",
"471 42 OFFCURVE",
"427 42 CURVE SMOOTH",
"283 42 LINE"
);
}
);
width = 614;
},
{
background = {
paths = (
{
closed = 1;
nodes = (
"427 -15 LINE SMOOTH",
"503 -15 OFFCURVE",
"536 19.333 OFFCURVE",
"536 106 CURVE SMOOTH",
"536 195 LINE",
"396 195 LINE SMOOTH",
"338 195 OFFCURVE",
"276.667 149 OFFCURVE",
"212 57 CURVE",
"179 57 LINE SMOOTH",
"141.667 57 OFFCURVE",
"134 68 OFFCURVE",
"134 108 CURVE",
"536 308 LINE",
"536 337 LINE SMOOTH",
"536 437 OFFCURVE",
"511.333 476 OFFCURVE",
"426 476 CURVE SMOOTH",
"172 476 LINE SMOOTH",
"86.667 476 OFFCURVE",
"62 437 OFFCURVE",
"62 337 CURVE SMOOTH",
"62 276 LINE",
"189 276 LINE SMOOTH",
"219 276 OFFCURVE",
"234 288 OFFCURVE",
"234 312 CURVE SMOOTH",
"234 336 OFFCURVE",
"219 348 OFFCURVE",
"189 348 CURVE SMOOTH",
"134 348 LINE",
"134 354 LINE SMOOTH",
"134 392.667 OFFCURVE",
"143 404 OFFCURVE",
"179 404 CURVE SMOOTH",
"419 404 LINE SMOOTH",
"457.667 404 OFFCURVE",
"464 391 OFFCURVE",
"464 351 CURVE",
"62 150 LINE",
"62 124 LINE SMOOTH",
"62 24 OFFCURVE",
"86.667 -15 OFFCURVE",
"172 -15 CURVE SMOOTH"
);
},
{
closed = 1;
nodes = (
"343.667 101 OFFCURVE",
"373.333 123 OFFCURVE",
"396 123 CURVE SMOOTH",
"464 123 LINE",
"464 95 LINE SMOOTH",
"464 68.333 OFFCURVE",
"455 57 OFFCURVE",
"419 57 CURVE SMOOTH",
"307 57 LINE"
);
}
);
};
layerId = "3776B938-A14A-42B9-91A8-ACB6A1608662";
paths = (
{
closed = 1;
nodes = (
"427 -15 LINE SMOOTH",
"503 -15 OFFCURVE",
"536 19.333 OFFCURVE",
"536 106 CURVE SMOOTH",
"536 195 LINE",
"396 195 LINE SMOOTH",
"338 195 OFFCURVE",
"276.667 149 OFFCURVE",
"212 57 CURVE",
"179 57 LINE SMOOTH",
"141.667 57 OFFCURVE",
"134 68 OFFCURVE",
"134 108 CURVE",
"536 308 LINE",
"536 337 LINE SMOOTH",
"536 437 OFFCURVE",
"511.333 476 OFFCURVE",
"426 476 CURVE SMOOTH",
"172 476 LINE SMOOTH",
"86.667 476 OFFCURVE",
"62 437 OFFCURVE",
"62 337 CURVE SMOOTH",
"62 276 LINE",
"189 276 LINE SMOOTH",
"219 276 OFFCURVE",
"234 288 OFFCURVE",
"234 312 CURVE SMOOTH",
"234 336 OFFCURVE",
"219 348 OFFCURVE",
"189 348 CURVE SMOOTH",
"134 348 LINE",
"134 354 LINE SMOOTH",
"134 392.667 OFFCURVE",
"143 404 OFFCURVE",
"179 404 CURVE SMOOTH",
"419 404 LINE SMOOTH",
"457.667 404 OFFCURVE",
"464 391 OFFCURVE",
"464 351 CURVE",
"62 150 LINE",
"62 124 LINE SMOOTH",
"62 24 OFFCURVE",
"86.667 -15 OFFCURVE",
"172 -15 CURVE SMOOTH"
);
},
{
closed = 1;
nodes = (
"343.667 101 OFFCURVE",
"373.333 123 OFFCURVE",
"396 123 CURVE SMOOTH",
"464 123 LINE",
"464 95 LINE SMOOTH",
"464 68.333 OFFCURVE",
"455 57 OFFCURVE",
"419 57 CURVE SMOOTH",
"307 57 LINE"
);
}
);
width = 599;
},
{
background = {
paths = (
{
closed = 1;
nodes = (
"435 0 LINE SMOOTH",
"503 0 OFFCURVE",
"529 30 OFFCURVE",
"529 106 CURVE SMOOTH",
"529 180 LINE",
"404 180 LINE SMOOTH",
"348.667 180 OFFCURVE",
"290.333 134 OFFCURVE",
"229 42 CURVE",
"187 42 LINE SMOOTH",
"141.667 42 OFFCURVE",
"127 59.333 OFFCURVE",
"127 106 CURVE SMOOTH",
"127 117 LINE",
"529 317 LINE",
"529 337 LINE SMOOTH",
"529 430.333 OFFCURVE",
"507.333 461 OFFCURVE",
"434 461 CURVE SMOOTH",
"180 461 LINE SMOOTH",
"106.667 461 OFFCURVE",
"85 430.333 OFFCURVE",
"85 337 CURVE SMOOTH",
"85 291 LINE",
"197 291 LINE SMOOTH",
"237 291 OFFCURVE",
"237 333 OFFCURVE",
"197 333 CURVE SMOOTH",
"127 333 LINE",
"127 354 LINE SMOOTH",
"127 400.667 OFFCURVE",
"141.667 419 OFFCURVE",
"187 419 CURVE SMOOTH",
"427 419 LINE SMOOTH",
"472.333 419 OFFCURVE",
"487 400.667 OFFCURVE",
"487 354 CURVE SMOOTH",
"487 342 LINE",
"85 141 LINE",
"85 124 LINE SMOOTH",
"85 30.667 OFFCURVE",
"106.667 0 OFFCURVE",
"180 0 CURVE SMOOTH"
);
},
{
closed = 1;
nodes = (
"333 106 OFFCURVE",
"373.333 138 OFFCURVE",
"404 138 CURVE SMOOTH",
"487 138 LINE",
"487 95 LINE SMOOTH",
"487 60.333 OFFCURVE",
"471 42 OFFCURVE",
"427 42 CURVE SMOOTH",
"283 42 LINE"
);
}
);
};
layerId = "0E6FACCE-B85C-44A4-8B06-9EFDFED90B40";
width = 600;
}
);
unicode = A903;
},
{
color = 9;
glyphname = fourkayahli;
lastChange = "2016-07-15 20:17:18 +0000";
layers = (
{
background = {
paths = (
{
closed = 1;
nodes = (
"468.333 -205 OFFCURVE",
"489 -200.667 OFFCURVE",
"513 -182 CURVE SMOOTH",
"536.333 -164.667 OFFCURVE",
"548 -126 OFFCURVE",
"548 -66 CURVE SMOOTH",
"548 337 LINE SMOOTH",
"548 437 OFFCURVE",
"523.333 476 OFFCURVE",
"438 476 CURVE SMOOTH",
"297 476 LINE SMOOTH",
"236.333 476 OFFCURVE",
"186 459.333 OFFCURVE",
"146 426 CURVE",
"146 438 LINE SMOOTH",
"146 468 OFFCURVE",
"134 483 OFFCURVE",
"110 483 CURVE SMOOTH",
"86 483 OFFCURVE",
"74 468 OFFCURVE",
"74 438 CURVE SMOOTH",
"74 -15 LINE",
"191 -15 LINE SMOOTH",
"221.667 -15 OFFCURVE",
"237 -3 OFFCURVE",
"237 21 CURVE SMOOTH",
"237 45 OFFCURVE",
"221.667 57 OFFCURVE",
"191 57 CURVE SMOOTH",
"146 57 LINE",
"146 232 LINE SMOOTH",
"146 344 OFFCURVE",
"197 404 OFFCURVE",
"297 404 CURVE SMOOTH",
"431 404 LINE SMOOTH",
"467 404 OFFCURVE",
"476 392.667 OFFCURVE",
"476 354 CURVE SMOOTH",
"476 -83 LINE SMOOTH",
"476 -121.667 OFFCURVE",
"467 -133 OFFCURVE",
"431 -133 CURVE SMOOTH",
"400.333 -133 OFFCURVE",
"385 -145 OFFCURVE",
"385 -169 CURVE SMOOTH",
"385 -193 OFFCURVE",
"400.333 -205 OFFCURVE",
"431 -205 CURVE SMOOTH"
);
}
);
};
layerId = "B309FD91-69BF-47D2-8142-D25EBE917F3C";
paths = (
{
closed = 1;
nodes = (
"496.333 -205 OFFCURVE",
"529 -183.667 OFFCURVE",
"529 -81 CURVE SMOOTH",
"529 337 LINE SMOOTH",
"529 430.333 OFFCURVE",
"507.333 461 OFFCURVE",
"434 461 CURVE SMOOTH",
"293 461 LINE SMOOTH",
"219.667 461 OFFCURVE",
"164.333 437 OFFCURVE",
"127 389 CURVE",
"127 438 LINE SMOOTH",
"127 478 OFFCURVE",
"85 478 OFFCURVE",
"85 438 CURVE SMOOTH",
"85 0 LINE",
"187 0 LINE SMOOTH",
"228.333 0 OFFCURVE",
"228.333 42 OFFCURVE",
"187 42 CURVE SMOOTH",
"127 42 LINE",
"127 232 LINE SMOOTH",
"127 352 OFFCURVE",
"186.333 419 OFFCURVE",
"293 419 CURVE SMOOTH",
"427 419 LINE SMOOTH",
"472.333 419 OFFCURVE",
"487 400.667 OFFCURVE",
"487 354 CURVE SMOOTH",
"487 -98 LINE SMOOTH",
"487 -144.667 OFFCURVE",
"470.667 -163 OFFCURVE",
"428 -163 CURVE SMOOTH",
"385.333 -163 OFFCURVE",
"385.667 -205 OFFCURVE",
"427 -205 CURVE SMOOTH"
);
}
);
width = 614;
},
{
background = {
paths = (
{
closed = 1;
nodes = (
"468.333 -205 OFFCURVE",
"489 -200.667 OFFCURVE",
"513 -182 CURVE SMOOTH",
"536.333 -164.667 OFFCURVE",
"548 -126 OFFCURVE",
"548 -66 CURVE SMOOTH",
"548 337 LINE SMOOTH",
"548 437 OFFCURVE",
"523.333 476 OFFCURVE",
"438 476 CURVE SMOOTH",
"297 476 LINE SMOOTH",
"236.333 476 OFFCURVE",
"186 459.333 OFFCURVE",
"146 426 CURVE",
"146 438 LINE SMOOTH",
"146 468 OFFCURVE",
"134 483 OFFCURVE",
"110 483 CURVE SMOOTH",
"86 483 OFFCURVE",
"74 468 OFFCURVE",
"74 438 CURVE SMOOTH",
"74 -15 LINE",
"191 -15 LINE SMOOTH",
"221.667 -15 OFFCURVE",
"237 -3 OFFCURVE",
"237 21 CURVE SMOOTH",
"237 45 OFFCURVE",
"221.667 57 OFFCURVE",
"191 57 CURVE SMOOTH",
"146 57 LINE",
"146 232 LINE SMOOTH",
"146 344 OFFCURVE",
"197 404 OFFCURVE",
"297 404 CURVE SMOOTH",
"431 404 LINE SMOOTH",
"467 404 OFFCURVE",
"476 392.667 OFFCURVE",
"476 354 CURVE SMOOTH",
"476 -83 LINE SMOOTH",
"476 -121.667 OFFCURVE",
"467 -133 OFFCURVE",
"431 -133 CURVE SMOOTH",
"400.333 -133 OFFCURVE",
"385 -145 OFFCURVE",
"385 -169 CURVE SMOOTH",
"385 -193 OFFCURVE",
"400.333 -205 OFFCURVE",
"431 -205 CURVE SMOOTH"
);
}
);
};
layerId = "3776B938-A14A-42B9-91A8-ACB6A1608662";
paths = (
{
closed = 1;
nodes = (
"468.333 -205 OFFCURVE",
"489 -200.667 OFFCURVE",
"513 -182 CURVE SMOOTH",
"536.333 -164.667 OFFCURVE",
"548 -126 OFFCURVE",
"548 -66 CURVE SMOOTH",
"548 337 LINE SMOOTH",
"548 437 OFFCURVE",
"523.333 476 OFFCURVE",
"438 476 CURVE SMOOTH",
"297 476 LINE SMOOTH",
"236.333 476 OFFCURVE",
"186 459.333 OFFCURVE",
"146 426 CURVE",
"146 438 LINE SMOOTH",
"146 468 OFFCURVE",
"134 483 OFFCURVE",
"110 483 CURVE SMOOTH",
"86 483 OFFCURVE",
"74 468 OFFCURVE",
"74 438 CURVE SMOOTH",
"74 -15 LINE",
"191 -15 LINE SMOOTH",
"221.667 -15 OFFCURVE",
"237 -3 OFFCURVE",
"237 21 CURVE SMOOTH",
"237 45 OFFCURVE",
"221.667 57 OFFCURVE",
"191 57 CURVE SMOOTH",
"146 57 LINE",
"146 232 LINE SMOOTH",
"146 344 OFFCURVE",
"197 404 OFFCURVE",
"297 404 CURVE SMOOTH",
"431 404 LINE SMOOTH",
"467 404 OFFCURVE",
"476 392.667 OFFCURVE",
"476 354 CURVE SMOOTH",
"476 -83 LINE SMOOTH",
"476 -121.667 OFFCURVE",
"467 -133 OFFCURVE",
"431 -133 CURVE SMOOTH",
"400.333 -133 OFFCURVE",
"385 -145 OFFCURVE",
"385 -169 CURVE SMOOTH",
"385 -193 OFFCURVE",
"400.333 -205 OFFCURVE",
"431 -205 CURVE SMOOTH"
);
}
);
width = 622;
},
{
background = {
paths = (
{
closed = 1;
nodes = (
"496.333 -205 OFFCURVE",
"529 -183.667 OFFCURVE",
"529 -81 CURVE SMOOTH",
"529 337 LINE SMOOTH",
"529 430.333 OFFCURVE",
"507.333 461 OFFCURVE",
"434 461 CURVE SMOOTH",
"293 461 LINE SMOOTH",
"219.667 461 OFFCURVE",
"164.333 437 OFFCURVE",
"127 389 CURVE",
"127 438 LINE SMOOTH",
"127 478 OFFCURVE",
"85 478 OFFCURVE",
"85 438 CURVE SMOOTH",
"85 0 LINE",
"187 0 LINE SMOOTH",
"228.333 0 OFFCURVE",
"228.333 42 OFFCURVE",
"187 42 CURVE SMOOTH",
"127 42 LINE",
"127 232 LINE SMOOTH",
"127 352 OFFCURVE",
"186.333 419 OFFCURVE",
"293 419 CURVE SMOOTH",
"427 419 LINE SMOOTH",
"472.333 419 OFFCURVE",
"487 400.667 OFFCURVE",
"487 354 CURVE SMOOTH",
"487 -98 LINE SMOOTH",
"487 -144.667 OFFCURVE",
"470.667 -163 OFFCURVE",
"428 -163 CURVE SMOOTH",
"385.333 -163 OFFCURVE",
"385.667 -205 OFFCURVE",
"427 -205 CURVE SMOOTH"
);
}
);
};
layerId = "0E6FACCE-B85C-44A4-8B06-9EFDFED90B40";
width = 600;
}
);
unicode = A904;
},
{
color = 9;
glyphname = fivekayahli;
lastChange = "2016-07-15 20:17:18 +0000";
layers = (
{
background = {
paths = (
{
closed = 1;
nodes = (
"246 -15 LINE SMOOTH",
"276.667 -15 OFFCURVE",
"292 -3 OFFCURVE",
"292 21 CURVE SMOOTH",
"292 45 OFFCURVE",
"276.667 57 OFFCURVE",
"246 57 CURVE SMOOTH",
"183 57 LINE SMOOTH",
"147 57 OFFCURVE",
"138 67.333 OFFCURVE",
"138 106 CURVE SMOOTH",
"138 354 LINE SMOOTH",
"138 392.667 OFFCURVE",
"147 404 OFFCURVE",
"183 404 CURVE SMOOTH",
"468 404 LINE",
"468 354 LINE SMOOTH",
"468 324 OFFCURVE",
"480 309 OFFCURVE",
"504 309 CURVE SMOOTH",
"528 309 OFFCURVE",
"540 324 OFFCURVE",
"540 354 CURVE SMOOTH",
"540 476 LINE",
"176 476 LINE SMOOTH",
"90.667 476 OFFCURVE",
"66 437 OFFCURVE",
"66 337 CURVE SMOOTH",
"66 124 LINE SMOOTH",
"66 24 OFFCURVE",
"90.667 -15 OFFCURVE",
"176 -15 CURVE SMOOTH"
);
}
);
};
layerId = "B309FD91-69BF-47D2-8142-D25EBE917F3C";
paths = (
{
closed = 1;
nodes = (
"250 0 LINE SMOOTH",
"291.333 0 OFFCURVE",
"291.333 42 OFFCURVE",
"250 42 CURVE SMOOTH",
"187 42 LINE SMOOTH",
"141.667 42 OFFCURVE",
"127 59.333 OFFCURVE",
"127 106 CURVE SMOOTH",
"127 354 LINE SMOOTH",
"127 400.667 OFFCURVE",
"141.667 419 OFFCURVE",
"187 419 CURVE SMOOTH",
"487 419 LINE",
"487 354 LINE SMOOTH",
"487 314 OFFCURVE",
"529 314 OFFCURVE",
"529 354 CURVE SMOOTH",
"529 461 LINE",
"180 461 LINE SMOOTH",
"106.667 461 OFFCURVE",
"85 430.333 OFFCURVE",
"85 337 CURVE SMOOTH",
"85 124 LINE SMOOTH",
"85 30.667 OFFCURVE",
"106.667 0 OFFCURVE",
"180 0 CURVE SMOOTH"
);
}
);
width = 614;
},
{
background = {
paths = (
{
closed = 1;
nodes = (
"246 -15 LINE SMOOTH",
"276.667 -15 OFFCURVE",
"292 -3 OFFCURVE",
"292 21 CURVE SMOOTH",
"292 45 OFFCURVE",
"276.667 57 OFFCURVE",
"246 57 CURVE SMOOTH",
"183 57 LINE SMOOTH",
"147 57 OFFCURVE",
"138 67.333 OFFCURVE",
"138 106 CURVE SMOOTH",
"138 354 LINE SMOOTH",
"138 392.667 OFFCURVE",
"147 404 OFFCURVE",
"183 404 CURVE SMOOTH",
"468 404 LINE",
"468 354 LINE SMOOTH",
"468 324 OFFCURVE",
"480 309 OFFCURVE",
"504 309 CURVE SMOOTH",
"528 309 OFFCURVE",
"540 324 OFFCURVE",
"540 354 CURVE SMOOTH",
"540 476 LINE",
"176 476 LINE SMOOTH",
"90.667 476 OFFCURVE",
"66 437 OFFCURVE",
"66 337 CURVE SMOOTH",
"66 124 LINE SMOOTH",
"66 24 OFFCURVE",
"90.667 -15 OFFCURVE",
"176 -15 CURVE SMOOTH"
);
}
);
};
layerId = "3776B938-A14A-42B9-91A8-ACB6A1608662";
paths = (
{
closed = 1;
nodes = (
"246 -15 LINE SMOOTH",
"276.667 -15 OFFCURVE",
"292 -3 OFFCURVE",
"292 21 CURVE SMOOTH",
"292 45 OFFCURVE",
"276.667 57 OFFCURVE",
"246 57 CURVE SMOOTH",
"183 57 LINE SMOOTH",
"147 57 OFFCURVE",
"138 67.333 OFFCURVE",
"138 106 CURVE SMOOTH",
"138 354 LINE SMOOTH",
"138 392.667 OFFCURVE",
"147 404 OFFCURVE",
"183 404 CURVE SMOOTH",
"468 404 LINE",
"468 354 LINE SMOOTH",
"468 324 OFFCURVE",
"480 309 OFFCURVE",
"504 309 CURVE SMOOTH",
"528 309 OFFCURVE",
"540 324 OFFCURVE",
"540 354 CURVE SMOOTH",
"540 476 LINE",
"176 476 LINE SMOOTH",
"90.667 476 OFFCURVE",
"66 437 OFFCURVE",
"66 337 CURVE SMOOTH",
"66 124 LINE SMOOTH",
"66 24 OFFCURVE",
"90.667 -15 OFFCURVE",
"176 -15 CURVE SMOOTH"
);
}
);
width = 575;
},
{
background = {
paths = (
{
closed = 1;
nodes = (
"250 0 LINE SMOOTH",
"291.333 0 OFFCURVE",
"291.333 42 OFFCURVE",
"250 42 CURVE SMOOTH",
"187 42 LINE SMOOTH",
"141.667 42 OFFCURVE",
"127 59.333 OFFCURVE",
"127 106 CURVE SMOOTH",
"127 354 LINE SMOOTH",
"127 400.667 OFFCURVE",
"141.667 419 OFFCURVE",
"187 419 CURVE SMOOTH",
"487 419 LINE",
"487 354 LINE SMOOTH",
"487 314 OFFCURVE",
"529 314 OFFCURVE",
"529 354 CURVE SMOOTH",
"529 461 LINE",
"180 461 LINE SMOOTH",
"106.667 461 OFFCURVE",
"85 430.333 OFFCURVE",
"85 337 CURVE SMOOTH",
"85 124 LINE SMOOTH",
"85 30.667 OFFCURVE",
"106.667 0 OFFCURVE",
"180 0 CURVE SMOOTH"
);
}
);
};
layerId = "0E6FACCE-B85C-44A4-8B06-9EFDFED90B40";
width = 600;
}
);
unicode = A905;
},
{
color = 9;
glyphname = sixkayahli;
lastChange = "2016-07-15 20:17:18 +0000";
layers = (
{
background = {
paths = (
{
closed = 1;
nodes = (
"482.167 -27 OFFCURVE",
"508.667 -16.333 OFFCURVE",
"524 5 CURVE SMOOTH",
"539.333 26.333 OFFCURVE",
"547 62 OFFCURVE",
"547 112 CURVE SMOOTH",
"547 337 LINE SMOOTH",
"547 437 OFFCURVE",
"522.333 476 OFFCURVE",
"437 476 CURVE SMOOTH",
"323 476 LINE",
"145 241 LINE",
"145 438 LINE SMOOTH",
"145 468 OFFCURVE",
"133 483 OFFCURVE",
"109 483 CURVE SMOOTH",
"85 483 OFFCURVE",
"73 468 OFFCURVE",
"73 438 CURVE SMOOTH",
"73 23 LINE SMOOTH",
"73 -7 OFFCURVE",
"85 -22 OFFCURVE",
"109 -22 CURVE SMOOTH",
"133 -22 OFFCURVE",
"145 -7 OFFCURVE",
"145 23 CURVE SMOOTH",
"145 126 LINE",
"353 404 LINE",
"430 404 LINE SMOOTH",
"466 404 OFFCURVE",
"475 392.667 OFFCURVE",
"475 354 CURVE SMOOTH",
"475 189 LINE",
"437 189 LINE",
"345.333 197.25 OFFCURVE",
"297.917 68.25 OFFCURVE",
"360 4.5 CURVE",
"378.667 -16.5 OFFCURVE",
"406.833 -27 OFFCURVE",
"444.5 -27 CURVE SMOOTH"
);
},
{
closed = 1;
nodes = (
"428 44.333 OFFCURVE",
"419.333 48 OFFCURVE",
"414 56 CURVE",
"392.322 82.013 OFFCURVE",
"409.309 117 OFFCURVE",
"437 117 CURVE SMOOTH",
"475 117 LINE",
"475 94 LINE",
"474.333 61.333 OFFCURVE",
"462.667 45 OFFCURVE",
"440 45 CURVE"
);
}
);
};
layerId = "B309FD91-69BF-47D2-8142-D25EBE917F3C";
paths = (
{
closed = 1;
nodes = (
"505.333 -12 OFFCURVE",
"529 17.333 OFFCURVE",
"529 112 CURVE SMOOTH",
"529 337 LINE SMOOTH",
"529 430.333 OFFCURVE",
"507.333 461 OFFCURVE",
"434 461 CURVE SMOOTH",
"326 461 LINE",
"127 196 LINE",
"127 438 LINE SMOOTH",
"127 478 OFFCURVE",
"85 478 OFFCURVE",
"85 438 CURVE SMOOTH",
"85 23 LINE SMOOTH",
"85 -17 OFFCURVE",
"127 -17 OFFCURVE",
"127 23 CURVE SMOOTH",
"127 132 LINE",
"341 419 LINE",
"427 419 LINE SMOOTH",
"472.333 419 OFFCURVE",
"487 400.667 OFFCURVE",
"487 354 CURVE SMOOTH",
"487 174 LINE",
"434 174 LINE",
"322.536 184.209 OFFCURVE",
"306.758 -20.013 OFFCURVE",
"440 -12 CURVE"
);
},
{
closed = 1;
nodes = (
"370.105 30 OFFCURVE",
"373.66 132 OFFCURVE",
"434 132 CURVE SMOOTH",
"487 132 LINE",
"487 94 LINE SMOOTH",
"487 51.333 OFFCURVE",
"469.333 30 OFFCURVE",
"434 30 CURVE SMOOTH"
);
}
);
width = 614;
},
{
background = {
paths = (
{
closed = 1;
nodes = (
"482.167 -27 OFFCURVE",
"508.667 -16.333 OFFCURVE",
"524 5 CURVE SMOOTH",
"539.333 26.333 OFFCURVE",
"547 62 OFFCURVE",
"547 112 CURVE SMOOTH",
"547 337 LINE SMOOTH",
"547 437 OFFCURVE",
"522.333 476 OFFCURVE",
"437 476 CURVE SMOOTH",
"323 476 LINE",
"145 241 LINE",
"145 438 LINE SMOOTH",
"145 468 OFFCURVE",
"133 483 OFFCURVE",
"109 483 CURVE SMOOTH",
"85 483 OFFCURVE",
"73 468 OFFCURVE",
"73 438 CURVE SMOOTH",
"73 23 LINE SMOOTH",
"73 -7 OFFCURVE",
"85 -22 OFFCURVE",
"109 -22 CURVE SMOOTH",
"133 -22 OFFCURVE",
"145 -7 OFFCURVE",
"145 23 CURVE SMOOTH",
"145 126 LINE",
"353 404 LINE",
"430 404 LINE SMOOTH",
"466 404 OFFCURVE",
"475 392.667 OFFCURVE",
"475 354 CURVE SMOOTH",
"475 189 LINE",
"437 189 LINE",
"345.333 197.25 OFFCURVE",
"297.917 68.25 OFFCURVE",
"360 4.5 CURVE",
"378.667 -16.5 OFFCURVE",
"406.833 -27 OFFCURVE",
"444.5 -27 CURVE SMOOTH"
);
},
{
closed = 1;
nodes = (
"428 44.333 OFFCURVE",
"419.333 48 OFFCURVE",
"414 56 CURVE",
"392.322 82.013 OFFCURVE",
"409.309 117 OFFCURVE",
"437 117 CURVE SMOOTH",
"475 117 LINE",
"475 94 LINE",
"474.333 61.333 OFFCURVE",
"462.667 45 OFFCURVE",
"440 45 CURVE"
);
}
);
};
layerId = "3776B938-A14A-42B9-91A8-ACB6A1608662";
paths = (
{
closed = 1;
nodes = (
"482.167 -27 OFFCURVE",
"508.667 -16.333 OFFCURVE",
"524 5 CURVE SMOOTH",
"539.333 26.333 OFFCURVE",
"547 62 OFFCURVE",
"547 112 CURVE SMOOTH",
"547 337 LINE SMOOTH",
"547 437 OFFCURVE",
"522.333 476 OFFCURVE",
"437 476 CURVE SMOOTH",
"323 476 LINE",
"145 241 LINE",
"145 438 LINE SMOOTH",
"145 468 OFFCURVE",
"133 483 OFFCURVE",
"109 483 CURVE SMOOTH",
"85 483 OFFCURVE",
"73 468 OFFCURVE",
"73 438 CURVE SMOOTH",
"73 23 LINE SMOOTH",
"73 -7 OFFCURVE",
"85 -22 OFFCURVE",
"109 -22 CURVE SMOOTH",
"133 -22 OFFCURVE",
"145 -7 OFFCURVE",
"145 23 CURVE SMOOTH",
"145 126 LINE",
"353 404 LINE",
"430 404 LINE SMOOTH",
"466 404 OFFCURVE",
"475 392.667 OFFCURVE",
"475 354 CURVE SMOOTH",
"475 189 LINE",
"437 189 LINE",
"345.333 197.25 OFFCURVE",
"297.917 68.25 OFFCURVE",
"360 4.5 CURVE",
"378.667 -16.5 OFFCURVE",
"406.833 -27 OFFCURVE",
"444.5 -27 CURVE SMOOTH"
);
},
{
closed = 1;
nodes = (
"428 44.333 OFFCURVE",
"419.333 48 OFFCURVE",
"414 56 CURVE",
"392.322 82.013 OFFCURVE",
"409.309 117 OFFCURVE",
"437 117 CURVE SMOOTH",
"475 117 LINE",
"475 94 LINE",
"474.333 61.333 OFFCURVE",
"462.667 45 OFFCURVE",
"440 45 CURVE"
);
}
);
width = 612;
},
{
background = {
paths = (
{
closed = 1;
nodes = (
"505.333 -12 OFFCURVE",
"529 17.333 OFFCURVE",
"529 112 CURVE SMOOTH",
"529 337 LINE SMOOTH",
"529 430.333 OFFCURVE",
"507.333 461 OFFCURVE",
"434 461 CURVE SMOOTH",
"326 461 LINE",
"127 196 LINE",
"127 438 LINE SMOOTH",
"127 478 OFFCURVE",
"85 478 OFFCURVE",
"85 438 CURVE SMOOTH",
"85 23 LINE SMOOTH",
"85 -17 OFFCURVE",
"127 -17 OFFCURVE",
"127 23 CURVE SMOOTH",
"127 132 LINE",
"341 419 LINE",
"427 419 LINE SMOOTH",
"472.333 419 OFFCURVE",
"487 400.667 OFFCURVE",
"487 354 CURVE SMOOTH",
"487 174 LINE",
"434 174 LINE",
"322.536 184.209 OFFCURVE",
"306.758 -20.013 OFFCURVE",
"440 -12 CURVE"
);
},
{
closed = 1;
nodes = (
"370.105 30 OFFCURVE",
"373.66 132 OFFCURVE",
"434 132 CURVE SMOOTH",
"487 132 LINE",
"487 94 LINE SMOOTH",
"487 51.333 OFFCURVE",
"469.333 30 OFFCURVE",
"434 30 CURVE SMOOTH"
);
}
);
};
layerId = "0E6FACCE-B85C-44A4-8B06-9EFDFED90B40";
width = 600;
}
);
unicode = A906;
},
{
color = 9;
glyphname = sevenkayahli;
lastChange = "2016-07-15 20:17:18 +0000";
layers = (
{
background = {
paths = (
{
closed = 1;
nodes = (
"430 -15 LINE SMOOTH",
"514 -15 OFFCURVE",
"540 25.333 OFFCURVE",
"540 124 CURVE SMOOTH",
"540 662 LINE SMOOTH",
"540 700.783 OFFCURVE",
"499.255 710.814 OFFCURVE",
"470 685 CURVE",
"405 620 LINE",
"372.093 582.392 OFFCURVE",
"407.613 518.613 OFFCURVE",
"468 579 CURVE",
"468 476 LINE",
"438 476 LINE SMOOTH",
"408.667 476 OFFCURVE",
"394 463.333 OFFCURVE",
"394 438 CURVE SMOOTH",
"394 415.333 OFFCURVE",
"408.667 404 OFFCURVE",
"438 404 CURVE SMOOTH",
"468 404 LINE",
"468 106 LINE SMOOTH",
"468 67.333 OFFCURVE",
"459 57 OFFCURVE",
"423 57 CURVE SMOOTH",
"183 57 LINE SMOOTH",
"147 57 OFFCURVE",
"138 67.333 OFFCURVE",
"138 106 CURVE SMOOTH",
"138 354 LINE SMOOTH",
"138 392.667 OFFCURVE",
"147 404 OFFCURVE",
"183 404 CURVE SMOOTH",
"271 404 LINE SMOOTH",
"301.667 404 OFFCURVE",
"317 415.333 OFFCURVE",
"317 438 CURVE SMOOTH",
"317 463.333 OFFCURVE",
"301.667 476 OFFCURVE",
"271 476 CURVE SMOOTH",
"176 476 LINE SMOOTH",
"90.667 476 OFFCURVE",
"66 436.667 OFFCURVE",
"66 338 CURVE SMOOTH",
"66 124 LINE SMOOTH",
"66 25.333 OFFCURVE",
"92 -15 OFFCURVE",
"176 -15 CURVE SMOOTH"
);
}
);
};
layerId = "B309FD91-69BF-47D2-8142-D25EBE917F3C";
paths = (
{
closed = 1;
nodes = (
"434 0 LINE SMOOTH",
"507.333 0 OFFCURVE",
"529 30.667 OFFCURVE",
"529 124 CURVE SMOOTH",
"529 662 LINE",
"529.667 674 OFFCURVE",
"525.333 681.333 OFFCURVE",
"516 684 CURVE SMOOTH",
"513.333 685.333 OFFCURVE",
"510.667 686 OFFCURVE",
"508 686 CURVE SMOOTH",
"500.667 686 OFFCURVE",
"492.333 681.667 OFFCURVE",
"483 673 CURVE SMOOTH",
"421 610 LINE SMOOTH",
"413.667 602.667 OFFCURVE",
"410 595.333 OFFCURVE",
"410 588 CURVE SMOOTH",
"410 576 OFFCURVE",
"416 570 OFFCURVE",
"428 570 CURVE SMOOTH",
"436.667 570 OFFCURVE",
"445.333 574.333 OFFCURVE",
"454 583 CURVE SMOOTH",
"487 616 LINE",
"487 461 LINE",
"442 461 LINE SMOOTH",
"422.667 461 OFFCURVE",
"413 453.333 OFFCURVE",
"413 438 CURVE SMOOTH",
"413 425.333 OFFCURVE",
"422.667 419 OFFCURVE",
"442 419 CURVE SMOOTH",
"487 419 LINE",
"487 106 LINE SMOOTH",
"487 59.333 OFFCURVE",
"472.333 42 OFFCURVE",
"427 42 CURVE SMOOTH",
"187 42 LINE SMOOTH",
"141.667 42 OFFCURVE",
"127 59.333 OFFCURVE",
"127 106 CURVE SMOOTH",
"127 354 LINE SMOOTH",
"127 400.667 OFFCURVE",
"141.667 419 OFFCURVE",
"187 419 CURVE SMOOTH",
"275 419 LINE SMOOTH",
"295.667 419 OFFCURVE",
"306 425.333 OFFCURVE",
"306 438 CURVE SMOOTH",
"306 453.333 OFFCURVE",
"295.667 461 OFFCURVE",
"275 461 CURVE SMOOTH",
"180 461 LINE SMOOTH",
"106.667 461 OFFCURVE",
"85 431.333 OFFCURVE",
"85 338 CURVE SMOOTH",
"85 124 LINE SMOOTH",
"85 30.667 OFFCURVE",
"106.667 0 OFFCURVE",
"180 0 CURVE SMOOTH"
);
}
);
width = 614;
},
{
background = {
paths = (
{
closed = 1;
nodes = (
"430 -15 LINE SMOOTH",
"514 -15 OFFCURVE",
"540 25.333 OFFCURVE",
"540 124 CURVE SMOOTH",
"540 662 LINE SMOOTH",
"540 700.783 OFFCURVE",
"499.255 710.814 OFFCURVE",
"470 685 CURVE",
"405 620 LINE",
"372.093 582.392 OFFCURVE",
"407.613 518.613 OFFCURVE",
"468 579 CURVE",
"468 476 LINE",
"438 476 LINE SMOOTH",
"408.667 476 OFFCURVE",
"394 463.333 OFFCURVE",
"394 438 CURVE SMOOTH",
"394 415.333 OFFCURVE",
"408.667 404 OFFCURVE",
"438 404 CURVE SMOOTH",
"468 404 LINE",
"468 106 LINE SMOOTH",
"468 67.333 OFFCURVE",
"459 57 OFFCURVE",
"423 57 CURVE SMOOTH",
"183 57 LINE SMOOTH",
"147 57 OFFCURVE",
"138 67.333 OFFCURVE",
"138 106 CURVE SMOOTH",
"138 354 LINE SMOOTH",
"138 392.667 OFFCURVE",
"147 404 OFFCURVE",
"183 404 CURVE SMOOTH",
"271 404 LINE SMOOTH",
"301.667 404 OFFCURVE",
"317 415.333 OFFCURVE",
"317 438 CURVE SMOOTH",
"317 463.333 OFFCURVE",
"301.667 476 OFFCURVE",
"271 476 CURVE SMOOTH",
"176 476 LINE SMOOTH",
"90.667 476 OFFCURVE",
"66 436.667 OFFCURVE",
"66 338 CURVE SMOOTH",
"66 124 LINE SMOOTH",
"66 25.333 OFFCURVE",
"92 -15 OFFCURVE",
"176 -15 CURVE SMOOTH"
);
}
);
};
layerId = "3776B938-A14A-42B9-91A8-ACB6A1608662";
paths = (
{
closed = 1;
nodes = (
"430 -15 LINE SMOOTH",
"514 -15 OFFCURVE",
"540 25.333 OFFCURVE",
"540 124 CURVE SMOOTH",
"540 662 LINE SMOOTH",
"540 700.783 OFFCURVE",
"499.255 710.814 OFFCURVE",
"470 685 CURVE",
"405 620 LINE",
"372.093 582.392 OFFCURVE",
"407.613 518.613 OFFCURVE",
"468 579 CURVE",
"468 476 LINE",
"438 476 LINE SMOOTH",
"408.667 476 OFFCURVE",
"394 463.333 OFFCURVE",
"394 438 CURVE SMOOTH",
"394 415.333 OFFCURVE",
"408.667 404 OFFCURVE",
"438 404 CURVE SMOOTH",
"468 404 LINE",
"468 106 LINE SMOOTH",
"468 67.333 OFFCURVE",
"459 57 OFFCURVE",
"423 57 CURVE SMOOTH",
"183 57 LINE SMOOTH",
"147 57 OFFCURVE",
"138 67.333 OFFCURVE",
"138 106 CURVE SMOOTH",
"138 354 LINE SMOOTH",
"138 392.667 OFFCURVE",
"147 404 OFFCURVE",
"183 404 CURVE SMOOTH",
"271 404 LINE SMOOTH",
"301.667 404 OFFCURVE",
"317 415.333 OFFCURVE",
"317 438 CURVE SMOOTH",
"317 463.333 OFFCURVE",
"301.667 476 OFFCURVE",
"271 476 CURVE SMOOTH",
"176 476 LINE SMOOTH",
"90.667 476 OFFCURVE",
"66 436.667 OFFCURVE",
"66 338 CURVE SMOOTH",
"66 124 LINE SMOOTH",
"66 25.333 OFFCURVE",
"92 -15 OFFCURVE",
"176 -15 CURVE SMOOTH"
);
}
);
width = 613;
},
{
background = {
paths = (
{
closed = 1;
nodes = (
"434 0 LINE SMOOTH",
"507.333 0 OFFCURVE",
"529 30.667 OFFCURVE",
"529 124 CURVE SMOOTH",
"529 662 LINE",
"529.667 674 OFFCURVE",
"525.333 681.333 OFFCURVE",
"516 684 CURVE SMOOTH",
"513.333 685.333 OFFCURVE",
"510.667 686 OFFCURVE",
"508 686 CURVE SMOOTH",
"500.667 686 OFFCURVE",
"492.333 681.667 OFFCURVE",
"483 673 CURVE SMOOTH",
"421 610 LINE SMOOTH",
"413.667 602.667 OFFCURVE",
"410 595.333 OFFCURVE",
"410 588 CURVE SMOOTH",
"410 576 OFFCURVE",
"416 570 OFFCURVE",
"428 570 CURVE SMOOTH",
"436.667 570 OFFCURVE",
"445.333 574.333 OFFCURVE",
"454 583 CURVE SMOOTH",
"487 616 LINE",
"487 461 LINE",
"442 461 LINE SMOOTH",
"422.667 461 OFFCURVE",
"413 453.333 OFFCURVE",
"413 438 CURVE SMOOTH",
"413 425.333 OFFCURVE",
"422.667 419 OFFCURVE",
"442 419 CURVE SMOOTH",
"487 419 LINE",
"487 106 LINE SMOOTH",
"487 59.333 OFFCURVE",
"472.333 42 OFFCURVE",
"427 42 CURVE SMOOTH",
"187 42 LINE SMOOTH",
"141.667 42 OFFCURVE",
"127 59.333 OFFCURVE",
"127 106 CURVE SMOOTH",
"127 354 LINE SMOOTH",
"127 400.667 OFFCURVE",
"141.667 419 OFFCURVE",
"187 419 CURVE SMOOTH",
"275 419 LINE SMOOTH",
"295.667 419 OFFCURVE",
"306 425.333 OFFCURVE",
"306 438 CURVE SMOOTH",
"306 453.333 OFFCURVE",
"295.667 461 OFFCURVE",
"275 461 CURVE SMOOTH",
"180 461 LINE SMOOTH",
"106.667 461 OFFCURVE",
"85 431.333 OFFCURVE",
"85 338 CURVE SMOOTH",
"85 124 LINE SMOOTH",
"85 30.667 OFFCURVE",
"106.667 0 OFFCURVE",
"180 0 CURVE SMOOTH"
);
}
);
};
layerId = "0E6FACCE-B85C-44A4-8B06-9EFDFED90B40";
width = 600;
}
);
unicode = A907;
},
{
color = 9;
glyphname = eightkayahli;
lastChange = "2016-07-15 20:17:18 +0000";
layers = (
{
background = {
paths = (
{
closed = 1;
nodes = (
"434 -15 LINE SMOOTH",
"519.333 -15 OFFCURVE",
"544 24 OFFCURVE",
"544 124 CURVE SMOOTH",
"544 154 OFFCURVE",
"532 169 OFFCURVE",
"508 169 CURVE SMOOTH",
"484 169 OFFCURVE",
"472 154 OFFCURVE",
"472 124 CURVE SMOOTH",
"472 106 LINE SMOOTH",
"472 67.333 OFFCURVE",
"463 57 OFFCURVE",
"427 57 CURVE SMOOTH",
"187 57 LINE SMOOTH",
"151 57 OFFCURVE",
"142 67.333 OFFCURVE",
"142 106 CURVE SMOOTH",
"142 438 LINE SMOOTH",
"142 468 OFFCURVE",
"130 483 OFFCURVE",
"106 483 CURVE SMOOTH",
"82 483 OFFCURVE",
"70 468 OFFCURVE",
"70 438 CURVE SMOOTH",
"70 124 LINE SMOOTH",
"70 24 OFFCURVE",
"94.667 -15 OFFCURVE",
"180 -15 CURVE SMOOTH"
);
}
);
};
layerId = "B309FD91-69BF-47D2-8142-D25EBE917F3C";
paths = (
{
closed = 1;
nodes = (
"434 0 LINE SMOOTH",
"507.333 0 OFFCURVE",
"529 30.667 OFFCURVE",
"529 124 CURVE SMOOTH",
"529 164 OFFCURVE",
"487 164 OFFCURVE",
"487 124 CURVE SMOOTH",
"487 106 LINE SMOOTH",
"487 59.333 OFFCURVE",
"472.333 42 OFFCURVE",
"427 42 CURVE SMOOTH",
"187 42 LINE SMOOTH",
"141.667 42 OFFCURVE",
"127 59.333 OFFCURVE",
"127 106 CURVE SMOOTH",
"127 438 LINE SMOOTH",
"127 478 OFFCURVE",
"85 478 OFFCURVE",
"85 438 CURVE SMOOTH",
"85 124 LINE SMOOTH",
"85 30.667 OFFCURVE",
"106.667 0 OFFCURVE",
"180 0 CURVE SMOOTH"
);
}
);
width = 614;
},
{
background = {
paths = (
{
closed = 1;
nodes = (
"434 -15 LINE SMOOTH",
"519.333 -15 OFFCURVE",
"544 24 OFFCURVE",
"544 124 CURVE SMOOTH",
"544 154 OFFCURVE",
"532 169 OFFCURVE",
"508 169 CURVE SMOOTH",
"484 169 OFFCURVE",
"472 154 OFFCURVE",
"472 124 CURVE SMOOTH",
"472 106 LINE SMOOTH",
"472 67.333 OFFCURVE",
"463 57 OFFCURVE",
"427 57 CURVE SMOOTH",
"187 57 LINE SMOOTH",
"151 57 OFFCURVE",
"142 67.333 OFFCURVE",
"142 106 CURVE SMOOTH",
"142 438 LINE SMOOTH",
"142 468 OFFCURVE",
"130 483 OFFCURVE",
"106 483 CURVE SMOOTH",
"82 483 OFFCURVE",
"70 468 OFFCURVE",
"70 438 CURVE SMOOTH",
"70 124 LINE SMOOTH",
"70 24 OFFCURVE",
"94.667 -15 OFFCURVE",
"180 -15 CURVE SMOOTH"
);
}
);
};
layerId = "3776B938-A14A-42B9-91A8-ACB6A1608662";
paths = (
{
closed = 1;
nodes = (
"434 -15 LINE SMOOTH",
"519.333 -15 OFFCURVE",
"544 24 OFFCURVE",
"544 124 CURVE SMOOTH",
"544 154 OFFCURVE",
"532 169 OFFCURVE",
"508 169 CURVE SMOOTH",
"484 169 OFFCURVE",
"472 154 OFFCURVE",
"472 124 CURVE SMOOTH",
"472 106 LINE SMOOTH",
"472 67.333 OFFCURVE",
"463 57 OFFCURVE",
"427 57 CURVE SMOOTH",
"187 57 LINE SMOOTH",
"151 57 OFFCURVE",
"142 67.333 OFFCURVE",
"142 106 CURVE SMOOTH",
"142 438 LINE SMOOTH",
"142 468 OFFCURVE",
"130 483 OFFCURVE",
"106 483 CURVE SMOOTH",
"82 483 OFFCURVE",
"70 468 OFFCURVE",
"70 438 CURVE SMOOTH",
"70 124 LINE SMOOTH",
"70 24 OFFCURVE",
"94.667 -15 OFFCURVE",
"180 -15 CURVE SMOOTH"
);
}
);
width = 576;
},
{
background = {
paths = (
{
closed = 1;
nodes = (
"434 0 LINE SMOOTH",
"507.333 0 OFFCURVE",
"529 30.667 OFFCURVE",
"529 124 CURVE SMOOTH",
"529 164 OFFCURVE",
"487 164 OFFCURVE",
"487 124 CURVE SMOOTH",
"487 106 LINE SMOOTH",
"487 59.333 OFFCURVE",
"472.333 42 OFFCURVE",
"427 42 CURVE SMOOTH",
"187 42 LINE SMOOTH",
"141.667 42 OFFCURVE",
"127 59.333 OFFCURVE",
"127 106 CURVE SMOOTH",
"127 438 LINE SMOOTH",
"127 478 OFFCURVE",
"85 478 OFFCURVE",
"85 438 CURVE SMOOTH",
"85 124 LINE SMOOTH",
"85 30.667 OFFCURVE",
"106.667 0 OFFCURVE",
"180 0 CURVE SMOOTH"
);
}
);
};
layerId = "0E6FACCE-B85C-44A4-8B06-9EFDFED90B40";
width = 600;
}
);
unicode = A908;
},
{
color = 9;
glyphname = ninekayahli;
lastChange = "2016-07-15 20:17:18 +0000";
layers = (
{
background = {
paths = (
{
closed = 1;
nodes = (
"437 -15 LINE SMOOTH",
"521 -15 OFFCURVE",
"547 25.333 OFFCURVE",
"547 124 CURVE SMOOTH",
"547 338 LINE SMOOTH",
"547 436.667 OFFCURVE",
"522.333 476 OFFCURVE",
"437 476 CURVE SMOOTH",
"342 476 LINE SMOOTH",
"311.333 476 OFFCURVE",
"296 463.333 OFFCURVE",
"296 438 CURVE SMOOTH",
"296 415.333 OFFCURVE",
"311.333 404 OFFCURVE",
"342 404 CURVE SMOOTH",
"430 404 LINE SMOOTH",
"466 404 OFFCURVE",
"475 392.667 OFFCURVE",
"475 354 CURVE SMOOTH",
"475 106 LINE SMOOTH",
"475 67.333 OFFCURVE",
"466 57 OFFCURVE",
"430 57 CURVE SMOOTH",
"190 57 LINE SMOOTH",
"154 57 OFFCURVE",
"145 67.333 OFFCURVE",
"145 106 CURVE SMOOTH",
"145 404 LINE",
"175 404 LINE SMOOTH",
"205 404 OFFCURVE",
"220 415.333 OFFCURVE",
"220 438 CURVE SMOOTH",
"220 463.333 OFFCURVE",
"205 476 OFFCURVE",
"175 476 CURVE SMOOTH",
"145 476 LINE",
"145 580 LINE",
"154 572 LINE SMOOTH",
"201.492 527.147 OFFCURVE",
"245.225 578.6 OFFCURVE",
"209 620 CURVE",
"144 685 LINE",
"113.373 710.522 OFFCURVE",
"73 701.916 OFFCURVE",
"73 662 CURVE SMOOTH",
"73 124 LINE SMOOTH",
"73 25.333 OFFCURVE",
"99 -15 OFFCURVE",
"183 -15 CURVE SMOOTH"
);
}
);
};
layerId = "B309FD91-69BF-47D2-8142-D25EBE917F3C";
paths = (
{
closed = 1;
nodes = (
"434 0 LINE SMOOTH",
"507.333 0 OFFCURVE",
"529 30.667 OFFCURVE",
"529 124 CURVE SMOOTH",
"529 338 LINE SMOOTH",
"529 431.333 OFFCURVE",
"507.333 461 OFFCURVE",
"434 461 CURVE SMOOTH",
"339 461 LINE SMOOTH",
"318.333 461 OFFCURVE",
"308 453.333 OFFCURVE",
"308 438 CURVE SMOOTH",
"308 425.333 OFFCURVE",
"318.333 419 OFFCURVE",
"339 419 CURVE SMOOTH",
"427 419 LINE SMOOTH",
"472.333 419 OFFCURVE",
"487 400.667 OFFCURVE",
"487 354 CURVE SMOOTH",
"487 106 LINE SMOOTH",
"487 59.333 OFFCURVE",
"472.333 42 OFFCURVE",
"427 42 CURVE SMOOTH",
"187 42 LINE SMOOTH",
"141.667 42 OFFCURVE",
"127 59.333 OFFCURVE",
"127 106 CURVE SMOOTH",
"127 419 LINE",
"172 419 LINE SMOOTH",
"192 419 OFFCURVE",
"202 425.333 OFFCURVE",
"202 438 CURVE SMOOTH",
"202 453.333 OFFCURVE",
"192 461 OFFCURVE",
"172 461 CURVE SMOOTH",
"127 461 LINE",
"127 616 LINE",
"161 583 LINE SMOOTH",
"169 574.333 OFFCURVE",
"177.333 570 OFFCURVE",
"186 570 CURVE SMOOTH",
"198.667 570 OFFCURVE",
"205 576 OFFCURVE",
"205 588 CURVE SMOOTH",
"205 595.333 OFFCURVE",
"201.333 602.667 OFFCURVE",
"194 610 CURVE SMOOTH",
"131 673 LINE SMOOTH",
"123.667 681 OFFCURVE",
"116.667 685 OFFCURVE",
"110 685 CURVE SMOOTH",
"93.333 685 OFFCURVE",
"85 677.333 OFFCURVE",
"85 662 CURVE SMOOTH",
"85 124 LINE SMOOTH",
"85 30.667 OFFCURVE",
"106.667 0 OFFCURVE",
"180 0 CURVE SMOOTH"
);
}
);
width = 614;
},
{
background = {
paths = (
{
closed = 1;
nodes = (
"437 -15 LINE SMOOTH",
"521 -15 OFFCURVE",
"547 25.333 OFFCURVE",
"547 124 CURVE SMOOTH",
"547 338 LINE SMOOTH",
"547 436.667 OFFCURVE",
"522.333 476 OFFCURVE",
"437 476 CURVE SMOOTH",
"342 476 LINE SMOOTH",
"311.333 476 OFFCURVE",
"296 463.333 OFFCURVE",
"296 438 CURVE SMOOTH",
"296 415.333 OFFCURVE",
"311.333 404 OFFCURVE",
"342 404 CURVE SMOOTH",
"430 404 LINE SMOOTH",
"466 404 OFFCURVE",
"475 392.667 OFFCURVE",
"475 354 CURVE SMOOTH",
"475 106 LINE SMOOTH",
"475 67.333 OFFCURVE",
"466 57 OFFCURVE",
"430 57 CURVE SMOOTH",
"190 57 LINE SMOOTH",
"154 57 OFFCURVE",
"145 67.333 OFFCURVE",
"145 106 CURVE SMOOTH",
"145 404 LINE",
"175 404 LINE SMOOTH",
"205 404 OFFCURVE",
"220 415.333 OFFCURVE",
"220 438 CURVE SMOOTH",
"220 463.333 OFFCURVE",
"205 476 OFFCURVE",
"175 476 CURVE SMOOTH",
"145 476 LINE",
"145 580 LINE",
"154 572 LINE SMOOTH",
"201.492 527.147 OFFCURVE",
"245.225 578.6 OFFCURVE",
"209 620 CURVE",
"144 685 LINE",
"113.373 710.522 OFFCURVE",
"73 701.916 OFFCURVE",
"73 662 CURVE SMOOTH",
"73 124 LINE SMOOTH",
"73 25.333 OFFCURVE",
"99 -15 OFFCURVE",
"183 -15 CURVE SMOOTH"
);
}
);
};
layerId = "3776B938-A14A-42B9-91A8-ACB6A1608662";
paths = (
{
closed = 1;
nodes = (
"437 -15 LINE SMOOTH",
"521 -15 OFFCURVE",
"547 25.333 OFFCURVE",
"547 124 CURVE SMOOTH",
"547 338 LINE SMOOTH",
"547 436.667 OFFCURVE",
"522.333 476 OFFCURVE",
"437 476 CURVE SMOOTH",
"342 476 LINE SMOOTH",
"311.333 476 OFFCURVE",
"296 463.333 OFFCURVE",
"296 438 CURVE SMOOTH",
"296 415.333 OFFCURVE",
"311.333 404 OFFCURVE",
"342 404 CURVE SMOOTH",
"430 404 LINE SMOOTH",
"466 404 OFFCURVE",
"475 392.667 OFFCURVE",
"475 354 CURVE SMOOTH",
"475 106 LINE SMOOTH",
"475 67.333 OFFCURVE",
"466 57 OFFCURVE",
"430 57 CURVE SMOOTH",
"190 57 LINE SMOOTH",
"154 57 OFFCURVE",
"145 67.333 OFFCURVE",
"145 106 CURVE SMOOTH",
"145 404 LINE",
"175 404 LINE SMOOTH",
"205 404 OFFCURVE",
"220 415.333 OFFCURVE",
"220 438 CURVE SMOOTH",
"220 463.333 OFFCURVE",
"205 476 OFFCURVE",
"175 476 CURVE SMOOTH",
"145 476 LINE",
"145 580 LINE",
"154 572 LINE SMOOTH",
"201.492 527.147 OFFCURVE",
"245.225 578.6 OFFCURVE",
"209 620 CURVE",
"144 685 LINE",
"113.373 710.522 OFFCURVE",
"73 701.916 OFFCURVE",
"73 662 CURVE SMOOTH",
"73 124 LINE SMOOTH",
"73 25.333 OFFCURVE",
"99 -15 OFFCURVE",
"183 -15 CURVE SMOOTH"
);
}
);
width = 613;
},
{
background = {
paths = (
{
closed = 1;
nodes = (
"434 0 LINE SMOOTH",
"507.333 0 OFFCURVE",
"529 30.667 OFFCURVE",
"529 124 CURVE SMOOTH",
"529 338 LINE SMOOTH",
"529 431.333 OFFCURVE",
"507.333 461 OFFCURVE",
"434 461 CURVE SMOOTH",
"339 461 LINE SMOOTH",
"318.333 461 OFFCURVE",
"308 453.333 OFFCURVE",
"308 438 CURVE SMOOTH",
"308 425.333 OFFCURVE",
"318.333 419 OFFCURVE",
"339 419 CURVE SMOOTH",
"427 419 LINE SMOOTH",
"472.333 419 OFFCURVE",
"487 400.667 OFFCURVE",
"487 354 CURVE SMOOTH",
"487 106 LINE SMOOTH",
"487 59.333 OFFCURVE",
"472.333 42 OFFCURVE",
"427 42 CURVE SMOOTH",
"187 42 LINE SMOOTH",
"141.667 42 OFFCURVE",
"127 59.333 OFFCURVE",
"127 106 CURVE SMOOTH",
"127 419 LINE",
"172 419 LINE SMOOTH",
"192 419 OFFCURVE",
"202 425.333 OFFCURVE",
"202 438 CURVE SMOOTH",
"202 453.333 OFFCURVE",
"192 461 OFFCURVE",
"172 461 CURVE SMOOTH",
"127 461 LINE",
"127 616 LINE",
"161 583 LINE SMOOTH",
"169 574.333 OFFCURVE",
"177.333 570 OFFCURVE",
"186 570 CURVE SMOOTH",
"198.667 570 OFFCURVE",
"205 576 OFFCURVE",
"205 588 CURVE SMOOTH",
"205 595.333 OFFCURVE",
"201.333 602.667 OFFCURVE",
"194 610 CURVE SMOOTH",
"131 673 LINE SMOOTH",
"123.667 681 OFFCURVE",
"116.667 685 OFFCURVE",
"110 685 CURVE SMOOTH",
"93.333 685 OFFCURVE",
"85 677.333 OFFCURVE",
"85 662 CURVE SMOOTH",
"85 124 LINE SMOOTH",
"85 30.667 OFFCURVE",
"106.667 0 OFFCURVE",
"180 0 CURVE SMOOTH"
);
}
);
};
layerId = "0E6FACCE-B85C-44A4-8B06-9EFDFED90B40";
width = 600;
}
);
unicode = A909;
},
{
color = 9;
glyphname = kakayahli;
lastChange = "2016-07-15 20:48:07 +0000";
layers = (
{
background = {
paths = (
{
closed = 1;
nodes = (
"251 0 LINE",
"251 282 LINE",
"343 419 LINE",
"427 419 LINE SMOOTH",
"472.35 419 OFFCURVE",
"487 400.65 OFFCURVE",
"487 354 CURVE SMOOTH",
"487 42 LINE",
"434 42 LINE SMOOTH",
"394 42 OFFCURVE",
"394 0 OFFCURVE",
"434 0 CURVE SMOOTH",
"529 0 LINE",
"529 337 LINE SMOOTH",
"529 430.35 OFFCURVE",
"507.35 461 OFFCURVE",
"434 461 CURVE SMOOTH",
"326 461 LINE",
"251 351 LINE",
"251 368 LINE SMOOTH",
"251 434 OFFCURVE",
"224.35 467 OFFCURVE",
"171 467 CURVE SMOOTH",
"101.65 467 OFFCURVE",
"85 438.35 OFFCURVE",
"85 361 CURVE SMOOTH",
"85 321 OFFCURVE",
"127 320 OFFCURVE",
"127 364 CURVE SMOOTH",
"127 408 OFFCURVE",
"136.35 425 OFFCURVE",
"171 425 CURVE SMOOTH",
"196.35 425 OFFCURVE",
"209 405.65 OFFCURVE",
"209 367 CURVE SMOOTH",
"209 289 LINE",
"145 196 LINE",
"94.35 125.35 OFFCURVE",
"85 109 OFFCURVE",
"85 53 CURVE SMOOTH",
"85 0 LINE"
);
},
{
closed = 1;
nodes = (
"127 54 LINE SMOOTH",
"127 82.65 OFFCURVE",
"131.65 104.35 OFFCURVE",
"141 119 CURVE SMOOTH",
"209 219 LINE",
"209 42 LINE",
"127 42 LINE"
);
}
);
};
layerId = "B309FD91-69BF-47D2-8142-D25EBE917F3C";
paths = (
{
closed = 1;
nodes = (
"357.5 437.65 LINE",
"321.1 419.25 LINE",
"421.1 419.25 LINE SMOOTH",
"467.15 419.25 OFFCURVE",
"485.6 403.8 OFFCURVE",
"485.6 365.25 CURVE SMOOTH",
"485.6 41.75 LINE",
"420.55 41.75 LINE SMOOTH",
"407.35 41.75 OFFCURVE",
"399.55 33.95 OFFCURVE",
"399.55 20.75 CURVE SMOOTH",
"399.55 7.55 OFFCURVE",
"407.35 -0.25 OFFCURVE",
"420.55 -0.25 CURVE SMOOTH",
"527.6 -0.25 LINE",
"527.6 365.25 LINE",
"527.6 433.8 OFFCURVE",
"497.15 461.25 OFFCURVE",
"421.1 461.25 CURVE SMOOTH",
"323.8 461.25 LINE",
"250.572 354.057 LINE",
"249.6 433.1 OFFCURVE",
"225.15 464.75 OFFCURVE",
"164.95 464.75 CURVE SMOOTH",
"106.5 464.75 OFFCURVE",
"83.15 434.85 OFFCURVE",
"83.15 360.1 CURVE SMOOTH",
"83.15 346.65 OFFCURVE",
"90.95 338.7 OFFCURVE",
"104.15 338.7 CURVE SMOOTH",
"117.35 338.7 OFFCURVE",
"125.15 346.35 OFFCURVE",
"125.15 359.3 CURVE SMOOTH",
"125.15 404.6 OFFCURVE",
"136.5 422.75 OFFCURVE",
"164.95 422.75 CURVE SMOOTH",
"196.15 422.75 OFFCURVE",
"208.6 401.9 OFFCURVE",
"208.6 349.75 CURVE SMOOTH",
"208.6 292.048 LINE",
"122.009 164.121 LINE SMOOTH",
"94.9 123.95 OFFCURVE",
"80 92.85 OFFCURVE",
"79.95 40.3 CURVE",
"80.05 -0.1 LINE",
"250.6 -0.1 LINE",
"250.6 295.15 LINE",
"208.6 233.1 LINE",
"208.6 41.9 LINE",
"123.25 41.9 LINE",
"123.25 80.95 OFFCURVE",
"131.85 108.55 OFFCURVE",
"153.8 140.6 CURVE SMOOTH"
);
}
);
width = 614;
},
{
background = {
paths = (
{
closed = 1;
nodes = (
"256 -15 LINE",
"256 276 LINE",
"342 404 LINE",
"417 404 LINE SMOOTH",
"453 404 OFFCURVE",
"462 392.667 OFFCURVE",
"462 354 CURVE SMOOTH",
"462 57 LINE",
"424 57 LINE SMOOTH",
"394 57 OFFCURVE",
"379 45 OFFCURVE",
"379 21 CURVE SMOOTH",
"379 -3 OFFCURVE",
"394 -15 OFFCURVE",
"424 -15 CURVE SMOOTH",
"534 -15 LINE",
"534 337 LINE SMOOTH",
"534 437 OFFCURVE",
"509.333 476 OFFCURVE",
"424 476 CURVE SMOOTH",
"307 476 LINE",
"254 397 LINE",
"246 453.667 OFFCURVE",
"215 482 OFFCURVE",
"161 482 CURVE SMOOTH",
"79.667 482 OFFCURVE",
"60 445 OFFCURVE",
"60 361 CURVE SMOOTH",
"60 331 OFFCURVE",
"72 316 OFFCURVE",
"96 316 CURVE SMOOTH",
"120 316 OFFCURVE",
"132 331 OFFCURVE",
"132 361 CURVE SMOOTH",
"132 401 OFFCURVE",
"137 410 OFFCURVE",
"161 410 CURVE SMOOTH",
"176.333 410 OFFCURVE",
"184 395.667 OFFCURVE",
"184 367 CURVE SMOOTH",
"184 295 LINE",
"123 205 LINE SMOOTH",
"103.667 177.667 OFFCURVE",
"90.667 158.667 OFFCURVE",
"84 148 CURVE SMOOTH",
"68 121.333 OFFCURVE",
"60 89.667 OFFCURVE",
"60 53 CURVE SMOOTH",
"60 -15 LINE"
);
},
{
closed = 1;
nodes = (
"132 81.667 OFFCURVE",
"135.667 99.333 OFFCURVE",
"143 110 CURVE SMOOTH",
"184 171 LINE",
"184 57 LINE",
"132 57 LINE"
);
}
);
};
layerId = "3776B938-A14A-42B9-91A8-ACB6A1608662";
paths = (
{
closed = 1;
nodes = (
"256 -15 LINE",
"256 276 LINE",
"342 404 LINE",
"417 404 LINE SMOOTH",
"453 404 OFFCURVE",
"462 392.667 OFFCURVE",
"462 354 CURVE SMOOTH",
"462 57 LINE",
"424 57 LINE SMOOTH",
"394 57 OFFCURVE",
"379 45 OFFCURVE",
"379 21 CURVE SMOOTH",
"379 -3 OFFCURVE",
"394 -15 OFFCURVE",
"424 -15 CURVE SMOOTH",
"534 -15 LINE",
"534 337 LINE SMOOTH",
"534 437 OFFCURVE",
"509.333 476 OFFCURVE",
"424 476 CURVE SMOOTH",
"307 476 LINE",
"254 397 LINE",
"246 453.667 OFFCURVE",
"215 482 OFFCURVE",
"161 482 CURVE SMOOTH",
"79.667 482 OFFCURVE",
"60 445 OFFCURVE",
"60 361 CURVE SMOOTH",
"60 331 OFFCURVE",
"72 316 OFFCURVE",
"96 316 CURVE SMOOTH",
"120 316 OFFCURVE",
"132 331 OFFCURVE",
"132 361 CURVE SMOOTH",
"132 401 OFFCURVE",
"137 410 OFFCURVE",
"161 410 CURVE SMOOTH",
"176.333 410 OFFCURVE",
"184 395.667 OFFCURVE",
"184 367 CURVE SMOOTH",
"184 295 LINE",
"123 205 LINE SMOOTH",
"103.667 177.667 OFFCURVE",
"90.667 158.667 OFFCURVE",
"84 148 CURVE SMOOTH",
"68 121.333 OFFCURVE",
"60 89.667 OFFCURVE",
"60 53 CURVE SMOOTH",
"60 -15 LINE"
);
},
{
closed = 1;
nodes = (
"132 81.667 OFFCURVE",
"135.667 99.333 OFFCURVE",
"143 110 CURVE SMOOTH",
"184 171 LINE",
"184 57 LINE",
"132 57 LINE"
);
}
);
width = 608;
},
{
background = {
paths = (
{
closed = 1;
nodes = (
"251 0 LINE",
"251 282 LINE",
"343 419 LINE",
"427 419 LINE SMOOTH",
"472.35 419 OFFCURVE",
"487 400.65 OFFCURVE",
"487 354 CURVE SMOOTH",
"487 42 LINE",
"434 42 LINE SMOOTH",
"394 42 OFFCURVE",
"394 0 OFFCURVE",
"434 0 CURVE SMOOTH",
"529 0 LINE",
"529 337 LINE SMOOTH",
"529 430.35 OFFCURVE",
"507.35 461 OFFCURVE",
"434 461 CURVE SMOOTH",
"326 461 LINE",
"251 351 LINE",
"251 368 LINE SMOOTH",
"251 434 OFFCURVE",
"224.35 467 OFFCURVE",
"171 467 CURVE SMOOTH",
"101.65 467 OFFCURVE",
"85 438.35 OFFCURVE",
"85 361 CURVE SMOOTH",
"85 321 OFFCURVE",
"127 320 OFFCURVE",
"127 364 CURVE SMOOTH",
"127 408 OFFCURVE",
"136.35 425 OFFCURVE",
"171 425 CURVE SMOOTH",
"196.35 425 OFFCURVE",
"209 405.65 OFFCURVE",
"209 367 CURVE SMOOTH",
"209 289 LINE",
"145 196 LINE",
"94.35 125.35 OFFCURVE",
"85 109 OFFCURVE",
"85 53 CURVE SMOOTH",
"85 0 LINE"
);
},
{
closed = 1;
nodes = (
"127 54 LINE SMOOTH",
"127 82.65 OFFCURVE",
"131.65 104.35 OFFCURVE",
"141 119 CURVE SMOOTH",
"209 219 LINE",
"209 42 LINE",
"127 42 LINE"
);
}
);
};
layerId = "0E6FACCE-B85C-44A4-8B06-9EFDFED90B40";
paths = (
{
closed = 0;
nodes = (
"109.15 359.7 LINE SMOOTH",
"110.2 418.3 OFFCURVE",
"127 441.75 OFFCURVE",
"167.95 441.75 CURVE",
"212 441.75 OFFCURVE",
"229.6 415.45 OFFCURVE",
"229.6 349.75 CURVE",
"229.6 19.9 LINE",
"104.95 19.9 LINE",
"104.95 78.1 OFFCURVE",
"110.1 109 OFFCURVE",
"139.4 152.35 CURVE SMOOTH",
"334.95 441.25 LINE",
"421.1 441.25 LINE",
"482.15 441.25 OFFCURVE",
"506.6 419.8 OFFCURVE",
"506.6 366.25 CURVE",
"506.6 19.75 LINE",
"420.55 19.75 LINE"
);
}
);
width = 584;
},
{
associatedMasterId = "B309FD91-69BF-47D2-8142-D25EBE917F3C";
background = {
paths = (
{
closed = 1;
nodes = (
"251 0 LINE",
"251 282 LINE",
"343 419 LINE",
"427 419 LINE SMOOTH",
"472.35 419 OFFCURVE",
"487 400.65 OFFCURVE",
"487 354 CURVE SMOOTH",
"487 42 LINE",
"434 42 LINE SMOOTH",
"394 42 OFFCURVE",
"394 0 OFFCURVE",
"434 0 CURVE SMOOTH",
"529 0 LINE",
"529 337 LINE SMOOTH",
"529 430.35 OFFCURVE",
"507.35 461 OFFCURVE",
"434 461 CURVE SMOOTH",
"326 461 LINE",
"251 351 LINE",
"251 368 LINE SMOOTH",
"251 434 OFFCURVE",
"224.35 467 OFFCURVE",
"171 467 CURVE SMOOTH",
"101.65 467 OFFCURVE",
"85 438.35 OFFCURVE",
"85 361 CURVE SMOOTH",
"85 321 OFFCURVE",
"127 320 OFFCURVE",
"127 364 CURVE SMOOTH",
"127 408 OFFCURVE",
"136.35 425 OFFCURVE",
"171 425 CURVE SMOOTH",
"196.35 425 OFFCURVE",
"209 405.65 OFFCURVE",
"209 367 CURVE SMOOTH",
"209 289 LINE",
"145 196 LINE",
"94.35 125.35 OFFCURVE",
"85 109 OFFCURVE",
"85 53 CURVE SMOOTH",
"85 0 LINE"
);
},
{
closed = 1;
nodes = (
"127 54 LINE SMOOTH",
"127 82.65 OFFCURVE",
"131.65 104.35 OFFCURVE",
"141 119 CURVE SMOOTH",
"209 219 LINE",
"209 42 LINE",
"127 42 LINE"
);
}
);
};
layerId = "6467BAAF-E131-4A84-B774-E1303CAC7CCC";
name = Original;
paths = (
{
closed = 1;
nodes = (
"251 0 LINE",
"251 282 LINE",
"343 419 LINE",
"427 419 LINE SMOOTH",
"472.35 419 OFFCURVE",
"487 400.65 OFFCURVE",
"487 354 CURVE SMOOTH",
"487 42 LINE",
"434 42 LINE SMOOTH",
"394 42 OFFCURVE",
"394 0 OFFCURVE",
"434 0 CURVE SMOOTH",
"529 0 LINE",
"529 337 LINE SMOOTH",
"529 430.35 OFFCURVE",
"507.35 461 OFFCURVE",
"434 461 CURVE SMOOTH",
"326 461 LINE",
"251 351 LINE",
"251 368 LINE SMOOTH",
"251 434 OFFCURVE",
"224.35 467 OFFCURVE",
"171 467 CURVE SMOOTH",
"101.65 467 OFFCURVE",
"85 438.35 OFFCURVE",
"85 361 CURVE SMOOTH",
"85 321 OFFCURVE",
"127 320 OFFCURVE",
"127 364 CURVE SMOOTH",
"127 408 OFFCURVE",
"136.35 425 OFFCURVE",
"171 425 CURVE SMOOTH",
"196.35 425 OFFCURVE",
"209 405.65 OFFCURVE",
"209 367 CURVE SMOOTH",
"209 289 LINE",
"145 196 LINE",
"94.35 125.35 OFFCURVE",
"85 109 OFFCURVE",
"85 53 CURVE SMOOTH",
"85 0 LINE"
);
},
{
closed = 1;
nodes = (
"127 54 LINE SMOOTH",
"127 82.65 OFFCURVE",
"131.65 104.35 OFFCURVE",
"141 119 CURVE SMOOTH",
"209 219 LINE",
"209 42 LINE",
"127 42 LINE"
);
}
);
width = 614;
}
);
unicode = A90A;
},
{
color = 9;
glyphname = khakayahli;
lastChange = "2016-07-15 20:17:18 +0000";
layers = (
{
background = {
paths = (
{
closed = 1;
nodes = (
"428 -15 LINE SMOOTH",
"513.333 -15 OFFCURVE",
"538 24 OFFCURVE",
"538 124 CURVE SMOOTH",
"538 337 LINE SMOOTH",
"538 437 OFFCURVE",
"513.333 476 OFFCURVE",
"428 476 CURVE SMOOTH",
"174 476 LINE SMOOTH",
"88.667 476 OFFCURVE",
"64 437 OFFCURVE",
"64 337 CURVE SMOOTH",
"64 235 LINE",
"466 235 LINE",
"466 106 LINE SMOOTH",
"466 67.333 OFFCURVE",
"457 57 OFFCURVE",
"421 57 CURVE SMOOTH",
"181 57 LINE SMOOTH",
"145 57 OFFCURVE",
"136 67.333 OFFCURVE",
"136 106 CURVE SMOOTH",
"136 123 LINE",
"203 123 LINE SMOOTH",
"233.667 123 OFFCURVE",
"249 135 OFFCURVE",
"249 159 CURVE SMOOTH",
"249 183 OFFCURVE",
"233.667 195 OFFCURVE",
"203 195 CURVE SMOOTH",
"64 195 LINE",
"64 124 LINE SMOOTH",
"64 24 OFFCURVE",
"88.667 -15 OFFCURVE",
"174 -15 CURVE SMOOTH"
);
},
{
closed = 1;
nodes = (
"136 354 LINE SMOOTH",
"136 392.667 OFFCURVE",
"145 404 OFFCURVE",
"181 404 CURVE SMOOTH",
"421 404 LINE SMOOTH",
"457 404 OFFCURVE",
"466 392.667 OFFCURVE",
"466 354 CURVE SMOOTH",
"466 307 LINE",
"136 307 LINE"
);
}
);
};
layerId = "B309FD91-69BF-47D2-8142-D25EBE917F3C";
paths = (
{
closed = 1;
nodes = (
"434 0 LINE SMOOTH",
"507.333 0 OFFCURVE",
"529 30.667 OFFCURVE",
"529 124 CURVE SMOOTH",
"529 337 LINE SMOOTH",
"529 430.333 OFFCURVE",
"507.333 461 OFFCURVE",
"434 461 CURVE SMOOTH",
"180 461 LINE SMOOTH",
"106.667 461 OFFCURVE",
"85 430.333 OFFCURVE",
"85 337 CURVE SMOOTH",
"85 250 LINE",
"487 250 LINE",
"487 106 LINE SMOOTH",
"487 59.333 OFFCURVE",
"472.333 42 OFFCURVE",
"427 42 CURVE SMOOTH",
"187 42 LINE SMOOTH",
"141.667 42 OFFCURVE",
"127 59.333 OFFCURVE",
"127 106 CURVE SMOOTH",
"127 148 LINE",
"209 148 LINE SMOOTH",
"250.333 148 OFFCURVE",
"250.333 190 OFFCURVE",
"209 190 CURVE SMOOTH",
"85 190 LINE",
"85 124 LINE SMOOTH",
"85 30.667 OFFCURVE",
"106.667 0 OFFCURVE",
"180 0 CURVE SMOOTH"
);
},
{
closed = 1;
nodes = (
"127 354 LINE SMOOTH",
"127 400.667 OFFCURVE",
"141.667 419 OFFCURVE",
"187 419 CURVE SMOOTH",
"427 419 LINE SMOOTH",
"472.333 419 OFFCURVE",
"487 400.667 OFFCURVE",
"487 354 CURVE SMOOTH",
"487 292 LINE",
"127 292 LINE"
);
}
);
width = 614;
},
{
background = {
paths = (
{
closed = 1;
nodes = (
"428 -15 LINE SMOOTH",
"513.333 -15 OFFCURVE",
"538 24 OFFCURVE",
"538 124 CURVE SMOOTH",
"538 337 LINE SMOOTH",
"538 437 OFFCURVE",
"513.333 476 OFFCURVE",
"428 476 CURVE SMOOTH",
"174 476 LINE SMOOTH",
"88.667 476 OFFCURVE",
"64 437 OFFCURVE",
"64 337 CURVE SMOOTH",
"64 235 LINE",
"466 235 LINE",
"466 106 LINE SMOOTH",
"466 67.333 OFFCURVE",
"457 57 OFFCURVE",
"421 57 CURVE SMOOTH",
"181 57 LINE SMOOTH",
"145 57 OFFCURVE",
"136 67.333 OFFCURVE",
"136 106 CURVE SMOOTH",
"136 123 LINE",
"203 123 LINE SMOOTH",
"233.667 123 OFFCURVE",
"249 135 OFFCURVE",
"249 159 CURVE SMOOTH",
"249 183 OFFCURVE",
"233.667 195 OFFCURVE",
"203 195 CURVE SMOOTH",
"64 195 LINE",
"64 124 LINE SMOOTH",
"64 24 OFFCURVE",
"88.667 -15 OFFCURVE",
"174 -15 CURVE SMOOTH"
);
},
{
closed = 1;
nodes = (
"136 354 LINE SMOOTH",
"136 392.667 OFFCURVE",
"145 404 OFFCURVE",
"181 404 CURVE SMOOTH",
"421 404 LINE SMOOTH",
"457 404 OFFCURVE",
"466 392.667 OFFCURVE",
"466 354 CURVE SMOOTH",
"466 307 LINE",
"136 307 LINE"
);
}
);
};
layerId = "3776B938-A14A-42B9-91A8-ACB6A1608662";
paths = (
{
closed = 1;
nodes = (
"428 -15 LINE SMOOTH",
"513.333 -15 OFFCURVE",
"538 24 OFFCURVE",
"538 124 CURVE SMOOTH",
"538 337 LINE SMOOTH",
"538 437 OFFCURVE",
"513.333 476 OFFCURVE",
"428 476 CURVE SMOOTH",
"174 476 LINE SMOOTH",
"88.667 476 OFFCURVE",
"64 437 OFFCURVE",
"64 337 CURVE SMOOTH",
"64 235 LINE",
"466 235 LINE",
"466 106 LINE SMOOTH",
"466 67.333 OFFCURVE",
"457 57 OFFCURVE",
"421 57 CURVE SMOOTH",
"181 57 LINE SMOOTH",
"145 57 OFFCURVE",
"136 67.333 OFFCURVE",
"136 106 CURVE SMOOTH",
"136 123 LINE",
"203 123 LINE SMOOTH",
"233.667 123 OFFCURVE",
"249 135 OFFCURVE",
"249 159 CURVE SMOOTH",
"249 183 OFFCURVE",
"233.667 195 OFFCURVE",
"203 195 CURVE SMOOTH",
"64 195 LINE",
"64 124 LINE SMOOTH",
"64 24 OFFCURVE",
"88.667 -15 OFFCURVE",
"174 -15 CURVE SMOOTH"
);
},
{
closed = 1;
nodes = (
"136 354 LINE SMOOTH",
"136 392.667 OFFCURVE",
"145 404 OFFCURVE",
"181 404 CURVE SMOOTH",
"421 404 LINE SMOOTH",
"457 404 OFFCURVE",
"466 392.667 OFFCURVE",
"466 354 CURVE SMOOTH",
"466 307 LINE",
"136 307 LINE"
);
}
);
width = 604;
},
{
background = {
paths = (
{
closed = 1;
nodes = (
"434 0 LINE SMOOTH",
"507.333 0 OFFCURVE",
"529 30.667 OFFCURVE",
"529 124 CURVE SMOOTH",
"529 337 LINE SMOOTH",
"529 430.333 OFFCURVE",
"507.333 461 OFFCURVE",
"434 461 CURVE SMOOTH",
"180 461 LINE SMOOTH",
"106.667 461 OFFCURVE",
"85 430.333 OFFCURVE",
"85 337 CURVE SMOOTH",
"85 250 LINE",
"487 250 LINE",
"487 106 LINE SMOOTH",
"487 59.333 OFFCURVE",
"472.333 42 OFFCURVE",
"427 42 CURVE SMOOTH",
"187 42 LINE SMOOTH",
"141.667 42 OFFCURVE",
"127 59.333 OFFCURVE",
"127 106 CURVE SMOOTH",
"127 148 LINE",
"209 148 LINE SMOOTH",
"250.333 148 OFFCURVE",
"250.333 190 OFFCURVE",
"209 190 CURVE SMOOTH",
"85 190 LINE",
"85 124 LINE SMOOTH",
"85 30.667 OFFCURVE",
"106.667 0 OFFCURVE",
"180 0 CURVE SMOOTH"
);
},
{
closed = 1;
nodes = (
"127 354 LINE SMOOTH",
"127 400.667 OFFCURVE",
"141.667 419 OFFCURVE",
"187 419 CURVE SMOOTH",
"427 419 LINE SMOOTH",
"472.333 419 OFFCURVE",
"487 400.667 OFFCURVE",
"487 354 CURVE SMOOTH",
"487 292 LINE",
"127 292 LINE"
);
}
);
};
layerId = "0E6FACCE-B85C-44A4-8B06-9EFDFED90B40";
width = 600;
}
);
unicode = A90B;
},
{
color = 9;
glyphname = gakayahli;
lastChange = "2016-07-15 20:17:18 +0000";
layers = (
{
background = {
paths = (
{
closed = 1;
nodes = (
"191 -15 LINE SMOOTH",
"221.667 -15 OFFCURVE",
"237 -3 OFFCURVE",
"237 21 CURVE SMOOTH",
"237 45 OFFCURVE",
"221.667 57 OFFCURVE",
"191 57 CURVE SMOOTH",
"146 57 LINE",
"146 154 LINE",
"476 154 LINE",
"476 57 LINE",
"431 57 LINE SMOOTH",
"400.333 57 OFFCURVE",
"385 45 OFFCURVE",
"385 21 CURVE SMOOTH",
"385 -3 OFFCURVE",
"400.333 -15 OFFCURVE",
"431 -15 CURVE SMOOTH",
"548 -15 LINE",
"548 337 LINE SMOOTH",
"548 437 OFFCURVE",
"523.333 476 OFFCURVE",
"438 476 CURVE SMOOTH",
"316 476 LINE",
"146 271 LINE",
"146 438 LINE SMOOTH",
"146 468 OFFCURVE",
"134 483 OFFCURVE",
"110 483 CURVE SMOOTH",
"86 483 OFFCURVE",
"74 468 OFFCURVE",
"74 438 CURVE SMOOTH",
"74 -15 LINE"
);
},
{
closed = 1;
nodes = (
"344 404 LINE",
"431 404 LINE SMOOTH",
"467 404 OFFCURVE",
"476 392.667 OFFCURVE",
"476 354 CURVE SMOOTH",
"476 226 LINE",
"200 226 LINE"
);
}
);
};
layerId = "B309FD91-69BF-47D2-8142-D25EBE917F3C";
paths = (
{
closed = 1;
nodes = (
"187 0 LINE SMOOTH",
"228.333 0 OFFCURVE",
"228.333 42 OFFCURVE",
"187 42 CURVE SMOOTH",
"127 42 LINE",
"127 169 LINE",
"487 169 LINE",
"487 42 LINE",
"427 42 LINE SMOOTH",
"385.667 42 OFFCURVE",
"385.667 0 OFFCURVE",
"427 0 CURVE SMOOTH",
"529 0 LINE",
"529 337 LINE SMOOTH",
"529 430.333 OFFCURVE",
"507.333 461 OFFCURVE",
"434 461 CURVE SMOOTH",
"318 461 LINE",
"127 229 LINE",
"127 438 LINE SMOOTH",
"127 478 OFFCURVE",
"85 478 OFFCURVE",
"85 438 CURVE SMOOTH",
"85 0 LINE"
);
},
{
closed = 1;
nodes = (
"334 419 LINE",
"427 419 LINE SMOOTH",
"472.333 419 OFFCURVE",
"487 400.667 OFFCURVE",
"487 354 CURVE SMOOTH",
"487 211 LINE",
"163 211 LINE"
);
}
);
width = 614;
},
{
background = {
paths = (
{
closed = 1;
nodes = (
"191 -15 LINE SMOOTH",
"221.667 -15 OFFCURVE",
"237 -3 OFFCURVE",
"237 21 CURVE SMOOTH",
"237 45 OFFCURVE",
"221.667 57 OFFCURVE",
"191 57 CURVE SMOOTH",
"146 57 LINE",
"146 154 LINE",
"476 154 LINE",
"476 57 LINE",
"431 57 LINE SMOOTH",
"400.333 57 OFFCURVE",
"385 45 OFFCURVE",
"385 21 CURVE SMOOTH",
"385 -3 OFFCURVE",
"400.333 -15 OFFCURVE",
"431 -15 CURVE SMOOTH",
"548 -15 LINE",
"548 337 LINE SMOOTH",
"548 437 OFFCURVE",
"523.333 476 OFFCURVE",
"438 476 CURVE SMOOTH",
"316 476 LINE",
"146 271 LINE",
"146 438 LINE SMOOTH",
"146 468 OFFCURVE",
"134 483 OFFCURVE",
"110 483 CURVE SMOOTH",
"86 483 OFFCURVE",
"74 468 OFFCURVE",
"74 438 CURVE SMOOTH",
"74 -15 LINE"
);
},
{
closed = 1;
nodes = (
"344 404 LINE",
"431 404 LINE SMOOTH",
"467 404 OFFCURVE",
"476 392.667 OFFCURVE",
"476 354 CURVE SMOOTH",
"476 226 LINE",
"200 226 LINE"
);
}
);
};
layerId = "3776B938-A14A-42B9-91A8-ACB6A1608662";
paths = (
{
closed = 1;
nodes = (
"191 -15 LINE SMOOTH",
"221.667 -15 OFFCURVE",
"237 -3 OFFCURVE",
"237 21 CURVE SMOOTH",
"237 45 OFFCURVE",
"221.667 57 OFFCURVE",
"191 57 CURVE SMOOTH",
"146 57 LINE",
"146 154 LINE",
"476 154 LINE",
"476 57 LINE",
"431 57 LINE SMOOTH",
"400.333 57 OFFCURVE",
"385 45 OFFCURVE",
"385 21 CURVE SMOOTH",
"385 -3 OFFCURVE",
"400.333 -15 OFFCURVE",
"431 -15 CURVE SMOOTH",
"548 -15 LINE",
"548 337 LINE SMOOTH",
"548 437 OFFCURVE",
"523.333 476 OFFCURVE",
"438 476 CURVE SMOOTH",
"316 476 LINE",
"146 271 LINE",
"146 438 LINE SMOOTH",
"146 468 OFFCURVE",
"134 483 OFFCURVE",
"110 483 CURVE SMOOTH",
"86 483 OFFCURVE",
"74 468 OFFCURVE",
"74 438 CURVE SMOOTH",
"74 -15 LINE"
);
},
{
closed = 1;
nodes = (
"344 404 LINE",
"431 404 LINE SMOOTH",
"467 404 OFFCURVE",
"476 392.667 OFFCURVE",
"476 354 CURVE SMOOTH",
"476 226 LINE",
"200 226 LINE"
);
}
);
width = 622;
},
{
background = {
paths = (
{
closed = 1;
nodes = (
"187 0 LINE SMOOTH",
"228.333 0 OFFCURVE",
"228.333 42 OFFCURVE",
"187 42 CURVE SMOOTH",
"127 42 LINE",
"127 169 LINE",
"487 169 LINE",
"487 42 LINE",
"427 42 LINE SMOOTH",
"385.667 42 OFFCURVE",
"385.667 0 OFFCURVE",
"427 0 CURVE SMOOTH",
"529 0 LINE",
"529 337 LINE SMOOTH",
"529 430.333 OFFCURVE",
"507.333 461 OFFCURVE",
"434 461 CURVE SMOOTH",
"318 461 LINE",
"127 229 LINE",
"127 438 LINE SMOOTH",
"127 478 OFFCURVE",
"85 478 OFFCURVE",
"85 438 CURVE SMOOTH",
"85 0 LINE"
);
},
{
closed = 1;
nodes = (
"334 419 LINE",
"427 419 LINE SMOOTH",
"472.333 419 OFFCURVE",
"487 400.667 OFFCURVE",
"487 354 CURVE SMOOTH",
"487 211 LINE",
"163 211 LINE"
);
}
);
};
layerId = "0E6FACCE-B85C-44A4-8B06-9EFDFED90B40";
width = 600;
}
);
unicode = A90C;
},
{
color = 9;
glyphname = ngakayahli;
lastChange = "2016-07-15 20:29:48 +0000";
layers = (
{
background = {
paths = (
{
closed = 1;
nodes = (
"434 0 LINE SMOOTH",
"507.333 0 OFFCURVE",
"529 30.667 OFFCURVE",
"529 124 CURVE SMOOTH",
"529 185 LINE",
"406 185 LINE SMOOTH",
"364.667 185 OFFCURVE",
"364.667 143 OFFCURVE",
"406 143 CURVE SMOOTH",
"487 143 LINE",
"487 106 LINE SMOOTH",
"487 59.333 OFFCURVE",
"472.333 42 OFFCURVE",
"427 42 CURVE SMOOTH",
"187 42 LINE SMOOTH",
"141.667 42 OFFCURVE",
"127 59.333 OFFCURVE",
"127 106 CURVE SMOOTH",
"127 354 LINE SMOOTH",
"127 400.667 OFFCURVE",
"141.667 419 OFFCURVE",
"187 419 CURVE SMOOTH",
"427 419 LINE SMOOTH",
"472.333 419 OFFCURVE",
"487 400.667 OFFCURVE",
"487 354 CURVE SMOOTH",
"487 318 LINE",
"406 318 LINE SMOOTH",
"364.667 318 OFFCURVE",
"364.667 276 OFFCURVE",
"406 276 CURVE SMOOTH",
"529 276 LINE",
"529 337 LINE SMOOTH",
"529 430.333 OFFCURVE",
"507.333 461 OFFCURVE",
"434 461 CURVE SMOOTH",
"180 461 LINE SMOOTH",
"106.667 461 OFFCURVE",
"85 430.333 OFFCURVE",
"85 337 CURVE SMOOTH",
"85 124 LINE SMOOTH",
"85 30.667 OFFCURVE",
"106.667 0 OFFCURVE",
"180 0 CURVE SMOOTH"
);
}
);
};
layerId = "B309FD91-69BF-47D2-8142-D25EBE917F3C";
paths = (
{
closed = 1;
nodes = (
"497.897 -0.9 OFFCURVE",
"530 31.342 OFFCURVE",
"530 100.4 CURVE",
"529.95 187.4 LINE",
"396.4 187.4 LINE SMOOTH",
"384.802 187.4 OFFCURVE",
"375.4 177.998 OFFCURVE",
"375.4 166.4 CURVE SMOOTH",
"375.4 154.802 OFFCURVE",
"384.802 145.4 OFFCURVE",
"396.4 145.4 CURVE SMOOTH",
"487.727 145.4 LINE",
"488 100.273 LINE SMOOTH",
"488 54.998 OFFCURVE",
"474.174 41.1 OFFCURVE",
"429.1 41.1 CURVE SMOOTH",
"189.9 41.1 LINE SMOOTH",
"140.695 41.1 OFFCURVE",
"126.5 55.183 OFFCURVE",
"126.5 100.3 CURVE SMOOTH",
"126.5 359.9 LINE SMOOTH",
"126.5 406.604 OFFCURVE",
"139.972 419.9 OFFCURVE",
"183.8 419.9 CURVE SMOOTH",
"429.5 419.9 LINE SMOOTH",
"473.237 419.9 OFFCURVE",
"486.539 406.031 OFFCURVE",
"486.3 360.009 CURVE SMOOTH",
"486.574 314.2 LINE",
"395.7 314.2 LINE SMOOTH",
"384.102 314.2 OFFCURVE",
"374.7 304.798 OFFCURVE",
"374.7 293.2 CURVE SMOOTH",
"374.7 281.602 OFFCURVE",
"384.102 272.2 OFFCURVE",
"395.7 272.2 CURVE SMOOTH",
"528.85 272.2 LINE",
"528.3 360.026 LINE",
"528.66 429.333 OFFCURVE",
"497.233 461.9 OFFCURVE",
"429.5 461.9 CURVE SMOOTH",
"183.8 461.9 LINE SMOOTH",
"116.049 461.9 OFFCURVE",
"84.5 429.41 OFFCURVE",
"84.5 359.9 CURVE SMOOTH",
"84.5 100.3 LINE SMOOTH",
"84.5 31.139 OFFCURVE",
"117.996 -0.9 OFFCURVE",
"189.9 -0.9 CURVE SMOOTH",
"429.1 -0.9 LINE SMOOTH"
);
}
);
width = 614;
},
{
background = {
paths = (
{
closed = 1;
nodes = (
"430 -15 LINE SMOOTH",
"515.333 -15 OFFCURVE",
"540 24 OFFCURVE",
"540 124 CURVE SMOOTH",
"540 190 LINE",
"402 190 LINE SMOOTH",
"371.333 190 OFFCURVE",
"356 178 OFFCURVE",
"356 154 CURVE SMOOTH",
"356 130 OFFCURVE",
"371.333 118 OFFCURVE",
"402 118 CURVE SMOOTH",
"468 118 LINE",
"468 106 LINE SMOOTH",
"468 67.333 OFFCURVE",
"459 57 OFFCURVE",
"423 57 CURVE SMOOTH",
"183 57 LINE SMOOTH",
"147 57 OFFCURVE",
"138 67.333 OFFCURVE",
"138 106 CURVE SMOOTH",
"138 354 LINE SMOOTH",
"138 392.667 OFFCURVE",
"147 404 OFFCURVE",
"183 404 CURVE SMOOTH",
"423 404 LINE SMOOTH",
"459 404 OFFCURVE",
"468 392.667 OFFCURVE",
"468 354 CURVE SMOOTH",
"468 343 LINE",
"402 343 LINE SMOOTH",
"371.333 343 OFFCURVE",
"356 331 OFFCURVE",
"356 307 CURVE SMOOTH",
"356 283 OFFCURVE",
"371.333 271 OFFCURVE",
"402 271 CURVE SMOOTH",
"540 271 LINE",
"540 337 LINE SMOOTH",
"540 437 OFFCURVE",
"515.333 476 OFFCURVE",
"430 476 CURVE SMOOTH",
"176 476 LINE SMOOTH",
"90.667 476 OFFCURVE",
"66 437 OFFCURVE",
"66 337 CURVE SMOOTH",
"66 124 LINE SMOOTH",
"66 24 OFFCURVE",
"90.667 -15 OFFCURVE",
"176 -15 CURVE SMOOTH"
);
}
);
};
layerId = "3776B938-A14A-42B9-91A8-ACB6A1608662";
paths = (
{
closed = 1;
nodes = (
"430 -15 LINE SMOOTH",
"515.333 -15 OFFCURVE",
"540 24 OFFCURVE",
"540 124 CURVE SMOOTH",
"540 190 LINE",
"402 190 LINE SMOOTH",
"371.333 190 OFFCURVE",
"356 178 OFFCURVE",
"356 154 CURVE SMOOTH",
"356 130 OFFCURVE",
"371.333 118 OFFCURVE",
"402 118 CURVE SMOOTH",
"468 118 LINE",
"468 106 LINE SMOOTH",
"468 67.333 OFFCURVE",
"459 57 OFFCURVE",
"423 57 CURVE SMOOTH",
"183 57 LINE SMOOTH",
"147 57 OFFCURVE",
"138 67.333 OFFCURVE",
"138 106 CURVE SMOOTH",
"138 354 LINE SMOOTH",
"138 392.667 OFFCURVE",
"147 404 OFFCURVE",
"183 404 CURVE SMOOTH",
"423 404 LINE SMOOTH",
"459 404 OFFCURVE",
"468 392.667 OFFCURVE",
"468 354 CURVE SMOOTH",
"468 343 LINE",
"402 343 LINE SMOOTH",
"371.333 343 OFFCURVE",
"356 331 OFFCURVE",
"356 307 CURVE SMOOTH",
"356 283 OFFCURVE",
"371.333 271 OFFCURVE",
"402 271 CURVE SMOOTH",
"540 271 LINE",
"540 337 LINE SMOOTH",
"540 437 OFFCURVE",
"515.333 476 OFFCURVE",
"430 476 CURVE SMOOTH",
"176 476 LINE SMOOTH",
"90.667 476 OFFCURVE",
"66 437 OFFCURVE",
"66 337 CURVE SMOOTH",
"66 124 LINE SMOOTH",
"66 24 OFFCURVE",
"90.667 -15 OFFCURVE",
"176 -15 CURVE SMOOTH"
);
}
);
width = 603;
},
{
background = {
paths = (
{
closed = 1;
nodes = (
"434 0 LINE SMOOTH",
"507.333 0 OFFCURVE",
"529 30.667 OFFCURVE",
"529 124 CURVE SMOOTH",
"529 185 LINE",
"406 185 LINE SMOOTH",
"364.667 185 OFFCURVE",
"364.667 143 OFFCURVE",
"406 143 CURVE SMOOTH",
"487 143 LINE",
"487 106 LINE SMOOTH",
"487 59.333 OFFCURVE",
"472.333 42 OFFCURVE",
"427 42 CURVE SMOOTH",
"187 42 LINE SMOOTH",
"141.667 42 OFFCURVE",
"127 59.333 OFFCURVE",
"127 106 CURVE SMOOTH",
"127 354 LINE SMOOTH",
"127 400.667 OFFCURVE",
"141.667 419 OFFCURVE",
"187 419 CURVE SMOOTH",
"427 419 LINE SMOOTH",
"472.333 419 OFFCURVE",
"487 400.667 OFFCURVE",
"487 354 CURVE SMOOTH",
"487 318 LINE",
"406 318 LINE SMOOTH",
"364.667 318 OFFCURVE",
"364.667 276 OFFCURVE",
"406 276 CURVE SMOOTH",
"529 276 LINE",
"529 337 LINE SMOOTH",
"529 430.333 OFFCURVE",
"507.333 461 OFFCURVE",
"434 461 CURVE SMOOTH",
"180 461 LINE SMOOTH",
"106.667 461 OFFCURVE",
"85 430.333 OFFCURVE",
"85 337 CURVE SMOOTH",
"85 124 LINE SMOOTH",
"85 30.667 OFFCURVE",
"106.667 0 OFFCURVE",
"180 0 CURVE SMOOTH"
);
},
{
closed = 1;
nodes = (
"429 20.4 LINE",
"508.4 20.4 LINE",
"508.4 99.8 LINE",
"429 99.8 LINE"
);
},
{
closed = 1;
nodes = (
"105 20.4 LINE",
"184.4 20.4 LINE",
"184.4 99.8 LINE",
"105 99.8 LINE"
);
},
{
closed = 1;
nodes = (
"429 361.4 LINE",
"508.4 361.4 LINE",
"508.4 440.8 LINE",
"429 440.8 LINE"
);
},
{
closed = 1;
nodes = (
"105 361.4 LINE",
"184.4 361.4 LINE",
"184.4 440.8 LINE",
"105 440.8 LINE"
);
}
);
};
guideLines = (
{
angle = 90;
position = "{396, 278.4}";
},
{
position = "{237.3, 348.6}";
},
{
position = "{353.5, 99.8}";
}
);
layerId = "0E6FACCE-B85C-44A4-8B06-9EFDFED90B40";
paths = (
{
closed = 0;
nodes = (
"396.4 166.4 LINE",
"508.6 166.4 LINE",
"509 100.4 LINE",
"509 43.05 OFFCURVE",
"486.15 20.1 OFFCURVE",
"429.1 20.1 CURVE",
"189.9 20.1 LINE",
"129.6 20.1 OFFCURVE",
"105.5 43 OFFCURVE",
"105.5 100.3 CURVE",
"105.5 359.9 LINE",
"105.5 417.75 OFFCURVE",
"127.85 440.9 OFFCURVE",
"183.8 440.9 CURVE",
"429.5 440.9 LINE",
"485.4 440.9 OFFCURVE",
"507.6 417.75 OFFCURVE",
"507.3 359.9 CURVE",
"507.7 293.2 LINE",
"395.7 293.2 LINE"
);
}
);
width = 579;
},
{
associatedMasterId = "B309FD91-69BF-47D2-8142-D25EBE917F3C";
background = {
paths = (
{
closed = 1;
nodes = (
"434 0 LINE SMOOTH",
"507.333 0 OFFCURVE",
"529 30.667 OFFCURVE",
"529 124 CURVE SMOOTH",
"529 185 LINE",
"406 185 LINE SMOOTH",
"364.667 185 OFFCURVE",
"364.667 143 OFFCURVE",
"406 143 CURVE SMOOTH",
"487 143 LINE",
"487 106 LINE SMOOTH",
"487 59.333 OFFCURVE",
"472.333 42 OFFCURVE",
"427 42 CURVE SMOOTH",
"187 42 LINE SMOOTH",
"141.667 42 OFFCURVE",
"127 59.333 OFFCURVE",
"127 106 CURVE SMOOTH",
"127 354 LINE SMOOTH",
"127 400.667 OFFCURVE",
"141.667 419 OFFCURVE",
"187 419 CURVE SMOOTH",
"427 419 LINE SMOOTH",
"472.333 419 OFFCURVE",
"487 400.667 OFFCURVE",
"487 354 CURVE SMOOTH",
"487 318 LINE",
"406 318 LINE SMOOTH",
"364.667 318 OFFCURVE",
"364.667 276 OFFCURVE",
"406 276 CURVE SMOOTH",
"529 276 LINE",
"529 337 LINE SMOOTH",
"529 430.333 OFFCURVE",
"507.333 461 OFFCURVE",
"434 461 CURVE SMOOTH",
"180 461 LINE SMOOTH",
"106.667 461 OFFCURVE",
"85 430.333 OFFCURVE",
"85 337 CURVE SMOOTH",
"85 124 LINE SMOOTH",
"85 30.667 OFFCURVE",
"106.667 0 OFFCURVE",
"180 0 CURVE SMOOTH"
);
}
);
};
layerId = "0F2CFA2F-ACC2-4203-A341-978A46F10776";
name = "SemiLight Jul 15 16, 16:28";
paths = (
{
closed = 1;
nodes = (
"434 0 LINE SMOOTH",
"507.333 0 OFFCURVE",
"529 30.667 OFFCURVE",
"529 124 CURVE SMOOTH",
"529 185 LINE",
"406 185 LINE SMOOTH",
"364.667 185 OFFCURVE",
"364.667 143 OFFCURVE",
"406 143 CURVE SMOOTH",
"487 143 LINE",
"487 106 LINE SMOOTH",
"487 59.333 OFFCURVE",
"472.333 42 OFFCURVE",
"427 42 CURVE SMOOTH",
"187 42 LINE SMOOTH",
"141.667 42 OFFCURVE",
"127 59.333 OFFCURVE",
"127 106 CURVE SMOOTH",
"127 354 LINE SMOOTH",
"127 400.667 OFFCURVE",
"141.667 419 OFFCURVE",
"187 419 CURVE SMOOTH",
"427 419 LINE SMOOTH",
"472.333 419 OFFCURVE",
"487 400.667 OFFCURVE",
"487 354 CURVE SMOOTH",
"487 318 LINE",
"406 318 LINE SMOOTH",
"364.667 318 OFFCURVE",
"364.667 276 OFFCURVE",
"406 276 CURVE SMOOTH",
"529 276 LINE",
"529 337 LINE SMOOTH",
"529 430.333 OFFCURVE",
"507.333 461 OFFCURVE",
"434 461 CURVE SMOOTH",
"180 461 LINE SMOOTH",
"106.667 461 OFFCURVE",
"85 430.333 OFFCURVE",
"85 337 CURVE SMOOTH",
"85 124 LINE SMOOTH",
"85 30.667 OFFCURVE",
"106.667 0 OFFCURVE",
"180 0 CURVE SMOOTH"
);
}
);
width = 614;
}
);
unicode = A90D;
},
{
color = 9;
glyphname = sakayahli;
lastChange = "2016-07-15 20:17:18 +0000";
layers = (
{
background = {
paths = (
{
closed = 1;
nodes = (
"167 -15 LINE SMOOTH",
"197 -15 OFFCURVE",
"212 -3 OFFCURVE",
"212 21 CURVE SMOOTH",
"212 45 OFFCURVE",
"197 57 OFFCURVE",
"167 57 CURVE SMOOTH",
"149 57 LINE",
"255 184 LINE",
"284.333 162.667 OFFCURVE",
"339.5 158.5 OFFCURVE",
"377.5 196.5 CURVE SMOOTH",
"415.5 234.5 OFFCURVE",
"415.5 297.5 OFFCURVE",
"377.5 335.5 CURVE SMOOTH",
"316.152 396.848 OFFCURVE",
"236.326 350.436 OFFCURVE",
"217 303 CURVE",
"174 303 LINE SMOOTH",
"138 303 OFFCURVE",
"129 314.167 OFFCURVE",
"129 353.5 CURVE SMOOTH",
"129 392.833 OFFCURVE",
"138 404 OFFCURVE",
"174 404 CURVE SMOOTH",
"413 404 LINE SMOOTH",
"449 404 OFFCURVE",
"458 392.667 OFFCURVE",
"458 354 CURVE SMOOTH",
"458 57 LINE",
"420 57 LINE SMOOTH",
"390.667 57 OFFCURVE",
"376 45 OFFCURVE",
"376 21 CURVE SMOOTH",
"376 -3 OFFCURVE",
"390.667 -15 OFFCURVE",
"420 -15 CURVE SMOOTH",
"530 -15 LINE",
"530 337 LINE SMOOTH",
"530 437 OFFCURVE",
"505.333 476 OFFCURVE",
"420 476 CURVE SMOOTH",
"167 476 LINE SMOOTH",
"84.333 476 OFFCURVE",
"57 431.667 OFFCURVE",
"57 353 CURVE SMOOTH",
"57 274.333 OFFCURVE",
"85.667 231 OFFCURVE",
"167 231 CURVE SMOOTH",
"207 231 LINE",
"57 52 LINE",
"57 -15 LINE"
);
},
{
closed = 1;
nodes = (
"269.075 236 OFFCURVE",
"270.131 296 OFFCURVE",
"307.5 296 CURVE SMOOTH",
"346.183 296 OFFCURVE",
"346.905 236 OFFCURVE",
"307 236 CURVE SMOOTH"
);
}
);
};
layerId = "B309FD91-69BF-47D2-8142-D25EBE917F3C";
paths = (
{
closed = 1;
nodes = (
"182 0 LINE SMOOTH",
"222 0 OFFCURVE",
"222 42 OFFCURVE",
"182 42 CURVE SMOOTH",
"131 42 LINE",
"267 205 LINE",
"299 175.667 OFFCURVE",
"350 174.833 OFFCURVE",
"382 207.5 CURVE SMOOTH",
"414 240.167 OFFCURVE",
"414 291.833 OFFCURVE",
"382 324.5 CURVE SMOOTH",
"330.062 377.52 OFFCURVE",
"255.911 337.8 OFFCURVE",
"243 288 CURVE",
"189 288 LINE SMOOTH",
"143.667 288 OFFCURVE",
"129 306.333 OFFCURVE",
"129 353 CURVE SMOOTH",
"129 399.667 OFFCURVE",
"143.667 419 OFFCURVE",
"189 419 CURVE SMOOTH",
"428 419 LINE SMOOTH",
"473.333 419 OFFCURVE",
"488 400.667 OFFCURVE",
"488 354 CURVE SMOOTH",
"488 42 LINE",
"435 42 LINE SMOOTH",
"396.333 42 OFFCURVE",
"396.333 0 OFFCURVE",
"435 0 CURVE SMOOTH",
"530 0 LINE",
"530 337 LINE SMOOTH",
"530 430.333 OFFCURVE",
"508.333 461 OFFCURVE",
"435 461 CURVE SMOOTH",
"182 461 LINE SMOOTH",
"111.333 461 OFFCURVE",
"87 427.667 OFFCURVE",
"87 353 CURVE SMOOTH",
"87 278.333 OFFCURVE",
"111.333 246 OFFCURVE",
"182 246 CURVE SMOOTH",
"242 246 LINE",
"244.667 240.667 OFFCURVE",
"246 237.333 OFFCURVE",
"246 236 CURVE",
"87 46 LINE",
"87 0 LINE"
);
},
{
closed = 1;
nodes = (
"264.931 221 OFFCURVE",
"264.931 311 OFFCURVE",
"322.5 311 CURVE SMOOTH",
"381.167 311 OFFCURVE",
"381.167 221 OFFCURVE",
"322.5 221 CURVE SMOOTH"
);
}
);
width = 614;
},
{
background = {
paths = (
{
closed = 1;
nodes = (
"167 -15 LINE SMOOTH",
"197 -15 OFFCURVE",
"212 -3 OFFCURVE",
"212 21 CURVE SMOOTH",
"212 45 OFFCURVE",
"197 57 OFFCURVE",
"167 57 CURVE SMOOTH",
"149 57 LINE",
"255 184 LINE",
"284.333 162.667 OFFCURVE",
"339.5 158.5 OFFCURVE",
"377.5 196.5 CURVE SMOOTH",
"415.5 234.5 OFFCURVE",
"415.5 297.5 OFFCURVE",
"377.5 335.5 CURVE SMOOTH",
"316.152 396.848 OFFCURVE",
"236.326 350.436 OFFCURVE",
"217 303 CURVE",
"174 303 LINE SMOOTH",
"138 303 OFFCURVE",
"129 314.167 OFFCURVE",
"129 353.5 CURVE SMOOTH",
"129 392.833 OFFCURVE",
"138 404 OFFCURVE",
"174 404 CURVE SMOOTH",
"413 404 LINE SMOOTH",
"449 404 OFFCURVE",
"458 392.667 OFFCURVE",
"458 354 CURVE SMOOTH",
"458 57 LINE",
"420 57 LINE SMOOTH",
"390.667 57 OFFCURVE",
"376 45 OFFCURVE",
"376 21 CURVE SMOOTH",
"376 -3 OFFCURVE",
"390.667 -15 OFFCURVE",
"420 -15 CURVE SMOOTH",
"530 -15 LINE",
"530 337 LINE SMOOTH",
"530 437 OFFCURVE",
"505.333 476 OFFCURVE",
"420 476 CURVE SMOOTH",
"167 476 LINE SMOOTH",
"84.333 476 OFFCURVE",
"57 431.667 OFFCURVE",
"57 353 CURVE SMOOTH",
"57 274.333 OFFCURVE",
"85.667 231 OFFCURVE",
"167 231 CURVE SMOOTH",
"207 231 LINE",
"57 52 LINE",
"57 -15 LINE"
);
},
{
closed = 1;
nodes = (
"269.075 236 OFFCURVE",
"270.131 296 OFFCURVE",
"307.5 296 CURVE SMOOTH",
"346.183 296 OFFCURVE",
"346.905 236 OFFCURVE",
"307 236 CURVE SMOOTH"
);
}
);
};
layerId = "3776B938-A14A-42B9-91A8-ACB6A1608662";
paths = (
{
closed = 1;
nodes = (
"167 -15 LINE SMOOTH",
"197 -15 OFFCURVE",
"212 -3 OFFCURVE",
"212 21 CURVE SMOOTH",
"212 45 OFFCURVE",
"197 57 OFFCURVE",
"167 57 CURVE SMOOTH",
"149 57 LINE",
"255 184 LINE",
"284.333 162.667 OFFCURVE",
"339.5 158.5 OFFCURVE",
"377.5 196.5 CURVE SMOOTH",
"415.5 234.5 OFFCURVE",
"415.5 297.5 OFFCURVE",
"377.5 335.5 CURVE SMOOTH",
"316.152 396.848 OFFCURVE",
"236.326 350.436 OFFCURVE",
"217 303 CURVE",
"174 303 LINE SMOOTH",
"138 303 OFFCURVE",
"129 314.167 OFFCURVE",
"129 353.5 CURVE SMOOTH",
"129 392.833 OFFCURVE",
"138 404 OFFCURVE",
"174 404 CURVE SMOOTH",
"413 404 LINE SMOOTH",
"449 404 OFFCURVE",
"458 392.667 OFFCURVE",
"458 354 CURVE SMOOTH",
"458 57 LINE",
"420 57 LINE SMOOTH",
"390.667 57 OFFCURVE",
"376 45 OFFCURVE",
"376 21 CURVE SMOOTH",
"376 -3 OFFCURVE",
"390.667 -15 OFFCURVE",
"420 -15 CURVE SMOOTH",
"530 -15 LINE",
"530 337 LINE SMOOTH",
"530 437 OFFCURVE",
"505.333 476 OFFCURVE",
"420 476 CURVE SMOOTH",
"167 476 LINE SMOOTH",
"84.333 476 OFFCURVE",
"57 431.667 OFFCURVE",
"57 353 CURVE SMOOTH",
"57 274.333 OFFCURVE",
"85.667 231 OFFCURVE",
"167 231 CURVE SMOOTH",
"207 231 LINE",
"57 52 LINE",
"57 -15 LINE"
);
},
{
closed = 1;
nodes = (
"269.075 236 OFFCURVE",
"270.131 296 OFFCURVE",
"307.5 296 CURVE SMOOTH",
"346.183 296 OFFCURVE",
"346.905 236 OFFCURVE",
"307 236 CURVE SMOOTH"
);
}
);
width = 604;
},
{
background = {
paths = (
{
closed = 1;
nodes = (
"182 0 LINE SMOOTH",
"222 0 OFFCURVE",
"222 42 OFFCURVE",
"182 42 CURVE SMOOTH",
"131 42 LINE",
"267 205 LINE",
"299 175.667 OFFCURVE",
"350 174.833 OFFCURVE",
"382 207.5 CURVE SMOOTH",
"414 240.167 OFFCURVE",
"414 291.833 OFFCURVE",
"382 324.5 CURVE SMOOTH",
"330.062 377.52 OFFCURVE",
"255.911 337.8 OFFCURVE",
"243 288 CURVE",
"189 288 LINE SMOOTH",
"143.667 288 OFFCURVE",
"129 306.333 OFFCURVE",
"129 353 CURVE SMOOTH",
"129 399.667 OFFCURVE",
"143.667 419 OFFCURVE",
"189 419 CURVE SMOOTH",
"428 419 LINE SMOOTH",
"473.333 419 OFFCURVE",
"488 400.667 OFFCURVE",
"488 354 CURVE SMOOTH",
"488 42 LINE",
"435 42 LINE SMOOTH",
"396.333 42 OFFCURVE",
"396.333 0 OFFCURVE",
"435 0 CURVE SMOOTH",
"530 0 LINE",
"530 337 LINE SMOOTH",
"530 430.333 OFFCURVE",
"508.333 461 OFFCURVE",
"435 461 CURVE SMOOTH",
"182 461 LINE SMOOTH",
"111.333 461 OFFCURVE",
"87 427.667 OFFCURVE",
"87 353 CURVE SMOOTH",
"87 278.333 OFFCURVE",
"111.333 246 OFFCURVE",
"182 246 CURVE SMOOTH",
"242 246 LINE",
"244.667 240.667 OFFCURVE",
"246 237.333 OFFCURVE",
"246 236 CURVE",
"87 46 LINE",
"87 0 LINE"
);
},
{
closed = 1;
nodes = (
"264.931 221 OFFCURVE",
"264.931 311 OFFCURVE",
"322.5 311 CURVE SMOOTH",
"381.167 311 OFFCURVE",
"381.167 221 OFFCURVE",
"322.5 221 CURVE SMOOTH"
);
}
);
};
layerId = "0E6FACCE-B85C-44A4-8B06-9EFDFED90B40";
width = 600;
}
);
unicode = A90E;
},
